<?xml version="1.0" standalone="no"?>
<!DOCTYPE svg PUBLIC "-//W3C//DTD SVG 20010904//EN"
 "http://www.w3.org/TR/2001/REC-SVG-20010904/DTD/svg10.dtd">
<svg version="1.0" xmlns="http://www.w3.org/2000/svg"
 width="700.000000pt" height="700.000000pt" viewBox="0 0 700.000000 700.000000"
 preserveAspectRatio="xMidYMid meet">
<metadata>
Created by potrace 1.11, written by Peter Selinger 2001-2013
</metadata>
<g transform="translate(0.000000,700.000000) scale(0.100000,-0.100000)"
fill="#000000" stroke="none">
<path d="M0 3500 l0 -3500 3500 0 3500 0 0 3500 0 3500 -3500 0 -3500 0 0
-3500z m6035 2996 c65 -30 112 -77 144 -146 25 -53 26 -62 26 -245 0 -173 -2
-194 -21 -236 -31 -66 -86 -123 -147 -150 l-52 -24 -1780 -5 -1780 -5 -42 -23
c-58 -30 -111 -86 -137 -141 -20 -44 -21 -61 -21 -356 0 -295 1 -312 21 -356
27 -58 85 -116 143 -143 44 -20 64 -21 496 -26 447 -5 450 -5 495 -28 60 -31
112 -83 141 -140 23 -45 24 -55 24 -252 0 -178 -3 -212 -19 -254 -25 -66 -84
-128 -149 -157 -52 -24 -56 -24 -502 -29 l-450 -5 -55 -31 c-30 -17 -70 -50
-87 -73 -63 -82 -64 -88 -61 -702 l3 -554 23 -50 c30 -65 83 -118 146 -147
l51 -23 1780 -5 1780 -5 42 -23 c134 -71 169 -170 161 -454 -4 -150 -6 -160
-34 -215 -34 -66 -103 -125 -168 -142 -30 -9 -666 -11 -2342 -9 l-2301 3 -48
30 c-27 17 -64 50 -82 73 -68 89 -63 -99 -61 2503 l3 2355 30 59 c32 63 100
124 159 143 20 7 814 10 2326 11 l2295 1 50 -24z"/>
</g>
</svg>
