<?xml version="1.0" encoding="utf-8"?>
<!-- Generator: Adobe Illustrator 18.0.0, SVG Export Plug-In . SVG Version: 6.00 Build 0)  -->
<!DOCTYPE svg PUBLIC "-//W3C//DTD SVG 1.1//EN" "http://www.w3.org/Graphics/SVG/1.1/DTD/svg11.dtd">
<svg version="1.1" id="Layer_1" xmlns="http://www.w3.org/2000/svg" xmlns:xlink="http://www.w3.org/1999/xlink" x="0px" y="0px"
	 width="260px" height="260px" viewBox="0 0 260 260" style="enable-background:new 0 0 260 260;" xml:space="preserve">
<style type="text/css">
	.st0{fill:#A01607;}
	.st1{fill:#FCFCFC;}
	.st2{fill:#E74C3C;}
</style>
<rect x="0" y="0" class="st0" width="260" height="260.4"/>
<path class="st1" d="M219.9,210.4H54.1c-5.8,0-10.6-4.7-10.6-10.6V28.3c0-5.8,4.7-10.6,10.6-10.6h165.8c5.8,0,10.6,4.7,10.6,10.6V38
	c0,5.8-4.7,10.6-10.6,10.6H93.1c-5.8,0-10.6,4.7-10.6,10.6v17.9c0,5.8,4.7,10.6,10.6,10.6h28.1c5.8,0,10.6,4.7,10.6,10.6v10.6
	c0,5.8-4.7,10.6-10.6,10.6H93.1c-5.8,0-10.6,4.7-10.6,10.6v37.8c0,5.8,4.7,10.6,10.6,10.6h126.8c5.8,0,10.6,4.7,10.6,10.6v10.9
	C230.5,205.7,225.8,210.4,219.9,210.4z"/>
<polygon class="st2" points="260,260.4 0,260.4 0,251.7 260,234.4 "/>
</svg>
