
<svg version="1.1" id="Layer_1" xmlns="http://www.w3.org/2000/svg" xmlns:xlink="http://www.w3.org/1999/xlink" x="0px" y="0px"
	 width="143.6px" height="99.5px" viewBox="0 0 143.6 99.5" style="enable-background:new 0 0 143.6 99.5;" xml:space="preserve">
<style type="text/css">
	.st0{fill:#FFFFFF;stroke:#000000;stroke-miterlimit:10;}
	.st1{fill:#E84C3C;stroke:#000000;stroke-miterlimit:10;}
    
</style>
    
    
    <defs>
        <style type="text/css">
            .st0 {
              
                stroke-dasharray: 800;
                stroke-dashoffset: 0;
                -webkit-animation: dash 2s linear forwards infinite;
                -o-animation: dash 2s linear forwards infinite;
                -moz-animation: dash 2s linear forwards infinite;
                animation: dash 2s linear forwards infinite;
            }
            
            @-webkit-keyframes dash {
              
                0%{
                    transform: translate(100px)
                }
                 66%{
                    transform: translate(-300px);
                }100%{
                    transform: scale(1)
                }
            }
            
            .st0 {
                fill: none;
                stroke: #FFFFFF;
                stroke-width: 4;
                stroke-miterlimit: 10;
            }
        </style>
    </defs>
<g>
	<path class="st0" d="M38,88H10.9V39.4H38v5H16.6v15.6h7.1v5h-7.1v17.9H38V88z"/>
	<path class="st0" d="M45,88h-5.5V39.4H45V88z"/>
	<path class="st0" d="M62.8,83.7c1,0,1.9-0.1,2.8-0.2c0.9-0.2,1.6-0.3,2.2-0.5v4.6c-0.6,0.3-1.5,0.6-2.6,0.8
		c-1.2,0.2-2.2,0.3-3.1,0.3c-7,0-10.6-4-10.6-12V53.2h-5.2v-2.9l5.2-2.5l2.3-8.4h3.2v9.1h10.6v4.6H56.9v23.2c0,2.4,0.5,4.2,1.6,5.5
		C59.5,83.1,61,83.7,62.8,83.7z"/>
	<path class="st0" d="M101.4,64c0,7.7-1.5,13.8-4.5,18.1c-3,4.3-7.1,6.5-12.4,6.5c-3.3,0-6.1-1-8.7-3c-2.5-2-4.5-4.9-5.8-8.6
		C68.7,73.3,68,69,68,64c0-7.7,1.5-13.8,4.5-18.1c3-4.3,7.1-6.5,12.4-6.5c5.1,0,9.1,2.2,12.1,6.6C99.9,50.4,101.4,56.4,101.4,64z
		 M73.7,64c0,6.1,0.9,10.7,2.8,13.9c1.9,3.2,4.6,4.8,8.2,4.8c3.6,0,6.3-1.6,8.2-4.7c1.9-3.2,2.8-7.8,2.8-13.9c0-6-0.9-10.6-2.8-13.8
		c-1.9-3.1-4.6-4.7-8.3-4.7c-3.6,0-6.3,1.5-8.2,4.6C74.6,53.2,73.7,57.8,73.7,64z"/>
	<path class="st0" d="M127.2,88V57.1c0-3.9-0.7-6.8-2-8.7c-1.4-1.9-3.5-2.9-6.3-2.9c-3.8,0-6.6,1.3-8.4,4c-1.8,2.7-2.7,7.2-2.7,13.4
		v25h-5.5V40.3h4.5l0.9,6.5h0.3c1.1-2.3,2.7-4.2,4.7-5.5c2-1.3,4.3-1.9,6.8-1.9c4.4,0,7.7,1.4,9.9,4.2c2.2,2.8,3.3,7.2,3.3,13.3V88
		H127.2z"/>
</g>
<polygon class="st1" points="132.7,99.5 10.9,99.5 10.9,97.5 132.7,93.5 "/>
<g>
	<g>
		<path class="st1" d="M111.7,2.4l5.9-0.8l-1.9,9c0.4-0.2,0.8-0.4,1.1-0.6s0.6-0.3,0.9-0.3s0.5-0.1,0.7-0.1s0.4,0,0.6,0
			c0.7,0,1.3,0.1,1.9,0.4s1.1,0.6,1.5,1.2s0.7,1.2,1,2.1s0.3,1.9,0.3,3.2c0,0.8-0.1,1.7-0.2,2.6s-0.4,2-0.7,3s-0.8,2-1.3,2.9
			s-1.2,1.8-2.1,2.5s-1.8,1.3-2.9,1.8s-2.4,0.7-3.8,0.7c-1.8,0-3.2-0.4-4.2-1.3s-1.4-2.2-1.4-3.8c0-0.4,0-0.8,0.1-1.1
			s0.1-0.8,0.2-1.1L111.7,2.4z M113,23.2c-0.1,0.3-0.1,0.6-0.1,0.9c0,1.2,0.7,1.9,2.1,1.9c0.4,0,0.8-0.1,1.3-0.4s0.8-0.7,1.1-1.2
			s0.7-1.1,0.9-1.7s0.5-1.3,0.7-2.1s0.4-1.5,0.5-2.2s0.2-1.5,0.2-2.2c0-0.5,0-1-0.1-1.4s-0.2-0.9-0.4-1.2s-0.4-0.7-0.7-0.9
			s-0.6-0.3-0.9-0.3c-0.1,0-0.3,0-0.5,0s-0.4,0.1-0.7,0.1s-0.5,0.1-0.7,0.2s-0.4,0.2-0.5,0.4L113,23.2z"/>
		<path class="st1" d="M134.1,27.5c-0.4,0.5-0.9,0.9-1.3,1.2s-0.9,0.5-1.3,0.7s-0.8,0.3-1.2,0.3s-0.8,0.1-1.1,0.1
			c-0.6,0-1.2-0.1-1.7-0.3c-0.5-0.2-1-0.5-1.4-0.9s-0.7-0.9-0.9-1.5s-0.3-1.3-0.3-2.2c0-0.4,0-0.8,0.1-1.2s0.1-0.9,0.2-1.4l2.7-12.8
			h5.8l-2.9,13.6c-0.1,0.3-0.1,0.7-0.1,1c0,0.2,0,0.5,0.1,0.7s0.1,0.4,0.2,0.6s0.2,0.3,0.4,0.4s0.3,0.1,0.6,0.1
			c0.4,0,0.7-0.1,1.1-0.3s0.6-0.4,0.9-0.7s0.5-0.7,0.7-1.1s0.4-0.9,0.5-1.4l2.7-12.8h5.8l-4.9,23.2c-0.3,1.4-0.7,2.6-1.3,3.5
			s-1.2,1.6-1.8,2.1s-1.4,0.8-2.1,1s-1.4,0.3-2.1,0.3c-0.6,0-1.2-0.1-1.7-0.3s-1.1-0.5-1.5-0.9c-0.4-0.4-0.8-0.8-1.1-1.4
			s-0.4-1.1-0.4-1.8c0-0.9,0.2-1.7,0.5-2.4s0.8-1.2,1.5-1.6s1.4-0.8,2.2-1.1s1.7-0.6,2.7-0.9L134.1,27.5z M133.4,30.6
			c-0.6,0.2-1.2,0.4-1.8,0.7s-1,0.6-1.4,0.9s-0.7,0.7-0.9,1.1s-0.3,0.9-0.3,1.4c0,0.2,0,0.3,0.1,0.5s0.2,0.3,0.3,0.4
			s0.3,0.2,0.5,0.3s0.4,0.1,0.6,0.1c0.2,0,0.4,0,0.6-0.1s0.4-0.3,0.7-0.5s0.4-0.6,0.6-1s0.3-0.9,0.5-1.5L133.4,30.6z"/>
	</g>
	<g>
		<path class="st1" d="M20.2,23.2c-0.5,1.3-1.3,2.5-2.2,3.4s-1.9,1.7-3,2.3s-2.1,1-3.2,1.3s-2.1,0.4-3,0.4c-1.5,0-2.8-0.2-3.9-0.5
			s-2-0.9-2.7-1.7s-1.3-1.8-1.6-3S0,22.6,0,20.8c0-0.9,0.1-1.9,0.2-3s0.3-2.2,0.5-3.3s0.6-2.3,0.9-3.5S2.5,8.8,3,7.7s1.2-2.1,1.9-3
			s1.5-1.8,2.4-2.4s1.9-1.2,3-1.6S12.6,0,14,0c0.9,0,1.8,0.1,2.6,0.3s1.5,0.5,2.1,0.9s1.1,1,1.4,1.7s0.5,1.5,0.5,2.4
			c0,0.5,0,1-0.1,1.5S20.2,7.7,20,8s-0.5,0.6-0.9,0.8S18.3,9,17.8,9c-0.3,0-0.7-0.1-1.1-0.2S15.9,8.5,15.6,8
			c0.2-0.1,0.5-0.3,0.7-0.6s0.4-0.5,0.6-0.9s0.3-0.7,0.4-1.1s0.2-0.8,0.2-1.2c0-0.3,0-0.6-0.1-0.9s-0.2-0.6-0.4-0.8
			s-0.4-0.4-0.8-0.5S15.4,1.9,15,1.9c-0.7,0-1.5,0.3-2.2,0.8s-1.4,1.3-2,2.2s-1.2,2-1.7,3.3s-1,2.5-1.3,3.9S7.2,14.9,7,16.3
			s-0.3,2.9-0.3,4.2c0,0.9,0.1,1.8,0.2,2.5s0.4,1.4,0.7,2s0.8,1,1.5,1.3s1.4,0.5,2.4,0.5c1.6,0,3-0.4,4.4-1.1s2.5-1.7,3.4-2.9
			L20.2,23.2z"/>
		<path class="st1" d="M41.6,14.8c-0.8,0.8-1.8,1.5-3,2.1s-2.6,1-4.1,1.2c-0.2,1.8-0.5,3.5-1.1,5s-1.3,2.7-2.1,3.8s-1.8,1.8-2.9,2.4
			s-2.3,0.8-3.5,0.8c-0.9,0-1.8-0.1-2.6-0.3s-1.5-0.6-2-1.1s-1-1.2-1.3-2s-0.5-1.8-0.5-2.9c0-0.8,0.1-1.7,0.2-2.7s0.4-2,0.8-3.1
			S20.4,16,21,15s1.3-1.9,2.1-2.7s1.8-1.4,2.8-1.9s2.3-0.7,3.7-0.7c3.4,0,5.1,2.1,5.1,6.4v0c0.1,0,0.1,0,0.2,0s0.1,0,0.2,0
			c0.5,0,1-0.1,1.5-0.2s1.1-0.3,1.6-0.5s1.1-0.5,1.6-0.8s1-0.6,1.4-0.9L41.6,14.8z M31.2,18.2c-0.4-0.1-0.7-0.3-0.8-0.6
			s-0.2-0.7-0.2-1.1c0-0.6,0.1-1,0.3-1.4s0.5-0.6,0.9-0.8c0-0.4-0.1-0.8-0.1-1.1s-0.2-0.5-0.3-0.7s-0.3-0.3-0.4-0.4
			s-0.4-0.1-0.7-0.1c-0.5,0-0.9,0.2-1.4,0.6s-0.9,0.9-1.3,1.5s-0.8,1.3-1.1,2.1s-0.6,1.6-0.8,2.4s-0.4,1.7-0.5,2.5s-0.2,1.6-0.2,2.2
			s0,1.2,0.1,1.6s0.2,0.7,0.4,1s0.4,0.4,0.6,0.5s0.6,0.1,1,0.1c0.5,0,1-0.2,1.5-0.6s0.9-1,1.4-1.8s0.8-1.6,1.1-2.6
			S31,19.4,31.2,18.2z"/>
		<path class="st1" d="M59.4,22.8c-0.4,1.1-0.8,2-1.2,2.8s-0.9,1.4-1.4,2s-1,1-1.5,1.3s-1,0.6-1.4,0.7s-0.9,0.3-1.3,0.3
			S51.7,30,51.3,30c-1.1,0-2-0.3-2.7-0.9s-1.1-1.4-1.3-2.6c-0.3,0.5-0.6,0.9-1,1.3s-0.8,0.8-1.3,1.2s-1,0.6-1.6,0.8s-1.3,0.3-2,0.3
			c-0.7,0-1.4-0.1-2-0.3s-1.2-0.6-1.7-1.1s-0.9-1.2-1.2-2s-0.4-1.8-0.4-3c0-0.9,0.1-1.9,0.3-2.9s0.5-2.1,0.8-3.1s0.8-2,1.4-3
			s1.2-1.8,2-2.5s1.6-1.3,2.6-1.8s2-0.7,3.2-0.7c1.1,0,2,0.2,2.5,0.6s0.8,0.9,0.8,1.4V12l2-9.2L57.6,2L53,23.6
			c-0.1,0.2-0.1,0.4-0.1,0.7s0,0.4,0,0.6c0,0.6,0.1,0.9,0.4,1.2s0.7,0.3,1.2,0.3c0.4,0,0.8-0.1,1.1-0.3s0.6-0.4,0.9-0.7
			s0.5-0.7,0.7-1.1s0.4-0.9,0.5-1.4H59.4z M47.4,22.8l2-9.2c0-0.1-0.1-0.3-0.1-0.4S49,13,48.9,12.8s-0.3-0.3-0.5-0.4
			s-0.5-0.1-0.8-0.1c-0.6,0-1.1,0.2-1.6,0.5s-1,0.8-1.4,1.5s-0.8,1.3-1.1,2.1s-0.6,1.6-0.8,2.4s-0.4,1.6-0.5,2.4s-0.2,1.5-0.2,2.1
			c0,0.8,0.1,1.4,0.2,1.8s0.3,0.7,0.5,0.9s0.4,0.3,0.7,0.4s0.4,0.1,0.6,0.1c0.3,0,0.6-0.1,0.9-0.2s0.7-0.3,1-0.6s0.6-0.6,0.8-1
			s0.4-0.9,0.6-1.5V22.8z"/>
		<path class="st1" d="M74.4,22.8c-0.6,0.9-1.2,1.8-1.9,2.7s-1.5,1.7-2.4,2.4s-1.9,1.2-3,1.7s-2.3,0.6-3.6,0.6c-1,0-1.8-0.1-2.6-0.4
			s-1.4-0.6-2-1.1s-1-1.2-1.3-2s-0.4-1.8-0.4-2.9c0-0.8,0.1-1.7,0.2-2.7s0.4-2,0.7-3.1s0.8-2.1,1.3-3.1s1.2-1.9,2-2.7
			s1.7-1.4,2.8-1.9s2.3-0.7,3.7-0.7c0.9,0,1.6,0.1,2.2,0.3s1,0.5,1.3,0.8s0.6,0.8,0.7,1.2s0.2,0.9,0.2,1.4c0,1.2-0.3,2.2-0.8,3.2
			s-1.2,1.9-2,2.6s-1.8,1.3-2.9,1.8s-2.3,0.7-3.5,0.8c0,0.3,0,0.6-0.1,0.8s0,0.5,0,0.8c0,0.7,0.1,1.2,0.2,1.7s0.3,0.8,0.5,1
			s0.5,0.4,0.9,0.5s0.8,0.1,1.3,0.1c0.8,0,1.5-0.1,2.2-0.3s1.2-0.5,1.8-0.9s1.1-0.8,1.6-1.3s1-1,1.5-1.6H74.4z M63.5,20
			c0.8-0.1,1.5-0.3,2.2-0.6s1.3-0.9,1.9-1.5s1-1.3,1.3-2.1s0.5-1.6,0.5-2.4c0-0.5-0.1-0.9-0.2-1.2s-0.4-0.4-0.8-0.4
			c-0.5,0-1,0.2-1.5,0.7s-0.9,1.1-1.4,1.9s-0.8,1.7-1.1,2.6S63.7,19,63.5,20z"/>
		<path class="st1" d="M88,2.8L93.9,2l-4.6,21.6c-0.1,0.2-0.1,0.4-0.1,0.6s0,0.4,0,0.6c0,0.5,0.1,0.8,0.4,1.1s0.7,0.5,1.3,0.5
			c0.4,0,0.7,0,0.8-0.1s0.3-0.1,0.5-0.2c-0.1,0.7-0.2,1.3-0.5,1.8s-0.6,0.9-1,1.3s-0.9,0.6-1.4,0.8s-1,0.2-1.5,0.2
			c-0.5,0-1-0.1-1.4-0.2s-0.9-0.3-1.2-0.6s-0.7-0.6-0.9-1s-0.4-0.9-0.6-1.5c-0.3,0.4-0.7,0.8-1,1.2s-0.8,0.8-1.3,1.1s-1,0.6-1.5,0.7
			s-1.2,0.3-1.8,0.3c-0.7,0-1.4-0.1-2-0.3s-1.2-0.6-1.7-1.1s-0.9-1.2-1.2-2s-0.4-1.8-0.4-3c0-0.9,0.1-1.9,0.3-2.9s0.5-2.1,0.8-3.1
			s0.8-2,1.4-3s1.2-1.8,2-2.5s1.6-1.3,2.6-1.8s2-0.7,3.2-0.7c1.1,0,2,0.2,2.5,0.6s0.8,0.9,0.8,1.4V12L88,2.8z M83.7,22.8l2-9.2
			c0-0.1-0.1-0.3-0.1-0.4s-0.1-0.3-0.3-0.5s-0.3-0.3-0.5-0.4s-0.5-0.1-0.8-0.1c-0.6,0-1.1,0.2-1.6,0.5s-1,0.8-1.4,1.5
			s-0.8,1.3-1.1,2.1s-0.6,1.6-0.8,2.4s-0.4,1.6-0.5,2.4s-0.2,1.5-0.2,2.1c0,0.8,0.1,1.4,0.2,1.8s0.3,0.7,0.5,0.9s0.4,0.3,0.7,0.4
			s0.4,0.1,0.6,0.1c0.3,0,0.6-0.1,0.9-0.2s0.6-0.3,0.9-0.5s0.5-0.5,0.8-0.9s0.4-0.8,0.6-1.3L83.7,22.8z"/>
	</g>
</g>
</svg>
