<?xml version="1.0" encoding="utf-8"?>
<!-- Generator: Adobe Illustrator 18.0.0, SVG Export Plug-In . SVG Version: 6.00 Build 0)  -->
<!DOCTYPE svg PUBLIC "-//W3C//DTD SVG 1.1//EN" "http://www.w3.org/Graphics/SVG/1.1/DTD/svg11.dtd">
<svg version="1.1" id="Layer_1" xmlns="http://www.w3.org/2000/svg" xmlns:xlink="http://www.w3.org/1999/xlink" x="0px" y="0px"
	 width="272.2px" height="152.3px" viewBox="0 0 272.2 152.3" style="enable-background:new 0 0 272.2 152.3;" xml:space="preserve"
	>
<style type="text/css">
	.st0{fill:#FCFCFC;}
	.st1{fill:#E74C3C;}
</style>
<g>
	<path class="st0" d="M102,114H78.3c-1,0-1.7-0.8-1.7-1.7V67.1c0-1,0.8-1.7,1.7-1.7H102c1,0,1.7,0.8,1.7,1.7v1.5
		c0,1-0.8,1.7-1.7,1.7H84c-1,0-1.7,0.8-1.7,1.7v12.1c0,1,0.8,1.7,1.7,1.7h3.6c1,0,1.7,0.8,1.7,1.7v1.5c0,1-0.8,1.7-1.7,1.7H84
		c-1,0-1.7,0.8-1.7,1.7v14.4c0,1,0.8,1.7,1.7,1.7H102c1,0,1.7,0.8,1.7,1.7l0,1.6C103.7,113.2,102.9,114,102,114z"/>
	<path class="st0" d="M108.9,114h-2c-1,0-1.7-0.8-1.7-1.7V67.1c0-1,0.8-1.7,1.7-1.7h2c1,0,1.7,0.8,1.7,1.7v45.1
		C110.6,113.2,109.8,114,108.9,114z"/>
	<path class="st0" d="M128.4,109.7c1,0,1.8-0.1,2.7-0.2c0.1,0,0.1,0,0.2,0c0,0,0,0,0,0c1.1-0.2,2.1,0.6,2.1,1.7v1.2
		c0,0.8-0.5,1.4-1.2,1.7c-0.4,0.1-0.9,0.2-1.4,0.3c-1.2,0.2-2.2,0.3-3.1,0.3c-7,0-10.6-4-10.6-12V80.9c0-1-0.8-1.7-1.7-1.7h-1.7
		c-1,0-1.7-0.8-1.7-1.7v-0.1c0-0.7,0.4-1.3,1-1.6l3.5-1.7c0.5-0.2,0.8-0.6,0.9-1.1l1.7-6.4c0.2-0.8,0.9-1.3,1.7-1.3h0.2
		c1,0,1.7,0.8,1.7,1.7v5.6c0,1,0.8,1.7,1.7,1.7h7.1c1,0,1.7,0.8,1.7,1.7v1.1c0,1-0.8,1.7-1.7,1.7h-7.1c-1,0-1.7,0.8-1.7,1.7v21.5
		c0,2.4,0.5,4.2,1.6,5.5C125.2,109.1,126.6,109.7,128.4,109.7z"/>
	<path class="st0" d="M167.1,90c0,7.7-1.5,13.8-4.5,18.1c-3,4.3-7.1,6.5-12.4,6.5c-3.3,0-6.1-1-8.7-3c-2.5-2-4.5-4.9-5.8-8.6
		c-1.4-3.7-2.1-8.1-2.1-13.1c0-7.7,1.5-13.8,4.5-18.1c3-4.3,7.1-6.5,12.4-6.5c5.1,0,9.1,2.2,12.1,6.6
		C165.6,76.5,167.1,82.5,167.1,90z M139.4,90c0,6.1,0.9,10.7,2.8,13.9c1.9,3.2,4.6,4.8,8.2,4.8c3.6,0,6.3-1.6,8.2-4.7
		c1.9-3.2,2.8-7.8,2.8-13.9c0-6-0.9-10.6-2.8-13.8c-1.9-3.1-4.6-4.7-8.3-4.7c-3.6,0-6.3,1.5-8.2,4.6C140.3,79.3,139.4,83.9,139.4,90
		z"/>
	<path class="st0" d="M194.5,114c-1,0-1.7-0.8-1.7-1.7V83.1c0-3.9-0.7-6.8-2-8.7c-1.4-1.9-3.5-2.9-6.3-2.9c-3.8,0-6.6,1.3-8.4,4
		c-1.8,2.7-2.7,7.2-2.7,13.4v23.3c0,1-0.8,1.7-1.7,1.7h-2c-1,0-1.7-0.8-1.7-1.7V68c0-1,0.8-1.7,1.7-1.7h1.3c0.9,0,1.6,0.6,1.7,1.5
		l0.7,5h0.3c1.1-2.3,2.7-4.2,4.7-5.5s4.3-1.9,6.8-1.9c4.4,0,7.7,1.4,9.9,4.2c2.2,2.8,3.3,7.2,3.3,13.3v29.4c0,1-0.8,1.7-1.7,1.7
		H194.5z"/>
</g>
<polygon class="st1" points="198.3,125.5 76.6,125.5 76.6,123.5 198.3,119.5 "/>
<g>
	<g>
		<path class="st1" d="M177.4,28.4l5.9-0.8l-1.9,9c0.4-0.2,0.8-0.4,1.1-0.6s0.6-0.3,0.9-0.3s0.5-0.1,0.7-0.1s0.4,0,0.6,0
			c0.7,0,1.3,0.1,1.9,0.4s1.1,0.6,1.5,1.2s0.7,1.2,1,2.1s0.3,1.9,0.3,3.2c0,0.8-0.1,1.7-0.2,2.6s-0.4,2-0.7,3s-0.8,2-1.3,2.9
			s-1.2,1.8-2.1,2.5s-1.8,1.3-2.9,1.8s-2.4,0.7-3.8,0.7c-1.8,0-3.2-0.4-4.2-1.3s-1.4-2.2-1.4-3.8c0-0.4,0-0.8,0.1-1.1
			s0.1-0.8,0.2-1.1L177.4,28.4z M178.7,49.2c-0.1,0.3-0.1,0.6-0.1,0.9c0,1.2,0.7,1.9,2.1,1.9c0.4,0,0.8-0.1,1.3-0.4s0.8-0.7,1.1-1.2
			s0.7-1.1,0.9-1.7s0.5-1.3,0.7-2.1s0.4-1.5,0.5-2.2s0.2-1.5,0.2-2.2c0-0.5,0-1-0.1-1.4s-0.2-0.9-0.4-1.2s-0.4-0.7-0.7-0.9
			s-0.6-0.3-0.9-0.3c-0.1,0-0.3,0-0.5,0s-0.4,0.1-0.7,0.1s-0.5,0.1-0.7,0.2s-0.4,0.2-0.5,0.4L178.7,49.2z"/>
		<path class="st1" d="M199.7,53.6c-0.4,0.5-0.9,0.9-1.3,1.2s-0.9,0.5-1.3,0.7s-0.8,0.3-1.2,0.3s-0.8,0.1-1.1,0.1
			c-0.6,0-1.2-0.1-1.7-0.3s-1-0.5-1.4-0.9s-0.7-0.9-0.9-1.5s-0.3-1.3-0.3-2.2c0-0.4,0-0.8,0.1-1.2s0.1-0.9,0.2-1.4l2.7-12.8h5.8
			l-2.9,13.6c-0.1,0.3-0.1,0.7-0.1,1c0,0.2,0,0.5,0.1,0.7s0.1,0.4,0.2,0.6s0.2,0.3,0.4,0.4s0.3,0.1,0.6,0.1c0.4,0,0.7-0.1,1.1-0.3
			s0.6-0.4,0.9-0.7s0.5-0.7,0.7-1.1s0.4-0.9,0.5-1.4l2.7-12.8h5.8l-4.9,23.2c-0.3,1.4-0.7,2.6-1.3,3.5s-1.2,1.6-1.8,2.1
			c-0.6,0.5-1.4,0.8-2.1,1s-1.4,0.3-2.1,0.3c-0.6,0-1.2-0.1-1.7-0.3s-1.1-0.5-1.5-0.9s-0.8-0.8-1.1-1.4s-0.4-1.1-0.4-1.8
			c0-0.9,0.2-1.7,0.5-2.4s0.8-1.2,1.5-1.6s1.4-0.8,2.2-1.1s1.7-0.6,2.7-0.9L199.7,53.6z M199,56.6c-0.6,0.2-1.2,0.4-1.8,0.7
			s-1,0.6-1.4,0.9s-0.7,0.7-0.9,1.1s-0.3,0.9-0.3,1.4c0,0.2,0,0.3,0.1,0.5s0.2,0.3,0.3,0.4s0.3,0.2,0.5,0.3s0.4,0.1,0.6,0.1
			c0.2,0,0.4,0,0.6-0.1s0.4-0.3,0.7-0.5s0.4-0.6,0.6-1s0.3-0.9,0.5-1.5L199,56.6z"/>
	</g>
	<g>
		<path class="st1" d="M85.8,49.2c-0.5,1.3-1.3,2.5-2.2,3.4s-1.9,1.7-3,2.3s-2.1,1-3.2,1.3s-2.1,0.4-3,0.4c-1.5,0-2.8-0.2-3.9-0.5
			s-2-0.9-2.7-1.7s-1.3-1.8-1.6-3s-0.5-2.8-0.5-4.6c0-0.9,0.1-1.9,0.2-3s0.3-2.2,0.5-3.3s0.6-2.3,0.9-3.5s0.8-2.3,1.4-3.3
			s1.2-2.1,1.9-3s1.5-1.8,2.4-2.4s1.9-1.2,3-1.6s2.3-0.6,3.6-0.6c0.9,0,1.8,0.1,2.6,0.3s1.5,0.5,2.1,0.9s1.1,1,1.4,1.7
			s0.5,1.5,0.5,2.4c0,0.5,0,1-0.1,1.5s-0.3,0.8-0.5,1.2s-0.5,0.6-0.9,0.8s-0.8,0.3-1.3,0.3c-0.3,0-0.7-0.1-1.1-0.2s-0.8-0.4-1.2-0.9
			c0.2-0.1,0.5-0.3,0.7-0.6s0.4-0.5,0.6-0.9s0.3-0.7,0.4-1.1s0.2-0.8,0.2-1.2c0-0.3,0-0.6-0.1-0.9s-0.2-0.6-0.4-0.8
			s-0.4-0.4-0.8-0.5s-0.7-0.2-1.1-0.2c-0.7,0-1.5,0.3-2.2,0.8s-1.4,1.3-2,2.2s-1.2,2-1.7,3.3s-1,2.5-1.3,3.9s-0.7,2.8-0.9,4.3
			s-0.3,2.9-0.3,4.2c0,0.9,0.1,1.8,0.2,2.5s0.4,1.4,0.7,2s0.8,1,1.5,1.3s1.4,0.5,2.4,0.5c1.6,0,3-0.4,4.4-1.1s2.5-1.7,3.4-2.9
			L85.8,49.2z"/>
		<path class="st1" d="M107.3,40.8c-0.8,0.8-1.8,1.5-3,2.1s-2.6,1-4.1,1.2c-0.2,1.8-0.5,3.5-1.1,5s-1.3,2.7-2.1,3.8
			s-1.8,1.8-2.9,2.4s-2.3,0.8-3.5,0.8c-0.9,0-1.8-0.1-2.6-0.3s-1.5-0.6-2-1.1s-1-1.2-1.3-2s-0.5-1.8-0.5-2.9c0-0.8,0.1-1.7,0.2-2.7
			s0.4-2,0.8-3.1s0.8-2.1,1.4-3.1s1.3-1.9,2.1-2.7s1.8-1.4,2.8-1.9s2.3-0.7,3.7-0.7c3.4,0,5.1,2.1,5.1,6.4l0,0c0.1,0,0.1,0,0.2,0
			s0.1,0,0.2,0c0.5,0,1-0.1,1.5-0.2s1.1-0.3,1.6-0.5s1.1-0.5,1.6-0.8s1-0.6,1.4-0.9L107.3,40.8z M96.9,44.3
			c-0.4-0.1-0.7-0.3-0.8-0.6s-0.2-0.7-0.2-1.1c0-0.6,0.1-1,0.3-1.4s0.5-0.6,0.9-0.8c0-0.4-0.1-0.8-0.1-1.1s-0.2-0.5-0.3-0.7
			s-0.3-0.3-0.4-0.4s-0.4-0.1-0.7-0.1c-0.5,0-0.9,0.2-1.4,0.6s-0.9,0.9-1.3,1.5s-0.8,1.3-1.1,2.1s-0.6,1.6-0.8,2.4s-0.4,1.7-0.5,2.5
			s-0.2,1.6-0.2,2.2s0,1.2,0.1,1.6s0.2,0.7,0.4,1s0.4,0.4,0.6,0.5s0.6,0.1,1,0.1c0.5,0,1-0.2,1.5-0.6s0.9-1,1.4-1.8s0.8-1.6,1.1-2.6
			S96.7,45.4,96.9,44.3z"/>
		<path class="st1" d="M125,48.9c-0.4,1.1-0.8,2-1.2,2.8s-0.9,1.4-1.4,2s-1,1-1.5,1.3s-1,0.6-1.4,0.7s-0.9,0.3-1.3,0.3s-0.9,0-1.2,0
			c-1.1,0-2-0.3-2.7-0.9s-1.1-1.4-1.3-2.6c-0.3,0.5-0.6,0.9-1,1.3s-0.8,0.8-1.3,1.2s-1,0.6-1.6,0.8s-1.3,0.3-2,0.3s-1.4-0.1-2-0.3
			s-1.2-0.6-1.7-1.1s-0.9-1.2-1.2-2s-0.4-1.8-0.4-3c0-0.9,0.1-1.9,0.3-2.9s0.5-2.1,0.8-3.1s0.8-2,1.4-3s1.2-1.8,2-2.5
			s1.6-1.3,2.6-1.8s2-0.7,3.2-0.7c1.1,0,2,0.2,2.5,0.6s0.8,0.9,0.8,1.4V38l2-9.2l5.9-0.8l-4.6,21.6c-0.1,0.2-0.1,0.4-0.1,0.7
			s0,0.4,0,0.6c0,0.6,0.1,0.9,0.4,1.2s0.7,0.3,1.2,0.3c0.4,0,0.8-0.1,1.1-0.3s0.6-0.4,0.9-0.7s0.5-0.7,0.7-1.1s0.4-0.9,0.5-1.4
			C123.4,48.9,125,48.9,125,48.9z M113,48.9l2-9.2c0-0.1-0.1-0.3-0.1-0.4s-0.1-0.3-0.3-0.5s-0.3-0.3-0.5-0.4s-0.5-0.1-0.8-0.1
			c-0.6,0-1.1,0.2-1.6,0.5s-1,0.8-1.4,1.5s-0.8,1.3-1.1,2.1s-0.6,1.6-0.8,2.4s-0.4,1.6-0.5,2.4s-0.2,1.5-0.2,2.1
			c0,0.8,0.1,1.4,0.2,1.8s0.3,0.7,0.5,0.9s0.4,0.3,0.7,0.4s0.4,0.1,0.6,0.1c0.3,0,0.6-0.1,0.9-0.2s0.7-0.3,1-0.6s0.6-0.6,0.8-1
			s0.4-0.9,0.6-1.5C113,49.2,113,48.9,113,48.9z"/>
		<path class="st1" d="M140.1,48.9c-0.6,0.9-1.2,1.8-1.9,2.7s-1.5,1.7-2.4,2.4s-1.9,1.2-3,1.7s-2.3,0.6-3.6,0.6
			c-1,0-1.8-0.1-2.6-0.4s-1.4-0.6-2-1.1s-1-1.2-1.3-2s-0.4-1.8-0.4-2.9c0-0.8,0.1-1.7,0.2-2.7s0.4-2,0.7-3.1s0.8-2.1,1.3-3.1
			s1.2-1.9,2-2.7s1.7-1.4,2.8-1.9s2.3-0.7,3.7-0.7c0.9,0,1.6,0.1,2.2,0.3s1,0.5,1.3,0.8s0.6,0.8,0.7,1.2s0.2,0.9,0.2,1.4
			c0,1.2-0.3,2.2-0.8,3.2s-1.2,1.9-2,2.6s-1.8,1.3-2.9,1.8s-2.3,0.7-3.5,0.8c0,0.3,0,0.6-0.1,0.8s0,0.5,0,0.8c0,0.7,0.1,1.2,0.2,1.7
			s0.3,0.8,0.5,1s0.5,0.4,0.9,0.5s0.8,0.1,1.3,0.1c0.8,0,1.5-0.1,2.2-0.3s1.2-0.5,1.8-0.9s1.1-0.8,1.6-1.3s1-1,1.5-1.6h1.4V48.9z
			 M129.1,46c0.8-0.1,1.5-0.3,2.2-0.6s1.3-0.9,1.9-1.5s1-1.3,1.3-2.1s0.5-1.6,0.5-2.4c0-0.5-0.1-0.9-0.2-1.2s-0.4-0.4-0.8-0.4
			c-0.5,0-1,0.2-1.5,0.7s-0.9,1.1-1.4,1.9s-0.8,1.7-1.1,2.6S129.3,45,129.1,46z"/>
		<path class="st1" d="M153.6,28.8l5.9-0.8L155,49.6c-0.1,0.2-0.1,0.4-0.1,0.6s0,0.4,0,0.6c0,0.5,0.1,0.8,0.4,1.1s0.7,0.5,1.3,0.5
			c0.4,0,0.7,0,0.8-0.1s0.3-0.1,0.5-0.2c-0.1,0.7-0.2,1.3-0.5,1.8s-0.6,0.9-1,1.3s-0.9,0.6-1.4,0.8s-1,0.2-1.5,0.2s-1-0.1-1.4-0.2
			s-0.9-0.3-1.2-0.6s-0.7-0.6-0.9-1s-0.4-0.9-0.6-1.5c-0.3,0.4-0.7,0.8-1,1.2s-0.8,0.8-1.3,1.1s-1,0.6-1.5,0.7s-1.2,0.3-1.8,0.3
			c-0.7,0-1.4-0.1-2-0.3s-1.2-0.6-1.7-1.1s-0.9-1.2-1.2-2s-0.4-1.8-0.4-3c0-0.9,0.1-1.9,0.3-2.9s0.5-2.1,0.8-3.1s0.8-2,1.4-3
			s1.2-1.8,2-2.5s1.6-1.3,2.6-1.8s2-0.7,3.2-0.7c1.1,0,2,0.2,2.5,0.6s0.8,0.9,0.8,1.4V38L153.6,28.8z M149.4,48.9l2-9.2
			c0-0.1-0.1-0.3-0.1-0.4s-0.1-0.3-0.3-0.5s-0.3-0.3-0.5-0.4s-0.5-0.1-0.8-0.1c-0.6,0-1.1,0.2-1.6,0.5s-1,0.8-1.4,1.5
			s-0.8,1.3-1.1,2.1s-0.6,1.6-0.8,2.4s-0.4,1.6-0.5,2.4s-0.2,1.5-0.2,2.1c0,0.8,0.1,1.4,0.2,1.8s0.3,0.7,0.5,0.9s0.4,0.3,0.7,0.4
			s0.4,0.1,0.6,0.1c0.3,0,0.6-0.1,0.9-0.2s0.6-0.3,0.9-0.5s0.5-0.5,0.8-0.9s0.4-0.8,0.6-1.3L149.4,48.9z"/>
	</g>
</g>
</svg>
