<?xml version="1.0" encoding="utf-8"?>
<!-- Generator: Adobe Illustrator 18.0.0, SVG Export Plug-In . SVG Version: 6.00 Build 0)  -->
<!DOCTYPE svg PUBLIC "-//W3C//DTD SVG 1.1//EN" "http://www.w3.org/Graphics/SVG/1.1/DTD/svg11.dtd">
<svg version="1.1" xmlns="http://www.w3.org/2000/svg" xmlns:xlink="http://www.w3.org/1999/xlink" x="0px" y="0px"
	 width="1190.6px" height="841.9px" viewBox="0 0 1190.6 841.9" style="enable-background:new 0 0 1190.6 841.9;"
	 xml:space="preserve">
<style type="text/css">
	.st0{fill:#2C3E50;}
	.st1{fill:#945E15;}
	.st2{fill:#010202;}
	.st3{fill:#24180F;stroke:#010202;stroke-width:6.6207;stroke-linecap:round;stroke-linejoin:round;stroke-miterlimit:10;}
	.st4{fill:#533414;stroke:#010202;stroke-width:6.6207;stroke-linecap:round;stroke-linejoin:round;stroke-miterlimit:10;}
	.st5{fill:#945E15;stroke:#010202;stroke-width:3.3104;stroke-miterlimit:10;}
	.st6{fill:#C03A2B;}
	.st7{fill:none;stroke:#010202;stroke-width:13.2414;stroke-linecap:round;stroke-linejoin:round;stroke-miterlimit:10;}
	.st8{fill:#44B389;stroke:#010202;stroke-width:13.2414;stroke-linecap:round;stroke-linejoin:round;stroke-miterlimit:10;}
	.st9{opacity:0.3;}
	
		.st10{opacity:0.3;fill:none;stroke:#010202;stroke-width:23.1725;stroke-linecap:round;stroke-linejoin:round;stroke-miterlimit:10;}
	.st11{opacity:0.3;fill:none;stroke:#010202;stroke-width:33.1035;stroke-miterlimit:10;}
	.st12{opacity:0.2;fill:#533414;}
	.st13{fill:none;stroke:#FFFFFF;stroke-width:6.6207;stroke-linecap:round;stroke-miterlimit:10;}
	.st14{opacity:0.5;fill:#010202;}
	.st15{opacity:0.5;}
	.st16{opacity:0.1;}
	.st17{fill:#FFFFFF;}
</style>
<g id="Layer_2">
	<rect class="st0" width="1190.6" height="841.9"/>
</g>
<g id="Layer_1">
	<g>
		<g>
			<path class="st1" d="M723,260.6c19.4-10.9,45-2.8,60.7,12.9c15.7,15.7,23.9,37.2,31.6,58.1l-34.1-3.5
				c22.3,5.9,42.1,20.9,53.6,40.9c11.6,20,14.8,44.6,8.8,66.9c-3.1,11.5-8.8,22.6-17.8,30.5s-21.5,12.1-33.2,9.5"/>
			<g>
				<path class="st2" d="M723.3,261.7c2.8-1.2,4.8-0.6,7.5-0.3c2.4,0.3,4.5,0.1,6.9-0.1c4.7-0.3,9.3,0.4,13.8,1.7
					c9.1,2.5,17.5,7.7,24.3,14.2c15.9,15.3,23,36.7,30.3,56.8c3-4,6.1-8,9.1-12c-11.4-1.2-22.7-2.4-34.1-3.6
					c-11-1.2-12.7,16.1-2.6,18.9c30.4,8.4,51.9,33.4,57.2,64.3c2.6,15.2-0.1,32.2-7.5,45.7c-3.6,6.6-8.7,11.9-15.2,15.7
					c-6.8,3.9-15,3.7-22.5,5.3c-7.1,1.4-6.9,10.7-1.9,14.2c9.2,6.3,20.6,4,30.2-0.1c9.6-4.1,16.9-11.1,23.1-19.4
					c12.1-16.3,15.9-39.1,14-58.9c-3.8-40.5-33.1-74.7-72.4-85.2c-0.9,6.3-1.7,12.6-2.6,18.9c11.4,1.1,22.7,2.2,34.1,3.3
					c5.8,0.6,11.2-6.5,9.1-12c-8.9-23.3-19-49.3-39.4-65.1c-9.2-7.2-19.8-12.1-31.4-13.6c-5.8-0.8-11.5-0.7-17.3,0.3
					c-6.7,1.1-8.7,5.5-13.9,9C721.4,260.3,722,262.3,723.3,261.7L723.3,261.7z"/>
			</g>
		</g>
		<g>
			<path class="st1" d="M726.4,265.4c-11.8-13.8-23.8-27.8-38.4-38.6c-14.6-10.8-32.3-18.4-50.5-17.7c-18.2,0.7-36.6,10.9-43.7,27.7
				l-4.1-7c-19-18.2-50.9-21-72.9-6.5c-22,14.5-31.8,45-22.5,69.6L480.7,257c-26.7,8.4-49,29.4-59.2,55.4
				c-10.1,26-7.8,56.6,6.2,80.8L410,377.4c-13.6,17.7-17.8,42.1-10.9,63.3c6.9,21.2,24.7,38.5,46.1,44.7l-2.7,2.8
				c3.4,27.7,21.7,53.2,46.8,65.3s56.5,10.4,80.2-4.3l-4.3-12.3c9.5,33.1,42.1,58.1,76.5,58.9s68-22.9,78.9-55.6l-57.4-20.8
				c26.1,16.4,59.3,20.7,88.7,11.6s54.4-31.5,66.6-59.8"/>
			<g>
				<path class="st2" d="M728.5,264.1c-8.9-13-17.7-25.5-29.4-36.1c-11.5-10.5-24.8-18.6-39.7-23.1c-26.7-8-59.9,1.2-72.3,27.9
					c4.4,0,8.8,0,13.2,0c-2.5-4.4-4.5-8.2-8.4-11.5c-6.5-5.4-13.9-9.3-21.8-12c-15.7-5.4-33.7-4.4-48.8,2.2
					c-31.1,13.4-46.6,52-35.4,83.6c5.6-1.5,11.2-3.1,16.7-4.6c-4.4-11.9-8.8-23.9-13.3-35.8c-1.6-4.4-6-7.8-10.9-6.2
					c-28,8.9-51.7,29.6-63.5,56.6c-13.1,29.7-11,64.6,5,92.9c4.9-3.7,9.7-7.5,14.6-11.2c-5.9-5.3-11.8-10.5-17.8-15.8
					c-4.9-4.3-10.9-3.1-14.6,1.9c-15.5,20.6-19.7,49-11,73.3c8.4,23.3,28.1,41.4,51.7,48.7c-1.4-5.3-2.8-10.7-4.2-16
					c-1.4,1.5-3.2,3-4.2,4.8c-2.5,4.3-0.7,10.1,0.3,14.6c1.6,8,4.8,15.7,8.4,22.9c7.4,14.6,19,26.9,32.6,35.9
					c29.2,19.5,69.4,18.7,99,0.8c3.6-2.2,5.9-6.9,4.5-11.1c-1.4-4.1-2.8-8.2-4.3-12.3c-4.1-11.8-22.5-7-18.9,5.2
					c11.2,37.6,46.8,64.9,86,66.1c39.2,1.2,75.8-26.4,88.4-62.8c1.8-5.4-2.1-10.4-6.9-12.1c-19.1-6.9-38.3-13.9-57.4-20.8
					c-10.8-3.9-16.8,12.3-7.6,18c29.8,18.4,67.5,22.8,100.6,11.2c15.2-5.3,29-14.1,40.5-25.3c5.7-5.6,11.5-12,15-19.3
					c3.5-7.1,6.4-14.6,8.5-22.2c1.4-5-5.6-7.8-8.2-3.5c-3.7,5.9-7.8,11.2-12.7,16.1c-4.9,4.9-9.4,10.1-14.6,14.8
					c-9.8,8.8-21.5,15.8-33.8,20.3c-28.1,10.3-60,6.4-85.4-9.2c-2.5,6-5.1,12-7.6,18c19.1,6.9,38.3,13.8,57.4,20.8
					c-2.3-4-4.6-8.1-6.9-12.1c-9.9,28.8-39.2,48.7-69.5,48.4c-30.3-0.3-58.5-23-67.1-51.7c-6.3,1.7-12.6,3.5-18.9,5.2
					c1.4,4.1,2.8,8.2,4.3,12.3c1.5-3.7,3-7.4,4.5-11.1c-21.9,13.3-50.1,14.8-73,3c-20.8-10.7-36.4-32.3-39.5-55.6
					c-0.9,2.3-1.9,4.5-2.8,6.8c0.9-0.9,1.8-1.9,2.7-2.8c5-5.3,2.7-13.9-4.2-16c-17.2-5.2-32-18.4-38.6-35.3
					c-7.7-19.8-3.7-42,8.8-58.8c-4.9,0.6-9.8,1.3-14.6,1.9c5.9,5.3,11.9,10.5,17.8,15.8c7.8,6.9,19.9-1.8,14.6-11.2
					c-12.9-22.7-15.2-51.5-4.6-75.7c9.7-22.2,29-39.7,51.9-47.3c-3.6-2.1-7.3-4.1-10.9-6.2c4.6,11.9,9.1,23.8,13.7,35.7
					c1.7,4.4,5.8,7.4,10.7,6.1c4.3-1.2,7.7-6.2,6.1-10.7c-8.8-24,1.4-52,24.4-63.7c11.5-5.8,25.4-6,37.6-2.6
					c5.8,1.6,11.6,4.5,16.4,8.2c2.2,1.7,1.9,1.1,3.4,3.5c0.9,1.6,1.9,3.1,2.8,4.7c2.7,4.5,10.8,5.5,13.2,0
					c10-23,36.6-28.2,58.7-21.6c12.7,3.8,24.3,11.4,34.3,19.8c10.8,9,21.1,18.8,31.3,28.5C726.6,269,730.2,266.5,728.5,264.1
					L728.5,264.1z"/>
			</g>
		</g>
		<g>
			<path class="st1" d="M416.2,376.3"/>
			<g>
				<path class="st2" d="M416.2,376.8c0.6,0,0.6-0.9,0-0.9S415.6,376.8,416.2,376.8L416.2,376.8z"/>
			</g>
		</g>
		<path class="st3" d="M618.6,332.5l-17.6-5.7l-6.5-20.8c0,0,23.3-1,28.8-8.6c5.6-7.5,15.6,14.4,15.6,14.4S629.2,330.9,618.6,332.5z
			"/>
		<path class="st4" d="M558.2,514.5l-17.6-5.7l-6.5-20.8c0,0,23.3-1,28.8-8.6c5.6-7.5,15.6,14.4,15.6,14.4S568.9,512.9,558.2,514.5z
			"/>
		<path class="st3" d="M640.9,291.3l-17.6-5.7l-6.5-20.8c0,0,23.3-1,28.8-8.6c5.6-7.5,15.6,14.4,15.6,14.4S651.6,289.7,640.9,291.3z
			"/>
		<path class="st3" d="M448.3,341.6l15.2-9.8l-3.8-19.5l-17.2-3.2C442.6,309,431.5,329.9,448.3,341.6z"/>
		<path class="st4" d="M466.9,458.5l15.2-9.8l-3.8-19.5l-17.2-3.2C461.1,425.8,450,446.8,466.9,458.5z"/>
		<path class="st3" d="M732.4,316.1l-6.6-4.9l8.6-3.8c0,0-10.8-5.1-15,0.6C715.3,313.7,724.2,322.4,732.4,316.1z"/>
		<path class="st3" d="M617.5,387.9l-6.6-4.9l8.6-3.8c0,0-10.8-5.1-15,0.6C600.4,385.5,609.2,394.2,617.5,387.9z"/>
		<path class="st3" d="M758.6,489.2l-6.6-4.9l8.6-3.8c0,0-10.8-5.1-15,0.6C741.5,486.7,750.4,495.4,758.6,489.2z"/>
		<path class="st3" d="M697.3,468.2c0,0,0.2-15.1-24.5-1.3c0,0-12.2-9-10.1-22.7c0,0,22.6,5.8,38.5-10.9
			C701.2,433.3,705.3,457.4,697.3,468.2z"/>
		<path class="st5" d="M491.9,518.6"/>
	</g>
	<g>
		<g>
			<g>
				<path class="st6" d="M887.2,483.2c-0.7-1.8-1.4-3.6-2.1-5.4c0,1.3,0,2.7,0,4c0.7-4.2,1.3-7.8,0.1-12c-1.4-4.8-3.3-9.3-5.5-13.8
					c-4-8.3-7.3-18.5-13.9-25.1c-9.6-9.7-23.8,0.4-21.4,12.5c1,5,3.9,9.3,6.4,13.7c2.3,4,4.5,7.9,6.8,11.9c2.5,4.3,5.3,8.1,8.4,12
					c1.4,1.7,2.9,2.9,4.9,3.9c1.3,1.1,1.7,1.2,1.4,0.3c0.7,1.1,1.4,2.2,2.2,3.3C878.5,494.8,890.3,490.9,887.2,483.2L887.2,483.2z"
					/>
			</g>
		</g>
		<g>
			<g>
				<path class="st6" d="M889,515.8c-0.5-2-0.6-2.3-0.3-1c0.7-1.9,0.6-4.7,0.4-6.7c-0.4-4.2-1-8.4-1.5-12.5
					c-0.9-6.5-3.3-13-5.4-19.2c-4.4-13-10.3-32.9-26.6-34.2c-3.5-0.3-6.8,2.1-8.5,4.9c-7.1,11.5,2.6,27,6.7,37.2
					c2.2,5.6,4,11.4,6.1,17.1c1,2.9,2.3,5.6,3.5,8.4c1.5,3.9,3.5,7.1,5.5,10.7c-0.5-1.8-1-3.5-1.4-5.3c0.1,1.2,0.3,2.4,0.4,3.6
					c0.6,5.9,4.5,10.9,10.9,10.9C885.5,529.6,891,522.6,889,515.8L889,515.8z"/>
			</g>
		</g>
		<g>
			<g>
				<path class="st6" d="M895.6,496.8c-0.8-0.1-1.6-0.3-2.4-0.4c2.3,3,4.6,6,6.9,9.1c-0.7-9.6-1.1-19.3-2.3-28.9
					c-0.7-5.5-0.8-11.3-2.4-16.6c-0.8-2.7-1.8-5.4-3.4-7.8c-1.6-2.3-3.6-3.1-5.5-4.8c-2.8-2.5-7.1-2.2-9.1,1.2
					c-0.9,1.5-1.8,1.9-2.8,3.6c-1.6,2.7-1.8,5.9-2.1,9c-0.5,5.5,1.2,11.2,2.3,16.6c2,10.1,4.6,20.2,7,30.2c1.4-3.5,2.9-7.1,4.3-10.6
					c-5.4,2.8-9.3,7.5-9.3,13.9c0,8.1,6.8,14.9,14.9,14.9c6.6,0,12.6-4.6,14.4-11C908,507.9,903.6,498.3,895.6,496.8L895.6,496.8z"
					/>
			</g>
		</g>
		<g>
			<g>
				<path class="st6" d="M921.3,505.2c-2.1-13.6-5.5-27.2-8.9-40.5c-2.7-10.3-8.9-38.6-24.2-35.1c-15.1,3.5-1.9,29.2,0.8,37.8
					c2,6.4,4.2,13.2,4.6,19.9c0.5,7.2,0.5,14.4,0.2,21.6c-0.3,7.6,6.6,14,14,14C917.7,522.9,922.7,514,921.3,505.2L921.3,505.2z"/>
			</g>
		</g>
		<g>
			<g>
				<path class="st6" d="M935.9,491.6c-2.7-7-3-14.2-4-21.6c-1-7.3-2.3-14.6-4.8-21.5c-2.7-7.4-5.9-14.6-9.6-21.6
					c-3.2-6.2-10.7-15-17.8-16.5c-4.3-0.9-10.2,1.2-11,6.3c-2.1,13.7,9.5,27.8,14.9,39.9c2.6,5.8,5.2,11.5,7.4,17.4
					c2.1,5.5,4.9,12.2,4,17.6c-1.1,6.9,2.9,13.7,10.5,13.7C931.9,505.3,938.5,498.3,935.9,491.6L935.9,491.6z"/>
			</g>
		</g>
		<g>
			<g>
				<path class="st6" d="M954.5,472.3c-11-16.2-21.7-32.7-34.4-47.7c-12.5-14.9-27.5-30.4-46-37.2c-8.6-3.2-17.7,8.4-12.2,15.9
					c10.6,14.7,25.4,26.2,37.7,39.5c12.2,13.3,22.6,27.4,29.9,44.1c3.2,7.3,13.7,8.9,19.9,5.2C955.8,488.4,959,478.8,954.5,472.3
					L954.5,472.3z"/>
			</g>
		</g>
		<g>
			<g>
				<path class="st6" d="M958.9,462.3c-10.2-15.6-21.3-31-32.8-45.7c-5.6-7.1-12.8-13.4-19.5-19.5c-3.8-3.5-7.6-7.1-12-9.9
					c-1.9-1.2-3.9-2.3-5.9-3.4c-3.9-2.1-7.6-1.8-11.8-1.1c-4.1,0.6-8,5.8-7.5,9.9c0.7,5.7,2.4,9.3,6.4,13.5
					c3.2,3.4,6.6,6.2,10.2,9.2c7,5.9,13.8,12.2,20.3,18.7c6.1,6.1,12.7,11.5,18.8,17.6c6.2,6.3,11.4,13.7,16.4,20.9
					c3.1,4.5,8.8,6.6,13.8,3.6C959.8,473.4,961.9,466.9,958.9,462.3L958.9,462.3z"/>
			</g>
		</g>
		<g>
			<g>
				<path class="st6" d="M951.3,446.8c-5.3-7.7-11.1-15.1-17.4-22.1c-6.8-7.7-15.3-13.8-23.7-19.7c-8.6-6-17.5-11.3-27.3-15.2
					c-9.3-3.7-22.3-8.2-31-1.4c-2.3,1.8-2.9,5.7-2.2,8.3c2.4,8.7,14.1,13,21.5,16.7c8.3,4.1,16.8,7.9,25,12.4
					c7.7,4.2,14.7,9.4,22.2,13.8c7.8,4.6,15.2,9.8,22.3,15.5C946.2,459.5,956,453.6,951.3,446.8L951.3,446.8z"/>
			</g>
		</g>
		<g>
			<g>
				<path class="st6" d="M890.5,418.6c-0.2,0.3-0.5,0.6-0.7,0.9c3-0.8,6.1-1.6,9.1-2.4c-6.6-2.6-12.7-6.6-19-10
					c-7-3.8-14-7.4-21.1-10.9c-14.7-7.3-30.5-12.6-46-18c-14.5-5-29.2-9.7-44.1-13.4c-7.8-1.9-15.5-3.7-23.4-5.3
					c-9-1.9-18.3-4.7-27.3-2.4c-11.7,3.1-12.2,18-3.2,24.2c6.6,4.5,15,5,22.7,6.5c7.8,1.6,15.6,3.3,23.4,5.1
					c15,3.5,29.9,7.2,44.6,11.5c14.7,4.3,29.1,9.8,43.7,14.3c14.1,4.3,29.7,8.2,42.4,15.6c-1.4-3.5-2.9-7.1-4.3-10.6
					c-3.5,12.6,11.8,23.1,21.5,13.3c5-5,5-13.4,0-18.4C904.3,414,894.9,413.1,890.5,418.6L890.5,418.6z"/>
			</g>
		</g>
		<g>
			<g>
				<path class="st6" d="M854.2,455.9c4.1,3.1,8.2,6.1,12.2,9.3c4.4-5.7,8.8-11.4,13.2-17.1c-10.1-7.1-21.8-12.3-33.1-17.2
					c-12.3-5.3-24.5-11-37-15.7c-11.8-4.4-23.7-8.9-35.5-13.3c-12.8-4.8-26.7-12-40.7-9c-5.1,1.1-9.3,5.8-10.7,10.7
					c-1.6,5.8,0.5,10.5,3.9,14.9c4.4,5.6,12.5,9.2,19.1,11.5c6.3,2.2,12.5,4.4,18.8,6.6c11.9,4.2,23.8,8.4,35.7,12.6
					c11.9,4.2,24.1,7.4,36.2,11c12.3,3.7,25.1,7,37.9,8c9,0.7,15.1-12.8,7.7-18.6c-4.7-3.7-9.3-7.7-14-11.5
					c-4.7-3.9-11.3-4.6-15.9,0C846.4,443.8,848.6,451.6,854.2,455.9L854.2,455.9z"/>
			</g>
		</g>
		<g>
			<g>
				<path class="st6" d="M874,456.3c5,0.7,10,1.4,15,2.1c5.3,0.7,10.3-0.4,13.2-5.4c2.5-4.3,2.1-10.7-1.8-14.2
					c-13.3-11.9-27.1-23.1-41.3-33.7c-14.1-10.5-30.4-18.9-46-26.9c-16.7-8.5-34-15.7-51.8-21.8c-8.1-2.8-16.4-5.3-24.7-7.6
					c-11.6-3.3-25.8-8.7-35.7,1.2c-3.7,3.7-5.7,9.9-4,15c4.5,13,16.9,14.6,28.5,17.7c8.3,2.3,16.5,4.8,24.7,7.5
					c8.2,2.7,16.2,5.7,24.2,8.9c8.2,3.3,15.6,6.1,21.4,8.6c15.9,6.9,31,15.1,46.2,23.3c15.2,8.2,30.1,16.4,44.4,26.1
					c2-7.3,3.9-14.5,5.9-21.8c-5.1,0-10.1,0-15.2-0.1c-4.7,0-9,3.3-10.3,7.8C865.2,448.2,868.2,455.5,874,456.3L874,456.3z"/>
			</g>
		</g>
		<g>
			<g>
				<path class="st6" d="M812.4,421.3c4.1,3,8.1,5.8,12.6,8.3c4.6-7.8,9.1-15.6,13.7-23.4c-31.1-17.3-63.7-31.1-97.6-42
					c-16.2-5.3-32.7-9.8-49.4-13.7c-8.3-1.9-16.7-3.7-25-5.3c-10.4-2-24.6-5.3-34,1.4c-8.3,5.9-9.4,15.4-3,23.2
					c5.9,7.1,17,8.7,25.6,9.9c8.5,1.2,16.9,2.7,25.3,4.3c16.8,3.2,33.4,7.1,49.9,11.7c32.2,8.9,64,20.5,94.5,33.9
					c5.7,2.5,11.8,2.6,16.5-2.1c4.1-4.1,5.5-11.4,2.1-16.5c-3.5-5.3-7.5-10.2-11.6-15c-5.7-6.6-16.9-5.9-22.8,0
					C801.2,404,804.2,415.2,812.4,421.3L812.4,421.3z"/>
			</g>
		</g>
		<g>
			<g>
				<path class="st6" d="M786.5,400.7c-0.4,0.3-0.8,0.5-1.3,0.8c2.2-0.3,4.4-0.6,6.6-0.9c-7.6-2.4-14.6-6.8-22.2-9
					c-7.6-2.3-15.2-4.5-22.9-6.8c-15.9-4.7-32-8.5-48.1-12.5c-15.4-3.8-30.8-8-46.3-11.4c-7.8-1.7-15.6-3.1-23.5-4.6
					c-4.8-0.9-10.1-2.6-15-2.6c-8.4,0-17.5,6.1-19.8,14.4c-1.9,6.8,1.1,14.2,5.9,19c4.6,4.6,10.5,5.4,16.4,6.7
					c7.8,1.6,15.6,3.3,23.4,4.9c16.3,3.4,32.9,5.4,49.3,8c17.2,2.7,34.3,5.7,51.6,7.6c7.8,0.9,15.6,1.8,23.4,2.6
					c8.4,0.9,16.9-0.3,25.4,0.5c-2.5-1.4-4.9-2.8-7.4-4.2c0.3,0.4,0.5,0.7,0.8,1.1c4.9,6.6,15.6,6.6,18.1-2.4
					C803.3,403.5,794,396.2,786.5,400.7L786.5,400.7z"/>
			</g>
		</g>
		<g>
			<g>
				<path class="st6" d="M763,397.1c-4.5,0.5-9.7,0.5-14,2c1.9,0,3.8,0,5.7,0c-6.7-2.3-13.2-5.3-19.8-7.9c-7.1-2.8-14.6-4.8-22-6.9
					c-14.8-4.2-29.7-8-44.6-11.7c-29.8-7.3-59.9-13.1-90.2-17.9c-1.9-0.3-3.8-0.6-5.7-0.9c-1.8-0.2-3.6-0.5-5.5-0.7
					c2.3,0.3,2.2,0.3-0.2,0c-5-0.7-10-1.4-15.1-2c-7.6-1-15.3-1.9-23-2.7c-15.3-1.7-30.7-3-46.1-3.9c-30.7-1.8-61.5-2.4-92.3-2
					c2,14.7,4,29.5,6,44.2c6.8-2.7,13.6-5.2,20.5-7.6c3-1,5.8-2.2,8.8-3.5c5.6-2.4-4.3,1.8,1.4-0.6c3.9-1.6,7.9-3.2,11.9-4.7
					c6.8-2.6,13.7-5.2,20.8-6.8c7.7-1.7,15.5-3.1,23.3-4.4c1.8-0.3,3.6-0.6,5.4-0.9c6-0.9-4,0.4,2-0.2c3.6-0.3,7.2-0.6,10.8-0.9
					c7.9-0.6,15.8-0.5,23.6-1.2c15.2-1.3,30.4-1.9,45.7-1.9c15.3-0.1,30.5,0.6,45.7,1.7c7.3,0.5,14.6,1.2,21.8,2
					c3.7,0.4,7.3,0.8,11,1.3c6.2,0.8-4.6-0.6,1.6,0.2c2.5,0.3,4.9,0.7,7.4,1.1c30.7,4.6,61.1,11.5,91.1,19.3
					c23.5,6.1,47.2,11.3,70.6,17.6c23.9,6.4,47.2,16,70.2,25c15.2,6,25.7-19.3,11.1-26.3c-16.7-7.9-32.9-16.9-49.2-25.6
					c-16.9-8.9-34.4-17.1-50.7-27c-4.2,9.9-8.3,19.8-12.5,29.6c17.3,6.5,35.3,10.9,53.1,16.1c9.7,2.8,19.1,5.4,29.2,6.6
					c8.1,0.9,17.8,2.3,26.6,3.3c-1.9-0.5-3.8-1-5.7-1.5c3.4,1.7,6.9,3.4,10.1,5.5c6.3,4,15.2,1.3,18.8-4.9c4.8-8.2,0-17.1-8.2-20.2
					c-39.4-15.1-78.8-30.3-117.9-46.1c-8.3-3.3-17.9,3.6-20,11.4c-2.4,8.9,3,17.2,11.4,20c39.9,13.3,79.6,27.2,119.3,41.2
					c1.2-9,2.4-18,3.7-27.1c-3.8,0-7.6-0.4-11.4-0.8c1.9,0.5,3.8,1,5.7,1.5c-8.1-3.9-16.5-7.7-24.4-11.5c-9-4.4-18.5-7.1-28.1-9.9
					c-17.7-5.1-35.4-11.1-53.4-14.8c-8.6-1.8-17.5,2.4-19.9,11.3c-2.6,9.3,3.2,16.6,11.3,19.9c15.7,6.5,32.2,15.6,48.1,23.2
					c16.7,8.1,33.6,15.8,49.8,24.5c4.8-8.3,9.7-16.6,14.5-24.8c-28.7-13.1-57.2-24.7-85.2-36.8c-15.2-6.5-30.5-13.3-46.3-18.2
					c-14.9-4.6-29.8-8.6-45-12.1c-61.1-14.2-124.2-21.2-186.9-17.6c-26.6,1.5-53.3,7.2-79.3,13c-3,0.7-5.9,1.4-8.9,2.1
					c-1.2,0.3-2.4,0.6-3.5,0.9c4.9-1.3-3.8,0.7-5.4,1c-6.6,1-13.2,2.3-19.8,3.6c-12.6,2.6-24.5,6.7-36.5,11.4
					c-9.5,3.8-16.5,10.9-16.5,21.7c0,12.1,10.2,22.8,22.5,22.5c60.3-1.4,120.4,2,180.4,7.1c14.6,1.2,29.2,2.8,43.8,4.5
					c3.8,0.5,7.6,0.9,11.4,1.4c1.9,0.2,3.8,0.5,5.7,0.7c-3.4-0.4,2.9,0.4,2.8,0.4c1,0.1,9.7,1.3,5.7,0.8c1.9,0.3,3.8,0.5,5.7,0.8
					c3.8,0.5,7.7,1.1,11.5,1.7c15.3,2.3,30.5,4.9,45.7,7.7c7.9,1.5,16.5,4.3,24.5,4.6c7,0.3,14.5,1.2,21.4,2.6
					c-1.6-0.9-3.1-1.8-4.7-2.7c2.9,3.4,7.3,6,10.9,8.8c8,6.1,20.1-0.5,22.5-9.2C780.2,407.6,773.1,396,763,397.1L763,397.1z"/>
			</g>
		</g>
		<g>
			<g>
				<path class="st6" d="M831.9,358.5c-0.5,0.1-0.9,0.2-1.4,0.4c1.8,0.2,3.5,0.5,5.3,0.7c-8.4-3.6-14.7-10.8-22.8-14.9
					c-8-4.1-16.2-7.8-24.5-11.4c-17.9-7.7-37.2-13-56.2-17.6c-19.6-4.8-39.4-7.7-59.5-9.3c-9.1-0.7-18.3-1.1-27.5-1.4
					c-12.2-0.5-30.4-3.3-38.8,7.5c-7.2,9.2-8.7,20.9,0,29.9c9.7,10.1,22.7,7,35.1,6.3c9.2-0.5,18.3-0.5,27.5-0.3
					c18.2,0.4,36.5,1.8,54.6,3.7c1.8,0.2,3.6,0.4,5.4,0.6c0.6,0.1,7.5,1,4.2,0.5c4.9,0.7,9.7,1.4,14.6,2.2c9.1,1.5,18.1,3.4,27,5.4
					c8.9,2,18,3.6,26.9,5.7c4.5,1.1,9,1.7,13.6,2.3c2.1,0.3,4.2,0.6,6.3,0.9c0.7,0.1,5.9,1.4,5.4,0.5c2.8,5.3,10.8,5,13.7,0
					C844.4,364,838.6,356.7,831.9,358.5L831.9,358.5z"/>
			</g>
		</g>
		<g>
			<g>
				<path class="st6" d="M636.4,336.4c23.8,2.2,47.1,6.6,70.4,12c11.9,2.7,24.1,4.2,36.1,6.7c12.6,2.6,25.1,5.7,37.5,8.9
					c23.7,6.2,47.1,13.7,70.1,22.2c5.8,2.1,11.5,4.3,17.2,6.6c2.9,1.1,5.7,2.3,8.5,3.5c1.1,0.5,2.3,0.9,3.4,1.4
					c5.6,2.3-3.8-1.6,1.8,0.8c5.6,2.4,11.2,5,16.8,7.4c2.2,1,4.5,1.9,6.7,2.8c5.6,2.3-3.9-1.7,1.7,0.7c3.4,1.4,6.8,2.9,10.1,4.4
					c10.3,4.6,22.2,3.1,28.4-7.4c5.4-9.2,2.7-23.4-7.4-28.4c-46.6-22.8-96.9-38.8-147.4-50.3c-25.5-5.8-51.2-10.1-77.2-13.4
					c-12.6-1.6-25.7-1.3-38.3-1.4c-12.8-0.1-25.7-0.2-38.5-0.2c-6.4,0-11.8,5.4-11.8,11.8C624.5,331.5,630,335.9,636.4,336.4
					L636.4,336.4z"/>
			</g>
		</g>
		<g>
			<g>
				<path class="st6" d="M920.5,420.2c12.7,5.1,25.3-10,29-20.5c4.6-13.1-2.3-26.9-13.9-33.4c-8.4-4.7-18.9-6.2-28.1-8.7
					c-11.3-3.1-22.8-7-34.4-8.5c-7-0.9-13.9,5.6-15.6,11.9c-2.6,9.4,3.2,16.5,11.3,19.9c7.6,3.2,16.4,4.6,24.4,6.7
					c7.8,2,15.6,3.9,23.3,6.4c4.3,1.4-2.9-1.5,1.2,0.4c0.9,0.4,3.7,3,0.9,0.4c-1.3-1.1-1.5-2.7-1.6-4.3c0,1-0.1,2.1-0.1,3.1
					c0.2-1.9,0.1-1.8-0.4,0.1c0.9-3-1.1,1.2-1.4,1.5c1.2-1.8,0.6-1-1.9,2.4c-0.9,1.6-1.5,3.2-1.9,5
					C909.4,410.6,913.1,417.2,920.5,420.2L920.5,420.2z"/>
			</g>
		</g>
		<g>
			<g>
				<path class="st6" d="M856,447.5c-29.1-12.8-58.5-24.2-89.2-32.8c-29.8-8.3-60-15.5-90.3-21.7c-32-6.5-64.4-10.2-96.9-13.6
					c-31.1-3.3-62.2-5.8-93.4-7.9c-18.7-1.3-37.4-2.3-56.1-3.2c-9.3-0.5-18.7-0.9-28-1.4c-5-0.2-10-0.5-14.9-0.7
					c-9.5-0.5-17,2.4-23.9,9.1c-8.5,8.2-7.2,20.7,0,29.1c5.2,6.1,12.1,9.4,20.1,9.8c3.7,0.2,7.5,0.4,11.2,0.6
					c8.1,0.4,16.2,0.9,24.3,1.3c15.6,0.8,31.2,1.7,46.8,2.7c31.2,1.9,62.4,3.9,93.5,6.6c15.5,1.4,31.1,2.9,46.6,4.7
					c7.4,0.8,14.8,1.7,22.3,2.7c3.7,0.5,7.4,1,11.1,1.4c-6.3-0.8,0,0,1.1,0.2c3.9,0.5,7.9,1.1,11.8,1.5c7.4,0.8,14.8,1.6,22.1,2.5
					c3.7,0.4,7.4,0.9,11,1.4c0.8,0.1,7,0.9,1.5,0.2c2.5,0.3,4.9,0.7,7.4,1c15.4,2.2,30.8,4.6,46.1,7.5c17.7,3.4,35.2,7.7,52.8,11.3
					c17.7,3.6,35.2,7.7,52.6,12.3c5.8,1.5,12.1-0.9,15.1-6.2C864.1,460,862.7,450.4,856,447.5L856,447.5z"/>
			</g>
		</g>
		<g>
			<g>
				<path class="st6" d="M626,347.5c-4.3-1.5-10.7-3-13.9-4.5c-6-2.8-10.5-6.8-17-9c-12.6-4.3-25.1-6.1-38.3-7.5
					c-11.1-1.2-22.2-1.7-33.3-1.6c-7.1,0-13.9,0.7-20.8,2c-3,0.6-5.9,1.3-8.9,2.3c-6.8,2.3-10.5,5.5-14.8,11.2c2.3-2.3,4.7-4.7,7-7
					c-0.9,0.7-1.8,1.4-2.8,1.9c-13.2,7.7-10.8,28.7,4.3,32.6c1.1,0.2,2.2,0.6,3.2,1.1c-2.9-1.7-5.7-3.3-8.6-5
					c3.8,3,6.9,5.6,11.8,6.3c3.7,0.6,7.5,1.1,11.2,1.2c5.6,0.1,11,0,16.6-0.3c11.1-0.7,22.2-0.8,33.3-0.3c11,0.5,22,1.6,33.1,2.2
					c5.5,0.3,10.8-0.6,16.3-1.2c2.7-0.3,10.1,2.4,14,3.4c7.6,2,15.6-2.4,17.7-10C638.2,357.2,633.4,350.2,626,347.5L626,347.5z"/>
			</g>
		</g>
		<g>
			<g>
				<path class="st6" d="M508.2,329.9c-3.6-0.7-7.2-1.3-10.8-1.9c-4.1-0.7-8.1-2.5-12.1-3.8c-8.7-2.8-16.9-4.6-26-5.2
					c-16.5-1.1-33-1-49.5,0c-17.2,1.1-34.1,4-50.8,8c-7.8,1.9-15.3,4.6-22.7,7.4c-4,1.5-8,3.1-12,4.7c-7.1,2.9-11.5,6.2-15.7,12.5
					c6-2.4,12-4.9,18-7.3c-2-0.3-3.9-0.7-5.9-1c2.7,3.5,5.4,7,8,10.6c-0.4-3.3-0.8-5.9-2.6-8.7c-3.3-4.9-8.8-6.3-14.1-3.7
					c-0.3,0.1-0.5,0.2-0.8,0.4c2.3-0.3,4.6-0.6,6.9-0.9c-0.5-0.1-1.1-0.2-1.6-0.2c1.2,0.7,2.4,1.4,3.7,2.1c-3.1-2.4-5.2-5.3-9.4-5.9
					c-8.8-1.2-14.2,7.5-8.5,14.6c2.7,3.3,6.1,3.7,9.8,5.1c-1.2-0.7-2.4-1.4-3.7-2.1c0.3,0.4,0.7,0.8,1,1.3c-0.9-2.1-1.7-4.2-2.6-6.3
					c0.1,1.5-0.2,7.7-0.4,10.2c-0.5,7.2,5.3,13.4,11.7,15.4c9.3,2.9,17.8-0.2,26.9-2.3c7.8-1.8,15.7-3,23.4-4.8
					c15.5-3.5,31.3-5.9,46.9-8.3c0.6-0.1,6.6-0.9,1.8-0.3c1.8-0.2,3.7-0.5,5.5-0.7c3.7-0.4,7.3-0.8,11-1.1
					c7.9-0.7,15.9-1.1,23.9-1.3c8.9-0.2,17.3-1.3,26.1-2.7c7.4-1.2,14-1,21.4-0.3C518.4,354.5,521.3,332.4,508.2,329.9L508.2,329.9z
					"/>
			</g>
		</g>
		<g>
			<g>
				<path class="st6" d="M340.1,396.9c-15.9-11-38.1-9.1-56.1-5.7c-8.6,1.7-18.7,4.6-26.1,9.3c-9.6,6.1-22,17.4-20.3,30.1
					c1.4,10.3,7.6,19,19,19c10.3,0,19.2-8.6,19-19c0-0.4,0-0.7,0-1.1c-0.8,2.9-1.6,5.8-2.4,8.8c4.8-7.7,13-13.5,20.4-19.3
					c8.1-6.4,14.3-14.3,21.7-21.5c2.8-2.7,0-8.3-4-6.8c-9.6,3.8-19.6,6.1-28.8,10.8c-9.5,4.9-18.2,9.9-28.9,11.3
					c4.5,0.6,8.9,1.2,13.4,1.8c-0.3-0.1-0.5-0.2-0.8-0.4c-6.4,10.9-12.8,21.9-19.2,32.8c9.7,5,19,2.9,28.8,0c3.3-1,5.8-1.9,9.1-3.5
					c1.4-0.6,6.7-2.8-0.1-0.1c3.5-1.4,7.2-2.6,10.9-3.6c3.1-0.9,6.4-1.5,9.6-2c-7.3,1.2-1.7,0.2-0.1,0.1c1.6-0.2,3.3-0.2,4.9-0.4
					c8.5-1,16.6-0.7,25-2.5c7-1.6,12.7-7.8,14.5-14.5C352.3,410.8,347.9,402.2,340.1,396.9L340.1,396.9z"/>
			</g>
		</g>
		<g>
			<g>
				<path class="st6" d="M349,398.8c1.6-0.4,3.1-0.8,4.7-1.2c-2.9-10.5-5.8-21-8.7-31.6c-7.2,2.3-13.4,6-20,9.6
					c-6.5,3.6-12.7,7.1-18.8,11.3c-12,8.4-24.2,16.6-35.9,25.3c-7.3,5.5-11,14.4-6,23c5.9,10,18.1,10.2,26.4,3.4
					c9.7-8,20.1-14.4,31.1-20.5c5.3-2.9,10.1-5,16-6.4c3-0.7,3.5-0.7,6.5-0.6c2,0.2,2.3,0.2,0.9-0.1c1.7,0.2,3.3,0.9,4.9,1.5
					c-1.3-9.8-2.6-19.7-3.9-29.5c-1.5,0.8-2.9,1.5-4.4,2.3c2.8-0.8,5.5-1.5,8.3-2.3c-4.8,0.3-9.3,0.7-13.6,3
					c-2.9,1.5-5.8,3.1-8.6,4.8c-6.3,3.7-12,8.2-17.5,13c-10.6,9.3-19.3,20.1-26.6,32.2c-5.1,8.5-3.5,19.7,3.4,26.6
					c9.1,9.1,21.8,7.5,31.1,0c2.8-2.2,4.8-5.2,6.3-8.4c-1.4,1.8-1.3,1.9,0.3,0.2c1.3-1.2,2.6-2.3,3.9-3.5c2.1-1.9,4.4-3.8,6.6-5.6
					c-1.3,0.9-1.1,0.8,0.6-0.5c1.4-1.1,2.9-2,4.4-3c2.4-1.6,5-3,7.5-4.4c2.6-1.4,3.2-1.8,6.1-2.4c1.9-0.3,2.3-0.4,1.2-0.2
					c1.7-0.2,3.5-0.2,5.2-0.2c1.2,0,2.3,0,3.5,0.1c-1-0.4-2.1-0.8-3.1-1.1c1,0.5,1.9,1,2.9,1.5c3-11,6-22,9-33.1
					c-11,0.4-23.3,3.8-33.7,7.6c-10,3.6-20,7.2-30,10.8c7.5,12.8,14.9,25.6,22.4,38.5c1.8-1.4,3.5-2.9,5.2-4.3
					c2-1.6,1.7-1.4-0.6,0.5c0.9-0.7,1.8-1.3,2.7-2c3.7-2.6,7.5-5,11.4-7.2c2-1.1,4-2.1,6-3.1c2.2-1,2-1-0.7,0.2
					c1-0.4,2.1-0.8,3.2-1.2c4.8-1.7,9.7-2.8,14.5-4.3c11.7-3.5,18.9-15.6,15.6-27.6c-3.2-11.8-15.8-18.9-27.6-15.6
					c-10.4,2.9-20.7,4.7-28.7,12.6c-7.7,7.7-6.8,22.9,3.6,28c6.1,3,11.4,4.5,18.2,4.1c4.3-0.3,8.6-0.5,12.8-0.8c-2-14.7-4-29.3-6-44
					c-4.9,1-9.7,2.8-14.4,4.6c-2.3,0.9-4.6,1.9-6.9,2.9c2.7-1.1,2.9-1.2,0.6-0.3c-3.9,1.5-7.7,3.2-11.5,5
					c-10.8,5-21.3,11.8-30.1,19.8c-7.6,6.9-8.6,19.3-3.6,27.9c3,5.1,8,9,13.8,10.6c6.5,1.8,11.8,0.3,17.7-2.3
					c9.7-4.2,19.5-8.4,29.2-12.7c10.1-4.4,21-10.3,29.3-17.5c5.9-5.2,6.6-15,2.8-21.5c-4.3-7.3-12.1-9.6-20-8.2
					c-1.1,0.2-2.1,0.4-3.2,0.6c2.9-0.7-2.5,0.1-2.6,0.2c-4.3,0.3-8.5,1.1-12.7,2c-6.2,1.5-12.6,2.8-18.7,4.9
					c-6.9,2.3-13.6,5.4-20,8.6c-3.1,1.6-6.2,3.2-9.3,5c-4.5,2.5,3.3-0.4-1.5,0.4c-3,0.5-5.8,1.9-8.3,3.6c10,10,20.1,20.1,30.1,30.1
					c1.6-2.3,3.2-4.5,4.8-6.7c-1.8,2.3-2,2.5-0.4,0.6c1.9-2.4,3.8-4.6,5.6-7.1c0.6-0.9,1.3-1.8,1.9-2.6c-3.4,4.6,0,0.1,0.6-0.7
					c1.7-2.1,3.6-4.2,5.4-6.3c3.7-4.1,7.6-8,11.3-11.9c4.9-5.1,9.9-9.3,13.3-15.7c-2,2-3.9,3.9-5.9,5.9c1.3-1,2.7-2,4-2.9
					c4.8-3.4,8-7.9,8-13.9c0-7.1-4.9-13.8-11.8-15.6c-7.9-2-15.8-1.7-23.3,1.4c-7.5,3.1-13.4,8.1-20.5,11.7
					c-6.1,3-12.2,6.1-18.4,8.7c-7.3,3-14.4,5.3-22,7.4c4.3,10.2,8.6,20.5,12.9,30.7c12.3-6.6,24.2-13.8,36.3-20.8
					c6.4-3.7,12.3-7.7,18.3-12.1c6.5-4.7,13.6-9.1,19.1-15c6.1-6.5,6.5-16.7,0-23.1c-6.5-6.5-16.6-6.1-23.1,0
					c-1.2,1.1-2.3,2.1-3.5,3.2C322.8,384.2,334.8,402.3,349,398.8L349,398.8z"/>
			</g>
		</g>
		<g>
			<g>
				<path class="st6" d="M364.3,447.1c10.5-0.3,20.7-1.3,31.2-3c7.4-1.3,14.9-2.4,22.4-3.4c-3.9,0.5-7.9,1.1-11.8,1.6
					c19.6-2.6,39.3-4.3,59-5.3c9.9-0.5,19.9-2.4,29.8-3.3c9.9-0.9,19.9-1.5,29.9-2c19.9-0.9,39.9-1.3,59.9-1.8
					c20-0.6,39.8,1.5,59.7,4.2c-4.1-0.5-8.1-1.1-12.2-1.6c4.9,0.7,9.9,1.4,14.8,2.2c2.5,0.4,4.9,0.8,7.4,1.2
					c8.1,2.2,16.2,2.2,24.3,0c9.2-2.5,13.8-6.5,21-12.5c-20.9-20.9-41.8-41.8-62.7-62.7c-0.9,1-1.9,1.9-2.8,2.9
					c9.4-3.9,18.9-7.8,28.3-11.7c-27.5-1.6-55-3.7-82.5-5.8c0,28.7,0,57.4,0,86c11.1,0.7,22.1,1.7,33.1,2.7c5.8,0.5,11.7,1,17.5,1.5
					c9.3,0.8,18.3-1.1,27.3-3.2c19.1-4.4,32.5-23.6,32.5-42.6c0-19.7-13.5-37.4-32.5-42.6c-8.3-2.3-16.6-4.3-25.4-3.9
					c-5.8,0.3-11.7,0.5-17.5,0.8c-11.7,0.5-23.4,1.1-35.1,1.3c-23.4,0.5-43,19.2-43,43c0,23.3,19.6,43.3,43,43
					c27.5-0.3,55-0.5,82.5-0.2c-9.4-3.9-18.9-7.8-28.3-11.7c0.9,1.1,1.9,2.2,2.8,3.3c12.9,14.9,37.5,16.5,53.7,6.9
					c20.8-12.2,28.2-39.9,15.9-60.7c-6.4-10.8-17-20.2-29.8-22.4c-3.1-0.5-6.2-1-9.2-1.5c-9.6-1.5-19.2-2.7-28.9-4
					c-12.4-1.6-24.8-2.8-37.3-3.7c4.1,0.5,8.1,1.1,12.2,1.6c-23.3-3.5-46.6-6.7-70.2-6.5c-20.6,0.2-41.2,1.3-61.7,3.4
					c-13.7,1.3-27.3,3-40.7,6c-10.3,2.4-20.5,5-30.7,7.8c-22.5,6.3-45.3,12.9-65.6,24.7c-15,8.7-22.4,27-17.8,43.6
					C331.5,435,347.2,447.6,364.3,447.1L364.3,447.1z"/>
			</g>
		</g>
		<g>
			<g>
				<path class="st6" d="M533.1,333.1c-6.8-9.5-17.2-17.1-28.8-19.5c-8.3-1.7-16.9-2.7-25.4-3c-15.2-0.6-31.1,2.1-45.4,7.3
					c-10.6,3.9-19.1,9.2-25,19.2c-5.7,9.7-7.2,21.4-4.2,32.2c2.9,10.4,9.9,19.5,19.2,25c12,7,30.3,8.5,42.2,0
					c6.7-4.8,13.7-8.5,21.2-11.8c-3.1,1.3-6.1,2.6-9.2,3.9c8.5-3.6,17.4-6.1,26.5-7.4c-3,0.4-6,0.8-9,1.2c8.6-1.1,20.2-2.4,27.6-7.9
					c6.2-4.7,11-9.3,13.2-17.1C537.9,348.3,537.4,339.1,533.1,333.1L533.1,333.1z"/>
			</g>
		</g>
		<g>
			<g>
				<path class="st6" d="M359.3,451.5c16.9,0,33.3-6.8,45.3-18.7c11.9-11.9,18.7-28.4,18.7-45.3c0-16.9-6.8-33.3-18.7-45.3
					c-11.9-11.9-28.4-18.7-45.3-18.7c-16.9,0-33.3,6.8-45.3,18.7c-11.9,11.9-18.7,28.4-18.7,45.3c0,16.9,6.8,33.3,18.7,45.3
					C326,444.7,342.4,451.5,359.3,451.5L359.3,451.5z"/>
			</g>
		</g>
		<g>
			<g>
				<path class="st6" d="M292,378.2c-5.2,3-10.5,5.9-15.8,8.7c4.7-2,9.3-3.9,14-5.9c-0.6,0.1-1.3,0.2-1.9,0.3
					c5.2-0.7,10.4-1.4,15.6-2.1c-17.4,2-34.8,3.2-52.3,3.6c-17.5,0.4-34.9-0.7-52.4-1.3c5.2,38.4,10.4,76.8,15.6,115.2
					c7-1.8,14-3.9,21-5.2c-5.1,0.7-10.3,1.4-15.4,2.1c30.2-3.4,60.4-6.1,90-13.2c14.4-3.4,27.3-8.4,40.9-14.4
					c22-9.8,39.5-31.4,46.6-54c8.4-26.6-5.2-56.9-28.8-70.7c-9.8-5.7-20.3-8.5-31.6-8.5c-5.5,0.7-11.1,1.5-16.6,2.2
					c-10.6,3-19.8,8.3-27.6,16.1c-2.8,2.3-5,5.1-7.9,7.4c4.3-3.3,8.6-6.6,12.9-10c-6.2,4.6-12.2,9.3-18.3,14.1
					c4.3-3.3,8.6-6.7,12.9-10c-4.9,3.6-10.2,6.5-15.7,8.9c5-2.1,10-4.2,15-6.3c-15.9,6.6-33.3,7.9-49.7,13c-9.4,3-18.8,5.9-28.2,8.9
					c-10.2,3.2-20.3,4.9-30.9,6.7c-9.9,2.8-18.6,7.8-25.9,15.1c-11,11-17.2,26-17.2,41.5c0,15.5,6.2,30.5,17.2,41.5
					c4,3.1,7.9,6.1,11.9,9.2c9.1,5.3,19,8,29.6,8c17.3,2,35,2,52.4,1.5c18.2-0.5,36.1-2.8,54.2-4.1c-5.2-0.7-10.4-1.4-15.6-2.1
					c5.8,1.4,11.6,2.6,17.4,3.8c17.7,3.6,34.5,2.8,50.5-6.6c19.9-11.7,32.5-33.5,32.5-56.6s-12.5-44.9-32.5-56.6
					C337.8,366.3,312.4,366.5,292,378.2L292,378.2z"/>
			</g>
		</g>
		<g>
			<g>
				<path class="st6" d="M349.8,415.6c8.6,0,17-3.5,23.1-9.6c6.1-6.1,9.6-14.5,9.6-23.1c0-8.6-3.5-17-9.6-23.1
					c-6.1-6.1-14.5-9.6-23.1-9.6s-17,3.5-23.1,9.6c-6.1,6.1-9.6,14.5-9.6,23.1c0,8.6,3.5,17,9.6,23.1
					C332.7,412.2,341.1,415.6,349.8,415.6L349.8,415.6z"/>
			</g>
		</g>
		<g>
			<g>
				<path class="st6" d="M396.1,365.8c-4.3-3.8-9.1-8.1-15-9.4c-2.8-0.6-5.5-1.3-8.2-2.1c-1.1-0.4-2.2-0.7-3.2-1.1
					c-5.9-2.2,6.3,2.9,0.7,0.2c-4.4-2.1-8.8-4-13.3-5.8c2.4,1,4.7,2,7.1,3c-4.9-2.2-9.6-5-14.8-6.4c-12.6-3.3-26.2,2-32.8,13.3
					c-6.9,11.7-4.2,25.4,4.5,35.2c7.7,8.5,20.6,13.7,31.6,15.5c5.9,1,11.8,1.7,17.7,1.8c10.4,0.2,17.9-3.5,25.6-10
					C405.8,391.9,405.4,374,396.1,365.8L396.1,365.8z"/>
			</g>
		</g>
		<g>
			<g>
				<path class="st6" d="M359.1,348.9c-2.3-2.6-4.6-5.1-6.9-7.7c-3.7-4.1-8-7.3-12.4-10.6c-4.5-2.6-9.3-3.9-14.4-3.9
					c-7.5,0-14.9,3-20.2,8.4c-10.7,10.7-11.4,29.8,0,40.4c6.6,6.1,14,10.5,21.6,15.2c10.2,6.3,23.9,4.1,32.2-4.2
					C369.8,375.9,368.8,359.7,359.1,348.9L359.1,348.9z"/>
			</g>
		</g>
		<g>
			<g>
				<path class="st6" d="M333.5,350.6c7.4,5.5-3.1-2.3-1.6-1.4c-0.6-0.4-1.3-0.8-1.9-1.3c1.2,1,2.5,1.9,3.7,2.9
					c-0.4-0.3-0.8-0.6-1.1-1c1,1.3,2,2.5,2.9,3.8c-0.1-0.2-0.2-0.4-0.3-0.6c0.9,3.2,1.8,6.5,2.6,9.7c0-0.4,0-0.9,0.1-1.3
					c-0.3,1.9-0.5,3.8-0.8,5.7c0.8-4.8,1.4-8,0.1-12.8c-1.3-4.5-3.9-7.8-6.9-11.3c1.2,1.5,2.4,3.1,3.6,4.6c-0.8-1.1-1.5-2.2-2-3.4
					c0.8,1.8,1.5,3.6,2.3,5.4c-0.2-0.5-0.4-1-0.5-1.5c-3.4-12-16-19.2-28.1-15.9c-11.9,3.3-19.3,16.1-15.9,28.1
					c1.7,6.2,4.7,10.7,8.9,15.6c7.4,8.6,20.4,8.9,29.6,3.4c-3.2,0.9-6.5,1.8-9.7,2.6c2.9-0.3,5.4,0.1,8.4-0.7c4.2-1.1,6.5-3,9.8-5.6
					c3.1-2.5,4.7-7.5,4.7-11.3C341.5,358.3,338.2,354,333.5,350.6L333.5,350.6z"/>
			</g>
		</g>
		<g>
			<g>
				<path class="st6" d="M364.2,489.8c0.3,0.2,0.7,0.5,1,0.7c-1.2-1-2.5-1.9-3.7-2.9c0.8,0.7,1.4,1.3,2,2.1c-1-1.3-2-2.6-3-3.9
					c0.5,0.7,0.8,1.3,1.2,2c-0.7-1.6-1.3-3.1-2-4.7c0.2,0.4,0.3,0.7,0.4,1.1c1.7,5,4.4,9.1,9.1,11.8c6.1,3.6,13.9,3.6,20,0
					c4.4-2.6,7.7-6.9,9.1-11.8c1.9-7-0.3-14-5.1-19.3c-3.8-4.1-9.5-7.5-15-8.5c-3.2-0.9-6.5-0.9-9.7,0c-4.5,1.3-8.5,4.3-10.9,8.4
					c-2.5,4.2-3.1,9.3-1.8,14C357.1,483.8,360.2,487.1,364.2,489.8L364.2,489.8z"/>
			</g>
		</g>
		<g>
			<g>
				<path class="st6" d="M364.8,451.6c-3.2,6.5-3.1,12.7-0.6,19.3c2.4,6.3,4.6,12.6,7.5,18.7c4.1,8.6,16.3,10.8,24,6.3
					c8.6-5,10.6-15.5,6.3-24c-2.4-4.7-5.4-9-8.2-13.5c-3.5-5.7-8.1-11.1-15.1-12.5C373.5,445,367.3,446.5,364.8,451.6L364.8,451.6z"
					/>
			</g>
		</g>
		<g>
			<g>
				<path class="st6" d="M370.1,460.5c-4,11.5-1.7,27.7,10.2,33.9c9.1,4.8,23,1.1,25.2-10.2c0.8-4.3,1.3-8.1-0.3-12.3
					c-1.6-4.1-3.9-7.1-6.6-10.4c-3.9-4.8-8.5-6.9-14.2-9C378.1,450.2,372,454.9,370.1,460.5L370.1,460.5z"/>
			</g>
		</g>
		<g>
			<g>
				<path class="st6" d="M381.7,475.3c0,0-0.1,0.1-0.1,0.1c-1.8,1.8-3.1,4-3.8,6.5c-1.1,4.1-0.3,7.7,1.5,11.4
					c1.3,2.6,4.1,5.5,6.6,6.8c4.7,2.5,10.2,2.7,14.9,0c5.5-3.2,8.7-10.4,6.8-16.7c-1-3.1-1.9-4.6-4-7c-1.1-1.4-2.6-2.3-4.1-3.4
					c-2.3-1.3-4.8-2-7.5-2c-2.7,0-5.2,0.7-7.5,2C383.6,473.7,382.7,474,381.7,475.3L381.7,475.3z"/>
			</g>
		</g>
		<g>
			<g>
				<path class="st6" d="M385.5,484.3c-0.3,0.4-0.5,0.7-0.8,1.1c-1.3,1.9-1.4,4.7-0.8,6.9c0.3,1.1,0.8,2,1.3,2.9
					c1.8,3.3,6,4.9,9.5,3.9c1.4-0.4,2.7-1.1,3.7-2.2c1.5-1.5,2.7-3.9,2.5-6c0-0.3-0.1-0.6-0.1-1c0-1.6-0.4-3-1.2-4.4
					c-0.7-1.4-1.9-2.5-3.2-3.3c-0.9-0.5-2.1-0.9-3.1-1.3c-1.3-0.3-2.5-0.3-3.8,0C387.9,481.5,386.6,482.7,385.5,484.3L385.5,484.3z"
					/>
			</g>
		</g>
		<g>
			<g>
				<path class="st6" d="M382.1,495.8c-0.2,2.9,1,5.3,2.2,7.8c1.1,1.8,2.5,3.2,4.3,4.3c1.9,1.1,3.9,1.6,6.1,1.6
					c2.2,0,4.2-0.6,6.1-1.6c2.4-1.4,5-4.3,5.5-7.2c0.4-2.7,1.1-5.5,0.1-8.2c-0.6-2.1-1.6-3.9-3.2-5.4c-2.3-2.3-5.5-3.6-8.7-3.6
					s-6.4,1.3-8.7,3.6c-0.6,0.8-1.3,1.7-1.9,2.5C382.7,491.5,382.1,493.5,382.1,495.8L382.1,495.8z"/>
			</g>
		</g>
		<g>
			<g>
				<path class="st6" d="M394.7,487.7c-2.9-2.3-5.1-3.9-9-4.1c-2.6-0.1-5.2-0.3-7.8-0.4s-5.2-0.3-7.8-0.4c-4.1-0.2-7.5,1.5-11.1,3.2
					c-6.8,3.1-6.9,15,0,18c3,1.3,5.8,2.8,9.2,3c2.6,0.1,5.2-0.1,7.8-0.3c2.6-0.2,5.2-0.3,7.8-0.5c4.6-0.3,7.3-1.4,10.9-4.3
					C398.6,498.6,398.7,490.7,394.7,487.7L394.7,487.7z"/>
			</g>
		</g>
		<g>
			<g>
				<path class="st6" d="M357.6,477.3c-6.8-0.9-13.6,1.4-18.3,6.4c-5.9,6.3-5.9,15.5,0,21.7c4.7,5,11.6,7.3,18.3,6.4
					c4.8-0.6,8.6-1.5,12.2-5.1c3.2-3.2,5.1-7.6,5.1-12.2s-1.8-9-5.1-12.2C366.2,478.8,362.4,477.9,357.6,477.3L357.6,477.3z"/>
			</g>
		</g>
		<g>
			<g>
				<path class="st6" d="M344.9,480.3c-4.8-1.9-9.4,0.2-13.6,2.2c-2.2,1.3-4,3.1-5.3,5.3c-2,3.4-2.5,7.5-1.5,11.3
					c1,3.7,3.5,6.8,6.7,8.8c3.6,2.1,7.3,2.3,11.3,1.5c4.7-1,8.5-3.3,11.1-7.6c2-3.4,2.5-7.5,1.5-11.2c-0.7-2.5-1.9-4.6-3.8-6.4
					C349.5,482.3,347.4,481,344.9,480.3L344.9,480.3z"/>
			</g>
		</g>
		<g>
			<g>
				<path class="st6" d="M320.6,484.7c-0.1-0.3-0.2-0.7-0.3-1c-0.9-3.3-2.6-6.1-5-8.5c-2.4-2.4-5.2-4-8.5-5
					c-7.2-2.7-16.2-0.2-21.4,5.1c-5.6,5.6-7.7,15.9-2.9,22.7c2.9,4.2,6.5,8.1,11.8,9.2c0.5,0.1,1,0.2,1.5,0.3
					c4.3,0.9,6.8,0.7,11.1-0.1c4.9-0.9,9.7-5.2,11.8-9.4C320.8,493.7,322,489.5,320.6,484.7L320.6,484.7z"/>
			</g>
		</g>
		<g>
			<g>
				<path class="st6" d="M281.8,470.5c-3.2-1-6.4-1.3-9.7-0.4c-2.8,0.8-6,2.6-7.9,4.9c-0.8,1-1.5,2-2.3,3c-1.3,2.3-2,4.8-2,7.5
					c0,5.4,2.9,10,7.4,12.8c5.5,3.5,12.8,3.5,18.1-0.4c2.3-1.3,4-3.1,5.4-5.4c1.4-2.3,2-4.9,2-7.6
					C292.8,478.2,288.2,472.5,281.8,470.5L281.8,470.5z"/>
			</g>
		</g>
		<g>
			<g>
				<path class="st6" d="M300.8,485.2c-1.9-5.5-5-9.8-10.1-12.8c-4.3-2.5-9.5-2.7-14.3-3.5c-3.2-0.5-6.4-1-9.6-1.5
					c-8.4-1.3-13.9-1.1-21.8,2.5c-6.3,2.9-10.1,10.9-10.1,17.5c0,7.4,4,13.6,10.1,17.5c8.6,5.6,20,4.1,29.9,4
					c6.2-0.1,11.7-0.2,17.2-3.6C298.5,501.5,303.4,492.9,300.8,485.2L300.8,485.2z"/>
			</g>
		</g>
		<g>
			<g>
				<path class="st6" d="M251.1,477.9c-3.4-5.3-7.8-9.3-14-11c-3.2-0.9-7-0.9-10.4-1.1c-3.8-0.3-6.8-0.5-10.7,0.6
					c-6.8,1.9-11,6.2-14.9,11.8c-5.9,8.5-3.2,21,3.6,27.9c4.7,4.8,10.9,7.7,17.7,7.7c4,0,8.1-1.3,11.9-2.2
					c6.3-1.5,13.6-4.8,16.4-11.2C254,493.1,255.8,485.1,251.1,477.9L251.1,477.9z"/>
			</g>
		</g>
		<g>
			<g>
				<path class="st6" d="M177.7,462.1c-1.1-0.9-2-1.9-3-2.9c4,4.4,0.3,0.1-0.5-1.5c-0.7-1.3-1.3-2.6-1.9-3.9c3,6,0.2,0.3-0.3-1.3
					c-2.5-7.8-3-16.2-4.4-24.2c-3.9-21-17-38.9-37.6-45.8c6.4,8.4,12.7,16.7,19.1,25.1c0-0.6,0.1-1.2,0.1-1.8
					c0.8-14.2-12.4-26.1-26.1-26.1c-14.1,0-26.2,11.9-26.1,26.1c0,0.6,0,1.2,0,1.8c0.1,11.5,7.9,22.1,19.1,25.1
					c2.2,0.6,5.6,2.7-0.9-0.6c1.8,0.9,5.1,4-0.6-0.8c1.1,0.9,2.1,2,3,3.1c-5.1-5.7-0.8-1,0.2,0.8c0.7,1.2,1.4,2.6,2,3.9
					c-3-6.5-0.6-1-0.1,0.5c1.3,4,2.3,8.1,3.3,12.2c4.3,17.3,12.1,35.3,29.3,43.2c8.7,4,18.2,3.9,25.4-3.3
					C185.3,484.1,186.4,469.6,177.7,462.1L177.7,462.1z"/>
			</g>
		</g>
		<g>
			<g>
				<path class="st6" d="M127.8,396.9c2.4,0.9,4.7,1.7,7.1,2.6c-1.5-0.9-3-1.7-4.5-2.6c0.3,0.3,0.6,0.7,0.9,1c-1-1.7-2-3.4-3-5.1
					c1.5,8.2,10,17.9,18.7,19.4c5.6,1,11.2,1.9,16.8,2.9c7.1,1.2,13.4,1.2,19.9-2.6c7.8-4.6,12.8-13.2,12.8-22.3
					c0-6.8-2.7-13.4-7.6-18.2c-7.1-7.1-15.6-8-25.1-6.6c-5,0.7-9.9,1.4-14.9,2.1c-9.5,1.3-18.6,10-20.5,19.2c1-1.7,2-3.4,3-5.1
					c-0.3,0.3-0.6,0.7-0.9,1c1.5-0.9,3-1.7,4.5-2.6c-2.4,0.8-4.7,1.6-7.1,2.4C120.4,384.8,120.7,394.3,127.8,396.9L127.8,396.9z"/>
			</g>
		</g>
		<g>
			<g>
				<path class="st6" d="M195.2,392.4c1.5,2.1,2.4,3.4,4.7,4.7c2.9,1.7,6.5,2.2,9.8,1.3c7.9-2.2,11.8-11.6,7.6-18.7
					c-3.5-6-11.4-8.1-17.4-4.6C194.5,378.3,191.3,386.8,195.2,392.4L195.2,392.4z"/>
			</g>
		</g>
		<g>
			<g>
				<path class="st6" d="M212.3,380.3c-8.8-13.2-24.6-13.6-37.5-7c-16.2,8.2-12.5,34.9,5.1,38.8c6.7,1.5,13,1.6,19.5-1
					c7.5-3,12.1-7.1,14.9-14.9C215.9,391.3,215.2,384.7,212.3,380.3L212.3,380.3z"/>
			</g>
		</g>
		<g>
			<g>
				<path class="st6" d="M144.1,414.6c-3.7,0-7.4,0-11,0c-18.9,0-34.8,15.8-34.8,34.8s15.8,34.8,34.8,34.8c3.7,0,7.4,0,11,0
					c18.9,0,34.8-15.8,34.8-34.8S163.1,414.6,144.1,414.6L144.1,414.6z"/>
			</g>
		</g>
		<g>
			<g>
				<path class="st6" d="M133.6,453.6c-0.4,0-0.8-0.1-1.2-0.1c-3.4-0.2-6.8,2-8.5,4.9c-2.1,3.6-1.7,9,1.5,11.9
					c0.3,0.3,0.6,0.5,0.9,0.8c2.1,1.8,4.4,3,7.2,3c3.6,0,7-2,8.8-5.1c1.8-3.2,1.8-7.2,0-10.3C140.5,455.4,137.2,453.9,133.6,453.6
					L133.6,453.6z"/>
			</g>
		</g>
		<g>
			<g>
				<path class="st6" d="M154.5,456.9c-3.1-2.6-6-5.1-10.1-6.2c-5.4-1.5-11.7-0.8-16.4,2.4c-2.8,1.7-5.1,3.9-6.8,6.8
					c-0.6,1.5-1.3,3-1.9,4.5c-0.9,3.3-0.9,6.7,0,10c0.6,3.6,2.8,7.5,5.5,9.8c1.4,1,2.7,2.1,4.1,3.1c3.1,1.8,6.5,2.7,10.1,2.7
					c0.5,0.1,1,0.1,1.6,0.2c3.5,0,6.8-0.9,9.9-2.7c2.9-1.7,5.3-4.1,7-7c1.8-3,2.7-6.3,2.7-9.9C160.2,465.9,158.2,460.1,154.5,456.9
					L154.5,456.9z"/>
			</g>
		</g>
		<g>
			<g>
				<path class="st6" d="M139.6,448.3c-1.2-0.8-2.6-1.4-3.9-2.1c-4.3-2.3-8.2-3.6-13.2-3.8c-7.4-0.2-14.5,4.2-18.2,10.4
					c-1.9,3.3-2.9,6.8-2.9,10.6c0,5.9,2.4,10.5,6.2,14.9c3.6,4.2,10.6,6.7,15.6,8.5c8.8,3.1,19.3-2,23.9-9.7
					C153.1,467.1,149.4,454.4,139.6,448.3L139.6,448.3z"/>
			</g>
		</g>
		<g>
			<g>
				<path class="st6" d="M105.5,441.8c-0.3,0-0.6,0-0.9,0c-3.7,0-7.3,1.5-10,4.1s-4.1,6.3-4.1,10c0,3.7,1.5,7.3,4.1,10
					s6.3,4.1,10,4.1c0.3,0,0.6,0,0.9,0c3.7,0,7.3-1.5,10-4.1s4.1-6.3,4.1-10c0-3.7-1.5-7.3-4.1-10S109.2,441.8,105.5,441.8
					L105.5,441.8z"/>
			</g>
		</g>
		<g>
			<g>
				<path class="st6" d="M91.3,452.3c-1,0.2-1.9,0.3-2.9,0.5c-3.1,0.5-3.1,5.8,0,6.3c1,0.2,1.9,0.3,2.9,0.5c1,0.2,2,0.2,2.9-0.4
					c1.2-0.7,1.9-1.9,1.9-3.3c0-1-0.4-2-1.1-2.7C93.9,452.2,92.6,452,91.3,452.3L91.3,452.3z"/>
			</g>
		</g>
		<g>
			<g>
				<path class="st6" d="M882.4,498.1c1.8-1,3.8-1.8,4.8-3.8c1-2.1,1.2-4.3,0-6.4c-0.6-1-1.3-1.7-2.3-2.3c-1-0.6-2.1-0.9-3.2-0.9
					c-2.1-0.3-4.1,1.2-5.8,2.1c-3.1,1.7-4.1,5.9-2.3,8.9C875.3,498.9,879.3,499.8,882.4,498.1L882.4,498.1z"/>
			</g>
		</g>
		<g>
			<g>
				<path class="st6" d="M886.4,483c3.7,4.4,4.9,5.5,3.7,3.4c-1.8-3.1-4.3-5.6-7.4-7.4c-4.7-2.8-10.2-3.3-15.6-2.9
					c-10.9,0.8-20.5,2.1-26.5,12.6c-4.4,7.7-3.8,19.2,3.3,25.2c4.9,4.2,9.7,7.1,16.4,7.1c4.2,0,8.5-1.4,12.6-2.5
					c5.1-1.4,10.1-3.2,14-7.1c2.6-2.6,4.3-5.6,5.3-9.1c0.3-2,1.1-1.6-0.5,0.7C896.5,496,892.6,487.5,886.4,483L886.4,483z"/>
			</g>
		</g>
		<g>
			<g>
				<path class="st6" d="M869.2,486.7c-4.7-0.6,5.4,2.3,1.9,0.4c-2.8-1.5-6.3-2.7-9.6-2.7c-4.3,0-8.5-0.2-12.7,1.1
					c-9.9,3-16.1,13.2-13.3,23.4c2.7,10,13.4,16,23.4,13.3c4.2-1.2,7.6-3.4,11.2-5.7c2.6-1.6,5.3-4.3,6.8-6.9
					c0.8-1.3,0.6-1.1-0.6,0.4c0.6-0.5,1.2-1,1.8-1.5c3.4-2.9,4.4-8.3,3.3-12.4C879.9,490,875,487.5,869.2,486.7L869.2,486.7z"/>
			</g>
		</g>
		<g>
			<g>
				<path class="st6" d="M863.8,477.4c-6.5-3.7-15-4.9-22.2-2.6c-5,1.6-10.5,5.8-11.4,11.4c0,0.2-0.1,0.4-0.1,0.6
					c-0.7,4.4-0.7,8.2,1.6,12.2c3,5.2,7.9,7.2,13.6,7.8c4.1,0.4,9.3-1.5,12.1-4.7c0.6-0.7,1.2-1.3,2-1.9c-1,0.8-2.1,1.6-3.1,2.4
					c0.8-0.5,1.5-1,2.4-1.3c-1.2,0.5-2.3,1-3.5,1.5c0.4-0.2,0.9-0.3,1.3-0.4c-1.3,0.2-2.5,0.3-3.8,0.5c1-0.1,1.9-0.1,2.8,0.1
					c-1.2-0.2-2.5-0.3-3.7-0.5c0.5,0.1,0.9,0.2,1.4,0.3c6,1.6,12.5-1,15.6-6.4C872.5,489.9,870.4,481.1,863.8,477.4L863.8,477.4z"/>
			</g>
		</g>
		<g>
			<g>
				<path class="st6" d="M851.1,486.1c-4.1-0.9-8-0.7-11.7,1.4c-3.9,2.3-6.4,5.9-7.7,10.2c-1.9,6.5,1.2,13.6,6.9,17
					c3.5,2,7.7,2.6,11.6,1.5c4-1.1,6.6-3.6,9-6.9C864.6,501.7,860.8,488.2,851.1,486.1L851.1,486.1z"/>
			</g>
		</g>
		<g>
			<g>
				<path class="st6" d="M844.8,481.6c-3.4-0.5-6.5-1-9.8,0.3c-3.7,1.5-6.3,2.5-9.2,5.4c-3.4,3.4-5.6,8.3-5.5,13.2
					c0,2,0.5,3.9,0.7,5.9c0.7,4.9,4.6,10.4,9.1,12.4c2.8,1.6,5.8,2.4,9,2.4c4.4,0,9.6-1.8,12.6-5.2c2.4-2.8,3.9-4.6,4.9-8.2
					c0.6-2.2,0.5-3.8,0.7-5.8c-0.2,1.6-0.4,3.3-0.7,4.9c0.5-2.3,1-3.5,1-6.4c0-4-1.4-6.9-3.1-10.4c0.6,1.4,1.2,2.8,1.8,4.2
					c-0.2-0.5-0.3-0.9-0.4-1.4C855,488,849.9,482.3,844.8,481.6L844.8,481.6z"/>
			</g>
		</g>
		<g>
			<g>
				<path class="st6" d="M829.3,503.2c-0.2,2.1,0.5,4,1.1,5.9c1.5,4.8,5.7,8.2,10.7,8.2c2.9,0,5.8-1.2,7.9-3.3
					c2.2-2.2,3-4.8,3.3-7.9c0.2-2.1,0.3-4-0.4-6c-1.7-4.9-5.7-8.4-11.1-8.4c-3,0-6,1.2-8.1,3.4C830.3,497.4,829.6,500,829.3,503.2
					L829.3,503.2z"/>
			</g>
		</g>
		<g>
			<g>
				<path class="st6" d="M832.6,491.5c-1.4,1.2-2.5,3.4-2.8,5.2c-0.5,2.6-0.5,5.2,1,7.5c1.4,2.1,3.3,3.8,5.9,4.3
					c2.4,0.5,4.6,0.4,6.7-0.9c1.7-1,3.7-3.1,4-5.2c0.3-2,0.6-3.5,0-5.5c-0.5-1.6-1.2-3.1-2.6-4.2c-0.2-0.1-0.3-0.3-0.5-0.5
					c0.5,0.6,0.9,1.2,1.4,1.7c-0.2-0.3-0.3-0.5-0.5-0.8c-1.3-1.8-2.6-3.1-4.8-3.7C837.5,488.6,834.8,489.6,832.6,491.5L832.6,491.5z
					"/>
			</g>
		</g>
		<g>
			<g>
				<path class="st6" d="M825.9,503.4C825.9,503.5,825.9,503.5,825.9,503.4c1.9,1.9,4,3.1,6.5,3.8c1.3,0.2,2.6,0.3,3.9,0.5
					c2.6,0,5.1-0.7,7.3-2c0,0,0.1,0,0.1,0c2.2-1.3,4-3.1,5.3-5.3c1.3-2.3,2-4.7,2-7.4c0-6.5-4.5-12.4-10.8-14.1
					c-6.3-1.7-13.2,1.1-16.5,6.7c-1.3,2.3-2,4.7-2,7.4C821.6,496.8,823.1,500.9,825.9,503.4L825.9,503.4z"/>
			</g>
		</g>
		<g>
			<g>
				<path class="st6" d="M830.8,486.2c-0.2,0.6-0.4,1.1-0.5,1.7c1.1-1.4,2.2-2.8,3.2-4.2c-5.6,3.9-8.5,11.6-6.4,18.2
					c3.1,9.9,16.9,9.9,19.9,0c2-6.6-0.9-14.3-6.4-18.2c1.1,1.4,2.2,2.8,3.2,4.2c-0.2-0.6-0.4-1.1-0.5-1.7
					C841.5,480,832.7,480,830.8,486.2L830.8,486.2z"/>
			</g>
		</g>
		<g>
			<g>
				<path class="st6" d="M827,500.4c-0.6,2.6-0.9,5.8,0.1,8.4c1.1,2.9,2.5,5.2,5.2,6.8c0.7,0.4,2.2,1,3.3,1.3
					c1.4,0.4,2.9,0.6,4.3,0.6c3.7,0,7.1-2,9-5.1c0.9-1.6,1.4-3.4,1.4-5.2c0-3-1.2-5.1-3-7.3c-0.1-0.1-0.1-0.2-0.2-0.2
					c0.5,0.7,1.1,1.4,1.6,2.1c-0.2-0.3-0.4-0.7-0.6-1c0.4,0.9,0.7,1.8,1.1,2.7c-0.1-0.2-0.1-0.4-0.2-0.5c-0.9-2.8-2.6-5.3-5.2-6.8
					c-0.4-0.3-0.9-0.5-1.3-0.8c0.7,0.6,1.4,1.1,2.2,1.7c-0.3-0.3-0.6-0.5-0.9-0.8C838.9,490.4,828.6,493.3,827,500.4L827,500.4z"/>
			</g>
		</g>
		<g>
			<g>
				<path class="st6" d="M823.6,499.5c-0.6,3.2-0.8,6.6,0.4,9.8c1.6,4.2,3.9,7.1,7.6,9.6c4.8,3.4,12.1,0.9,14.9-3.9
					c3.1-5.2,1.1-11.7-3.9-14.9c-0.2-0.1-0.5-0.3-0.7-0.5c0.7,0.6,1.5,1.1,2.2,1.7c-0.4-0.4-0.8-0.7-1.2-1.2
					c0.6,0.7,1.1,1.5,1.7,2.2c-0.4-0.6-0.8-1.1-1.1-1.8c0.4,0.9,0.7,1.7,1.1,2.6c-0.3-0.7-0.4-1.3-0.5-2c0.1,0.9,0.3,1.9,0.4,2.8
					c0-0.6,0-1.1,0-1.7c0-1.9-0.5-3.7-1.4-5.3c-1.4-2.4-3.7-4.1-6.3-4.9C831.4,490.6,824.7,493.8,823.6,499.5L823.6,499.5z"/>
			</g>
		</g>
		<g>
			<g>
				<path class="st6" d="M822.3,519.3c2.1,2.1,4.1,4.5,6.4,6.3c1.8,1.7,3.8,2.9,6.2,3.6c3.6,1,7.6,0.5,10.8-1.4
					c6.5-3.8,9-12.6,5-19.2c-2.1-3.5-5.1-6.8-7.7-10c-2.2-2.9-6.9-4.3-10.4-4.3c-3.9,0-7.6,1.6-10.4,4.3
					C816.6,504.2,816.7,513.6,822.3,519.3L822.3,519.3z"/>
			</g>
		</g>
		<g>
			<g>
				<path class="st6" d="M832.3,498.9c-1.7,0.5-3.4,1.1-4.9,2.1c-1.1,0.9-2.3,1.8-3.4,2.6c-2.1,2.1-3.5,4.6-4.3,7.5
					c-0.8,3-0.8,6,0,9c0.8,2.9,2.3,5.4,4.3,7.5c2.6,3.1,6.4,4.3,10.1,5.3c7.2,2,15-1.2,18.7-7.6c2.2-3.8,2.9-8.5,1.7-12.8
					c-0.6-1.3-1.1-2.6-1.7-4c-1.5-2.5-3.5-4.5-6-6c-0.4-0.3-0.9-0.7-1.3-1c-2.8-2.2-6.2-2.6-9.6-2.9c2.8,0.8,5.7,1.5,8.5,2.3
					C841.2,498.6,836.2,497.7,832.3,498.9L832.3,498.9z"/>
			</g>
		</g>
		<g>
			<g>
				<path class="st6" d="M834.6,518.4c1.1,0.4,2.1,0.9,3.2,1.3c1,0.6,2,0.9,3.2,0.9c1.7,0,3.3-0.7,4.4-1.8c1.2-1.2,1.8-2.8,1.8-4.4
					c0-1.8-0.7-3.1-1.8-4.4c-0.7-0.9-1.5-1.7-2.2-2.6c-2.5-2.9-7.4-2.6-10,0c-1.3,1.3-2.1,3.1-2.1,5
					C831.1,514.5,832.4,517.5,834.6,518.4L834.6,518.4z"/>
			</g>
		</g>
		<g>
			<g>
				<path class="st6" d="M844.6,526.9c0.9,0,1.8,0,2.8,0c2.1,0,3.9-1,5.8-1.8c2.5-1.2,4.2-5.1,3.1-7.7c-0.5-1.1-0.9-2.5-1.5-3.5
					c-0.8-1.4-2.2-2.5-3.3-3.6c-4.6-4.3-12.1-3.6-15.4,2C832.4,518.6,837.2,526.8,844.6,526.9L844.6,526.9z"/>
			</g>
		</g>
		<g>
			<g>
				<path class="st6" d="M839.6,521.6c1.5,4.6,4.4,7.4,9.1,8.8c4.1,1.2,8,1.7,11.8-0.8c5.5-3.5,6.5-9.5,4-15.1
					c-1.7-3.7-5.2-5.3-8.8-6.4c-1.6-0.5-2.9-0.9-4.7-0.9c-3.6,0-5.9,1.6-8.6,3.7C839.5,513.1,838.5,518.3,839.6,521.6L839.6,521.6z"
					/>
			</g>
		</g>
		<g>
			<g>
				<path class="st6" d="M846.2,519c0,0.4,0,0.8,0,1.2c0.1-0.8,0.2-1.5,0.3-2.3c-0.7,2.1-0.6,4.3,0,6.4c0.7,2.8,2.7,5.2,5.1,6.6
					c1.2,0.7,2.8,1.2,4.1,1.6c4.6,1.6,10-1,12.3-5c1.5-2.5,1.9-5.6,1.1-8.4c-0.8-2.9-2.6-4.9-5-6.5c-0.4-0.3-0.9-0.6-1.3-0.9
					c-1.7-1-3.6-1.5-5.6-1.5c-2,0-3.9,0.5-5.6,1.5c-1.9,0.8-3,2.5-4.2,4.1c0.4-0.6,0.9-1.2,1.3-1.7c0,0-0.1,0.1-0.1,0.1
					c0.5-0.4,1.1-0.8,1.6-1.3C848.1,514.5,846.2,516.1,846.2,519L846.2,519z"/>
			</g>
		</g>
		<g>
			<g>
				<path class="st6" d="M839.2,532.2c0.4,0.3,0.8,0.5,1.2,0.8c-1.8-2.4-3.6-4.7-5.4-7.1c1.9,9.2,10.1,14.3,19.1,13.6
					c2.9,0,5.6-0.7,8.1-2.2c3.6-2.1,6.3-5.6,7.4-9.6c2.3-8.4-2.8-17.5-11.2-19.8c-0.5-0.1-1-0.3-1.5-0.4c-3.5-0.9-5.9-0.8-9.5-0.2
					c-5.1,0.9-9.2,4.8-11.2,9.4c2.4-1.8,4.7-3.6,7.1-5.4c-0.4,0.2-0.9,0.4-1.3,0.6c-3.7,1.5-6.6,3.7-7.8,7.8
					C832.7,524.6,835,529.4,839.2,532.2L839.2,532.2z"/>
			</g>
		</g>
		<g>
			<g>
				<path class="st6" d="M839.6,523.4c0.5,3.1,3.4,6.4,5.9,7.8c3.1,1.8,6.9,1.8,10.4,1.8c4,0,8.5-2.2,10.3-5.9
					c2.1-4.3,2.1-7.8,0-12.1c-1.8-3.7-6.3-5.9-10.3-5.9c-4.6,0-9.3,0.1-12.8,3.6C840.2,515.6,839,519.3,839.6,523.4L839.6,523.4z"/>
			</g>
		</g>
		<g>
			<g>
				<path class="st6" d="M866.9,524.3c2.8-0.2,5.5-0.4,8.3-0.6c2.6-0.2,5.6,0,8-1.2c0.9-0.5,1.1-1.9,0.3-2.6c-1.7-1.6-4-2.1-6.2-2.9
					c-3-1.1-6-2.2-9-3.4C860.8,510.8,858.8,524.9,866.9,524.3L866.9,524.3z"/>
			</g>
		</g>
		<g>
			<g>
				<path class="st6" d="M867.7,528c1,0.3,2.1,0.6,3.1,0.9c-1.5-0.9-2.9-1.7-4.4-2.6c0.2,0.2,0.4,0.4,0.6,0.6
					c-0.9-1.6-1.8-3.1-2.8-4.7c1.1,4.2,4.1,7.2,7.9,9.1c5,2.5,9.4,3.4,14.9,1.9c4.6-1.3,8.3-5,9.6-9.6c1.5-5.4-0.8-13.1-6.3-15.5
					c-5.2-2.2-9.3-3.4-14.9-1.5c-4,1.4-8.2,3.1-10.1,7.3c1.3-1.3,2.6-2.6,3.8-3.8c1.3-1-0.9-0.1-1.5,0c-4,0.6-6.8,5.2-6.8,8.9
					C861,523.3,863.8,526.8,867.7,528L867.7,528z"/>
			</g>
		</g>
		<g>
			<g>
				<path class="st6" d="M876.6,540.6c6.6,2.4,13.7,1.2,19.7-2.2c6.9-4,11.2-11.6,11.2-19.6c0-7.9-4.3-15.6-11.2-19.6
					c-6-3.4-13.1-4.6-19.7-2.2c-3.8,1.1-7.1,3-10,5.8c-4.2,4.2-6.6,10-6.6,16c0,4.1,1,7.9,3.1,11.4
					C866.3,535.6,870.9,538.5,876.6,540.6L876.6,540.6z"/>
			</g>
		</g>
		<g>
			<g>
				<path class="st6" d="M870.1,524.1c0.4,0.3,0.7,0.6,1.1,0.9c1.8,1.7,3.8,3,6.2,3.6c4,1.1,7.3,0.2,10.9-1.4
					c0.3-0.1,0.5-0.2,0.8-0.3c5.6-2.5,7.9-10.2,6.4-15.7c-1.7-6.1-7.2-10.1-13.4-10.2c-0.3,0-0.6,0-0.8,0c-4.8-0.1-9.9,2.7-12.2,7
					c-0.3,0.5-0.5,1-0.8,1.6C865.9,514.3,865.9,520.3,870.1,524.1L870.1,524.1z"/>
			</g>
		</g>
		<g>
			<g>
				<path class="st6" d="M884.6,525c12.7,4.7,27.4,13.5,40.7,6.6c8.9-4.6,9-16.4,3-23.2c-5.7-6.4-13.7-7-21.7-7.1
					c-6.3-0.1-12.5-0.2-18.8-0.3c-5.4-0.1-10.4,3.8-11.8,9C874.2,516.8,878.4,522.7,884.6,525L884.6,525z"/>
			</g>
		</g>
		<g>
			<g>
				<path class="st6" d="M904.8,527.9c5.4,2.7,10.7,5.6,16.9,5.7c4.6,0,9.2,0.1,13.9,0.1c6,0,11.8-1,17.8-1.9c5.6-0.9,11-2,15.8-5.4
					c5.7-4.1,9.6-9.4,9.6-16.7c0-6.6-3.6-13.5-9.6-16.7c-10.5-5.7-24-5.6-35.6-4c-4.5,0.6-9.1,1.2-13.6,1.9
					c-5.8,0.8-10.3,3.2-15,6.4C894.5,504.2,892.1,521.5,904.8,527.9L904.8,527.9z"/>
			</g>
		</g>
		<g>
			<g>
				<path class="st6" d="M912.8,505.9c2.1,2.4,4.2,4.8,6.3,7.2c4.6,5.2,10.7,7.1,16.9,9.6c7.5,2.9,14.8,4.4,22.6,5.9
					c9.5,1.8,18.9,3.9,28.5,4c10.2,0.1,21.4,0.8,29.9-5.6c8.6-6.3,14.6-18.6,7.5-28.7c-3.7-5.3-7.4-9.5-13.3-12.1
					c-5-2.2-10-4-15.2-5.7c-7.6-2.5-15.1-3.4-23-4.5c-9.5-1.3-18.9-3.1-28.5-2.6c-6.7,0.4-13.7,0.3-19.7,3.8c-3,1.8-6.1,3.6-9.1,5.3
					C907.2,487.6,906.5,498.8,912.8,505.9L912.8,505.9z"/>
			</g>
		</g>
		<g>
			<g>
				<path class="st6" d="M939.1,500.7c16.3,8.8,35.1,13.4,52.7,18.8c8.2,2.5,16.5,4.2,24.9,5.8c6,1.2,12.1,2.7,18.2,2.6
					c8.8-0.2,15.4-2.2,21.9-8.4c4.7-4.5,7.7-13.2,5.2-19.6c-2.9-7.2-5.8-12.9-13.1-16.5c-5.5-2.7-10.9-4.8-16.9-6.2
					c-9-2.2-17.8-4.4-26.9-5.7c-18.5-2.6-37.8-7-56.5-5.8c-8.4,0.5-15.8,5.3-18.1,13.8C928.3,487.5,931.8,496.7,939.1,500.7
					L939.1,500.7z"/>
			</g>
		</g>
		<g>
			<g>
				<path class="st6" d="M947.1,499.7c8,3.2,15.9,6.4,23.9,9.6c8.5,3.4,17,7.7,25.8,10.2c9.7,2.8,19.2,5.8,29.2,7.1
					c5.4,0.7,11.9,2.3,17.2,0.2c-0.7,0-1.4,0-2,0c1.3,0,2.5-0.1,3.8-0.1c5.9-0.2,9.7-2.5,14.1-6.2c4.4-3.7,6.2-11.5,4.4-16.8
					c-1.2-3.6-2.5-6.6-5.2-9.3c-2.4-2.4-5.8-4.2-8.6-6.2c2.5,2.5,5,5,7.5,7.5c-3.9-5.2-7.9-9.1-13.8-11.8c-4.8-2.2-9.6-4.7-14.7-6.2
					c-7.5-2.1-15.1-4.9-22.8-6.3c-16.2-2.9-32.5-5.6-48.8-8.5c-10.2-1.8-20.4,2.6-23.4,13.3C930.9,487.1,937.5,495.8,947.1,499.7
					L947.1,499.7z"/>
			</g>
		</g>
		<g>
			<g>
				<path class="st6" d="M948.5,488.8c1.6,1,4.7,6.3,7.8,7.6c3.8,1.6,7.7,3.3,11.5,5.1c9.2,4.2,19.2,6.4,28.9,9.4
					c8.4,2.6,16.6,6,25,8.3c4.2,1.1,8.4,2.4,12.7,3.6c7.2,2.1,13.8,1.3,21.1,0.2c7.1-1.1,13.1-8.4,14.9-14.9
					c2.2-7.8-0.4-14.9-5.5-20.8c-7.6-9-19.1-12.5-29.8-16.5c-8.1-3.1-17-4.7-25.5-6.6c-9.6-2.2-20.4-5.4-30.2-5.3
					c-4.3,0-8.6,0.1-12.9,0.2c-4.3,0.1-7.7,1.4-11.4,3.4c-0.8,0.5-1.6,1-2.4,1.5c1.3-0.4,1-0.3-0.9,0.1
					C939.8,466.3,938.9,483.2,948.5,488.8L948.5,488.8z"/>
			</g>
		</g>
		<g>
			<g>
				<path class="st6" d="M929.9,456.3c3.3,3.1,7.2,6,9.9,9.5c3.3,4.3,6.3,7.9,10.5,11.2c4.7,3.6,9.2,7.6,14.4,10.3
					c4.6,2.4,9.3,4.8,13.9,7.2c9.3,4.8,18.6,9.5,27.8,14.3c10.3,5.3,22.1,8.5,33.1,12.5c9,3.2,19.7-2,24.2-9.9
					c5.5-9.4,2.9-24.4-7.7-29.4c-10.5-5-21.1-11.1-32.1-14.6c-9.9-3.2-19.9-6.4-29.8-9.6c-5-1.6-9.9-3.2-14.9-4.8
					c-5.7-1.8-11.8-2.2-17.7-3c-5.1-0.7-9.5-0.3-14.6,0.4c-4.7,0.6-9.8,0-14.6-0.2C929.4,450.2,927.7,454.2,929.9,456.3L929.9,456.3
					z"/>
			</g>
		</g>
		<g>
			<g>
				<path class="st6" d="M915.7,429.5c2.6,5.1,4.8,9.9,9,14c5.1,5,11,8.9,16.9,13c1.1,0.8,2.2,1.5,3.2,2.3c1.8,1.3,2.1,1.6,1.1,0.7
					c2.4,2,4.6,4.2,7,6.3c5.7,5.2,11.3,10.9,18.4,14.2c12,5.5,26.1,3.5,33.2-8.7c6.5-11.2,2.9-26.9-8.7-33.2
					c-12.3-6.7-26.4-7-39.5-11.3c-6.2-2-12.2-4.3-18.6-5.3c-6.7-1.1-12.4-0.1-18.9,1C915.4,422.9,914.4,427,915.7,429.5L915.7,429.5
					z"/>
			</g>
		</g>
		<g>
			<g>
				<path class="st6" d="M937.2,449.1c8.5,5.3,15.2,12.6,23.6,18.1c8.2,5.4,16.5,10.7,24.7,16.1c8.2,5.4,17.4,9.2,26.2,13.5
					c5.6,2.7,11.3,5.9,17.2,7.9c8.1,2.7,14.4,2,22.1-1.6c6.1-2.9,9-11.4,7.2-17.6c-2.1-7.1-5.8-12.3-12.4-16
					c-5.5-3.1-11.5-5.2-17.3-7.5c-9-3.7-18-8.2-27.4-10.7c-9.4-2.5-18.9-5.1-28.3-7.6c-10.2-2.7-20.7-2.9-30.8-5.9
					C935.1,435.6,931.3,445.4,937.2,449.1L937.2,449.1z"/>
			</g>
		</g>
		<g>
			<g>
				<path class="st6" d="M983.4,475.8c4.1,9.3,15.3,11.1,24,14c6.6,2.2,13.1,4.5,19.6,7c6.3,2.4,13.5,3.5,20,5.4
					c8.3,2.4,19.2,3.1,26.8-1.8c4.7-3,6.5-7.9,5.4-13.3c-3.5-17.2-25.6-23.5-39.6-29.3c-6.8-2.9-14.9-3.9-22-5.4
					c-3.7-0.8-7.4-1.5-11.2-2.2c-8-1.5-14.3,0.1-20.5,5.4C979.9,460.8,980.5,469.2,983.4,475.8L983.4,475.8z"/>
			</g>
		</g>
		<g>
			<g>
				<path class="st6" d="M1011.9,474.9c1.8,3.2,3.5,5.9,6,8.7c3,3.3,7.9,4.5,11.9,5.7c6.3,1.9,12.6,3.9,18.9,5.8
					c6.6,2,14.7,3.5,21.6,3.6c5.6,0.1,15.4-4.4,17-10.4c1.6-5.8-4.7-14.8-9.5-17.3c-6.2-3.2-13.6-5.7-20.5-7
					c-6.5-1.2-13-2.4-19.5-3.6c-4.2-0.8-9.3-2.3-13.6-0.8c-3.6,1.3-6.4,2.9-9.6,4.9C1011.1,466.7,1009.7,471.2,1011.9,474.9
					L1011.9,474.9z"/>
			</g>
		</g>
		<g>
			<g>
				<path class="st6" d="M1067,490.7c15.3,8.7,39.8,19.7,56.5,8.8c14.6-9.5,15.2-30.4,0-39.9c-17.1-10.6-41.1,0.5-56.5,9.7
					C1059.2,474.1,1058.9,486.1,1067,490.7L1067,490.7z"/>
			</g>
		</g>
		<g>
			<g>
				<path class="st6" d="M1093.1,482.5c-1.7-0.9-3.5-1.7-5.2-2.6c1.1,2,2.3,4,3.4,5.9c0.5-8-6.7-15.8-13.4-19.5
					c-7-3.8-15.6-5.9-23.1-8.6c-6.9-2.5-13.9-4.5-21-6.4c-8.7-2.4-18.2-4.2-27-1c-12.1,4.4-15.3,17.4-7.2,27.2
					c5.4,6.5,13.7,9.9,21.6,12.1c7.1,1.9,14.1,3.9,21.4,5.2c7.2,1.3,14.5,2.7,21.7,4c8.8,1.6,21.6-0.7,26.1-9.5
					c-2,1.1-4,2.3-5.9,3.4c1.9,0.1,3.9,0.3,5.8,0.4C1095.8,493.4,1098.1,485,1093.1,482.5L1093.1,482.5z"/>
			</g>
		</g>
		<g>
			<g>
				<path class="st6" d="M991.4,471.1c5.1,3.4,10.7,4.6,16.5,6.4c2.2,0.7,4.3,1.5,6.5,2.3c1.9,0.8,2.1,0.9,0.6,0.2
					c1.6,0.7,3.1,1.4,4.6,2.2c3.3,1.6,5.8,2.1,9.2,2.7c3.3,0.6,7,2,10.4,1.9c6.1-0.1,12.8-1.6,14.9-8.1
					c4.1-12.8-12.8-25.4-22.6-29.3c-11.1-4.4-24.9-8.7-36.7-5.6C981.9,447.3,981,464.2,991.4,471.1L991.4,471.1z"/>
			</g>
		</g>
		<g>
			<g>
				<path class="st6" d="M1046,476.9c6.5,3.5,12.2,7.2,18,11.8c2.6,2.1,5.2,4.2,7.7,6.3c5.2,4.4,9.8,7.4,16.4,9
					c10.4,2.6,21.4-3.2,24.3-13.8c2.6-9.5-3.1-22.6-13.8-24.3c-6.1-1-11.7-1.7-17.8,0.2c-3.4,1-6.8,2.1-10.2,3
					c-3.4,0.9-6.8,1.9-10.2,2.8c-4.5,1.2-9.1,1.5-13.7,1.9C1045.3,474,1044.5,476.1,1046,476.9L1046,476.9z"/>
			</g>
		</g>
		<g>
			<g>
				<path class="st6" d="M1064.6,463.1c-2.8-2.3-5.5-4.8-9.2-5.8c-3.8-1-8.5-1.1-12.2-0.2c-6,1.6-10.3,7.3-10.3,13.5
					c0,6.8,4.4,11,10.3,13.5c6.3,2.6,13.6,0.6,19.1-2.8C1068.1,477.7,1070.6,468,1064.6,463.1L1064.6,463.1z"/>
			</g>
		</g>
		<g>
			<g>
				<path class="st6" d="M1057.1,483c3,1,6.4,1.8,9.2,3.2c3.9,1.9,6.9,4.3,11.1,5.7c7.4,2.5,15.6-2.8,17.6-10
					c1.9-6.9-2.3-16.3-10-17.6c-4.5-0.8-8.3-0.8-12.7-0.4c-3,0.3-6.6-0.9-9.6-1.3c-5.7-0.9-11.4,1.4-13,7.4
					C1048.1,475.8,1051.7,481.1,1057.1,483L1057.1,483z"/>
			</g>
		</g>
		<g>
			<g>
				<path class="st6" d="M1073.2,462c-8.4-2.4-17.9-6.3-26.6-3.6c-6.4,1.9-11,7.6-11,14.4c0,7.3,4.7,11.8,11,14.4
					c7.8,3.3,18.5-0.2,26.6-1.6c5.3-0.9,9-6.8,9-11.8C1082.1,468.3,1078.4,463.5,1073.2,462L1073.2,462z"/>
			</g>
		</g>
		<g>
			<g>
				<path class="st6" d="M1031.8,506.4c4.1,3.2,8.2,6.5,12.3,9.7c2.3,1.8,4.7,3.6,7,5.4c5.4,3.1,11.3,4.7,17.5,4.7
					c9.2,0,18.1-3.7,24.6-10.2c6.5-6.5,10.2-15.4,10.2-24.6c-0.4-3.1-0.8-6.2-1.2-9.2c-1.7-5.9-4.6-11-8.9-15.3
					c-4.1-3.2-8.2-6.5-12.3-9.7c-2.3-1.8-4.7-3.6-7-5.4c-5.4-3.1-11.3-4.7-17.5-4.7c-9.2,0-18.1,3.7-24.6,10.2
					c-6.5,6.5-10.2,15.4-10.2,24.6c0.4,3.1,0.8,6.2,1.2,9.2C1024.5,496.9,1027.4,502,1031.8,506.4L1031.8,506.4z"/>
			</g>
		</g>
		<g>
			<g>
				<path class="st6" d="M1007.1,537c5.1,3.7,11.4,4.6,17.4,6c10.2,2.4,19.2,3.3,28.7-2.3c6.1-3.6,10.6-9.5,12.5-16.3
					c2.8-10.3-0.8-18.5-7-26.5c-5.3-6.9-13.1-8.5-21.1-9.8c-8.2-1.3-15.7-2.9-24-0.8c-9.1,2.3-16.5,10-19,19
					C991.1,519,997.1,529.7,1007.1,537L1007.1,537z"/>
			</g>
		</g>
		<g>
			<g>
				<path class="st6" d="M1022.8,525.6c3.4,4,7.8,6.4,12.3,9c5.7,3.3,10.9,6.7,17.6,7.6c12.5,1.7,24.7-2.8,28.4-16.1
					c3.4-12.2-4-25-16.1-28.4c-3.9-1.1-7.8-2.2-11.9-1.7c-2.6,0.3-5.1,0.6-7.7,0.9c-6.9,0.8-13,1.4-19.4,4.5
					C1016.3,505.9,1016.8,518.6,1022.8,525.6L1022.8,525.6z"/>
			</g>
		</g>
		<g>
			<g>
				<path class="st6" d="M1047.4,525.9c2,2.1,4.1,4.1,6.1,6.3c-1.2-2.1-2.5-4.3-3.7-6.4c0.5,1.9,0.9,3.8,1.2,5.7
					c1,5.4,3.6,10.3,7.7,14.1c8.9,8.2,22.6,8.8,31.4,0c10.2-10.2,7.8-27.6-4.5-34.9c-4.3-2.5-9.7-4.4-14.8-3.8
					c-2.4,0.3-4.7,0.6-7.1,0.6c2.4,0.7,4.9,1.3,7.3,2c-2.6-1.3-5.2-2.7-7.8-4c-5.2-2.7-11.5-2.2-15.8,2
					C1042.4,512.5,1042.5,520.8,1047.4,525.9L1047.4,525.9z"/>
			</g>
		</g>
		<g>
			<g>
				<path class="st6" d="M1052.9,525.8c-1.5-1-2.2-2.8-3.1-4.3c-1.5-2.5-5.4-5.3-8.2-6c-6.2-1.4-12.8-3.3-18.6,0.1
					c-5.1,3.1-5.9,10-1.8,14.3c4.5,4.8,11.5,4.7,17.8,5.1c2.4,0.1,5.8-1.2,7.9-2.4c2.1-1.2,3.3-3.6,5.7-4.4
					C1053.7,527.9,1053.9,526.4,1052.9,525.8L1052.9,525.8z"/>
			</g>
		</g>
		<g>
			<g>
				<path class="st6" d="M946.8,540.2c2.6,3.8,4.6,6.4,8.6,8.7c4.3,2.5,8.1,2.7,12.9,3.3c4,0.5,10.7-0.4,13.9-1.6
					c4-1.1,7.4-3.1,10.4-6c4.4-4.4,6.9-10.4,6.9-16.6c0-9.6-7.1-21-17.2-22.6c-2.5-0.4-5-0.8-7.5-1c-2.5,0.2-5.1,0.6-7.6,1.1
					c-1.7,0.3-3.3,0.6-5,0.9C948,508.7,938.4,527.8,946.8,540.2L946.8,540.2z"/>
			</g>
		</g>
		<g>
			<g>
				<path class="st6" d="M943,547.7c5.9,0,11.6-2.4,15.7-6.5s6.5-9.9,6.5-15.7s-2.4-11.6-6.5-15.7s-9.9-6.5-15.7-6.5
					c-5.9,0-11.6,2.4-15.7,6.5s-6.5,9.9-6.5,15.7s2.4,11.6,6.5,15.7S937.2,547.7,943,547.7L943,547.7z"/>
			</g>
		</g>
		<g>
			<g>
				<path class="st6" d="M932,536c16.5,0,16.5-25.5,0-25.5C915.5,510.5,915.5,536,932,536L932,536z"/>
			</g>
		</g>
		<g>
			<g>
				<path class="st6" d="M913.5,543.1c4.7,0,9.3-1.9,12.7-5.2s5.2-7.9,5.2-12.7s-1.9-9.3-5.2-12.7c-3.3-3.3-7.9-5.2-12.7-5.2
					s-9.3,1.9-12.7,5.2c-3.3,3.3-5.2,7.9-5.2,12.7s1.9,9.3,5.2,12.7S908.8,543.1,913.5,543.1L913.5,543.1z"/>
			</g>
		</g>
		<g>
			<g>
				<path class="st6" d="M999.3,548.9c9.8,0,17.9-8.2,17.9-17.9s-8.2-17.9-17.9-17.9s-17.9,8.2-17.9,17.9S989.5,548.9,999.3,548.9
					L999.3,548.9z"/>
			</g>
		</g>
		<g>
			<g>
				<path class="st6" d="M1022.5,555.4c13.3,0,24.4-11.1,24.4-24.4s-11.1-24.4-24.4-24.4S998,517.6,998,531
					S1009.2,555.4,1022.5,555.4L1022.5,555.4z"/>
			</g>
		</g>
		<g>
			<g>
				<path class="st6" d="M1043.4,558.2c12.4,0,22.8-10.4,22.8-22.8c0-12.4-10.4-22.8-22.8-22.8c-12.4,0-22.8,10.4-22.8,22.8
					C1020.6,547.8,1031,558.2,1043.4,558.2L1043.4,558.2z"/>
			</g>
		</g>
		<g>
			<g>
				<path class="st6" d="M1060,562.6c11.3,0,20.6-9.4,20.6-20.6s-9.4-20.6-20.6-20.6c-11.3,0-20.6,9.4-20.6,20.6
					S1048.8,562.6,1060,562.6L1060,562.6z"/>
			</g>
		</g>
		<g>
			<g>
				<path class="st6" d="M1073,549.8c0.2,0.2,0.3,0.3,0.5,0.5c-0.5-1.3-1.1-2.6-1.6-3.9c-0.1,3.9,0.9,7.3,3.8,10
					c3.9,3.7,9.7,4.2,14.4,1.8c3.8-2,5.4-6.8,4.4-10.8c-1-3.9-4.6-7.5-8.5-8.5c-2.4-0.7-4.4-0.4-6.8,0c-2.2,0.4-4,2.2-5.6,3.6
					c1.3-0.5,2.6-1.1,3.9-1.6c-0.2,0-0.5,0-0.7,0C1072,540.5,1069.9,546.7,1073,549.8L1073,549.8z"/>
			</g>
		</g>
		<g>
			<g>
				<path class="st6" d="M1085.1,554.5c1.3,1.1,2.8,2.1,4,3.2c1.6,1.6,2.9,3.2,4.9,4.5c2.7,1.8,6.5,0.5,8-2.1c1.5-2.5,0.8-6.7-2.1-8
					c-1.9-0.9-3.6-1.3-5.7-1.7c-1.9-0.4-3.8-1.1-5.6-1.8C1085.3,547.3,1082.3,552.2,1085.1,554.5L1085.1,554.5z"/>
			</g>
		</g>
		<g>
			<g>
				<path class="st6" d="M1091.9,557.5c1.6,1.3,3.2,2.6,5,3.8c4,2.6,9.6,0.8,11.9-3.1c1.2-2,1.5-4.5,0.9-6.7c-0.8-3.1-3.2-5-6.1-6.1
					c-1.3-0.5-2.6-0.8-4-1.1c-3.4-0.9-7.1,0.5-8.9,3.6c-0.7,1.2-1.1,2.6-1.1,4C1089.6,553.8,1090.4,556.3,1091.9,557.5L1091.9,557.5
					z"/>
			</g>
		</g>
		<g>
			<g>
				<path class="st6" d="M1094.6,547.9c0.9,1.5,1.8,2.9,2.7,4.4c0.2,0.4,0.6,0.6,1.1,0.6c0.1,0,0.1,0,0.2,0c0.4,0,0.8-0.3,0.9-0.7
					c0-0.1,0-0.1,0.1-0.2c0.1-0.4,0-0.9-0.3-1.2c-1.1-1.3-2.3-2.6-3.4-3.8C1095.3,546.3,1094.2,547.2,1094.6,547.9L1094.6,547.9z"/>
			</g>
		</g>
		<g>
			<g>
				<path class="st6" d="M1098.1,556.9c0.7,0.9,1.5,1.8,2.2,2.7c0.8,1,1.6,2.2,2.6,2.9c1.9,1.5,4.4,1.9,6.3,0c1.9-1.9,1.5-4.4,0-6.3
					c-0.7-0.9-1.7-1.6-2.6-2.3c-1-0.8-2-1.7-3-2.5c-1.6-1.4-3.9-1.6-5.5,0C1096.5,553,1096.7,555.3,1098.1,556.9L1098.1,556.9z"/>
			</g>
		</g>
		<g>
			<g>
				<path class="st6" d="M1106,565.5c2,1.7,4,3.6,6.3,5c2.1,1.3,5,0.9,6.7-0.9c2-2,2.3-5.8,0-7.8c-2-1.8-4.4-3.1-6.6-4.6
					c-2-1.3-4.8-0.8-6.4,0.8C1104.1,559.9,1103.8,563.6,1106,565.5L1106,565.5z"/>
			</g>
		</g>
		<g>
			<g>
				<path class="st6" d="M1096.8,561.1c0.4,0.5,0.8,1,1.2,1.5c0.9,0.9,1.9,1.5,3.1,1.8c0.2,0,0.3,0.1,0.5,0.1
					c-0.6-0.2-1.1-0.5-1.7-0.7c0.2,0.1,0.3,0.2,0.4,0.3c1.1,0.6,2.2,0.9,3.4,0.9c1.2,0,2.4-0.3,3.4-0.9c1-0.6,1.8-1.4,2.5-2.5
					c0.2-0.5,0.5-1.1,0.7-1.6c0.3-1.2,0.3-2.4,0-3.6c-0.7-1.8-0.9-2.2-2.1-3.6c-0.5-0.5-1.3-1.1-1.7-1.4c-1.1-0.6-2.3-1-3.6-1
					c-0.7,0.1-1.3,0.2-2,0.3c-1.7,0.3-3.4,1.8-4.2,3.2c-0.6,1.1-1,2.3-1,3.6C1095.8,558.8,1096.1,560,1096.8,561.1L1096.8,561.1z"/>
			</g>
		</g>
		<g>
			<g>
				<path class="st6" d="M1102.4,547.5c-0.5-1.1-1-2.3-1.5-3.4c-0.7-1.7-1.4-3.5-3.2-4.3c-2.5-1.1-5.8-0.4-6.5,2.7
					c-0.6,2.3,0.3,4,1.4,5.9c0.7,1.2,1.4,2.5,2.1,3.7c1.2,2.1,4.1,2.8,6.2,1.6C1103.1,552.3,1103.4,549.7,1102.4,547.5L1102.4,547.5
					z"/>
			</g>
		</g>
		<g>
			<g>
				<path class="st6" d="M1117.4,570c4.8,0,4.8-7.4,0-7.4C1112.6,562.6,1112.6,570,1117.4,570L1117.4,570z"/>
			</g>
		</g>
		<g>
			<g>
				<path class="st6" d="M1125.1,579c6.4,0,6.4-9.9,0-9.9C1118.7,569,1118.7,579,1125.1,579L1125.1,579z"/>
			</g>
		</g>
		<g>
			<g>
				<path class="st6" d="M1119.6,570.5c4,0,4-6.2,0-6.2C1115.6,564.3,1115.6,570.5,1119.6,570.5L1119.6,570.5z"/>
			</g>
		</g>
		<g>
			<g>
				<path class="st6" d="M211.1,500.2c40-2.2,80.1-4.4,120.1-6.6c-1.2-2.8-2.3-5.7-3.5-8.5c-8.6,6.9-19.2,10.2-30.2,9.8
					c-5.5-0.2-6.9,8.8-1.3,9.8c8.6,1.4,17.1,2.8,25.7,4.2c0.4-3.3,0.9-6.5,1.3-9.8c-5.2-0.1-10.4-0.3-15.7-0.4
					c-6.4-0.2-6.4,9.7,0,9.9c7.7,0.3,15.4,0.6,23.2,0.8c6.5,0.2,6.2-9.3,0-9.9c-16.3-1.7-32.6-3.3-48.8-5c-5.6-0.6-6.8,8.7-1.3,9.8
					c4.7,0.9,9.4,1.8,14.2,2.8c0-3.2,0-6.4,0-9.6c-3,0.9-6,1.8-9,2.8c-6.2,1.9-3.6,10.9,2.6,9.6c1.9-0.4,3.8-0.8,5.7-1.2
					c6.2-1.4,3.6-11-2.6-9.6c-1.9,0.4-3.8,0.8-5.7,1.2c0.9,3.2,1.8,6.4,2.6,9.6c3-0.9,6-1.8,9-2.8c4.4-1.3,5.1-8.6,0-9.6
					c-4.7-0.9-9.4-1.8-14.2-2.8c-0.4,3.3-0.9,6.5-1.3,9.8c16.3,1.7,32.6,3.3,48.8,5c0-3.3,0-6.6,0-9.9c-7.7-0.3-15.4-0.6-23.2-0.8
					c0,3.3,0,6.6,0,9.9c5.2,0.1,10.4,0.3,15.7,0.4c5.5,0.1,6.9-8.8,1.3-9.8c-8.6-1.4-17.1-2.8-25.7-4.2c-0.4,3.3-0.9,6.5-1.3,9.8
					c13.8,0.5,26.6-4.1,37.3-12.7c3.4-2.7,0.6-8.7-3.5-8.5c-40,2.2-80.1,4.4-120.1,6.6C204.7,490.6,204.7,500.5,211.1,500.2
					L211.1,500.2z"/>
			</g>
		</g>
		<g>
			<g>
				<path class="st6" d="M144.1,503.9c6.2-0.3,12.3-0.7,18.5-1c6.4-0.3,6.4-10.3,0-9.9c-6.2,0.3-12.3,0.7-18.5,1
					C137.7,494.3,137.7,504.2,144.1,503.9L144.1,503.9z"/>
			</g>
		</g>
		<g>
			<g>
				<path class="st6" d="M74.2,372.3c11.1,8.8,23.6,15.3,37.3,19.1c5,1.4,8.1-4.7,4.8-8.3c-1.6-1.8-3.2-3.6-4.8-5.4
					c-2,2.6-4,5.2-6,7.8c1.3,0.6,2.6,1.3,3.9,1.9c4.7,2.3,10.7-4.1,6-7.8c-2.1-1.7-4.3-3.4-6.4-5.1c-3.5-2.8-8-1-8.5,3.5
					c-0.1,1.1-0.2,2-0.5,3.1c-0.2,0.7,0.7-0.8,1.3-0.9c-2,0.2-4.2-0.3-6.2-0.4c-3.9-0.3-5.9,4.4-4.3,7.5c2,3.8,4.1,7.6,6.1,11.3
					c2.6-2,5.2-4,7.8-6c-1.9-1.9-3.9-3.9-5.8-5.8c-3.3-3.3-10.2,0-8.3,4.8c1.5,3.8,3.1,7.6,4.6,11.3c3-1.3,6.1-2.6,9.1-3.8
					c-3.7-6.7-7.5-13.4-11.2-20.1c-1,2.4-2,4.9-3,7.3c2.3-0.5,5.4,3.7,7,5.1c3.8,3.2,8.6,4.8,13.3,2.4c4.5-2.3,12.4-9.6,9.1-15.1
					c-3.2-5.4-10.8-5.3-15.8-2.7c-5.7,3-0.7,11.3,5,8.6c2-1,3.8-2.1,5.8-3.1c4.7-2.4,2.1-9-2.5-9.3c-3.6-0.2-7.2-0.4-10.8-0.6
					c-6.4-0.4-6.4,9.6,0,9.9c3.6,0.2,7.2,0.4,10.8,0.6c-0.8-3.1-1.7-6.2-2.5-9.3c-2,1-3.8,2.2-5.8,3.1c1.7,2.9,3.3,5.7,5,8.6
					c0.3-0.2,0.6-0.3,1-0.3c2.1-0.3,1.1,0.7,0.9-0.9c0.2-1.3,0.3-2.6,0.5-3.8c-1.2,1.7-3.4,5.6-5.8,5.7c-0.9,0-3-2.4-3.8-3.2
					c-4-3.8-8.3-6.5-14-5.2c-3.2,0.7-4.5,4.6-3,7.3c3.7,6.7,7.5,13.4,11.2,20.1c2.7,4.8,11.2,1.5,9.1-3.8c-1.5-3.8-3.1-7.6-4.6-11.3
					c-2.8,1.6-5.5,3.2-8.3,4.8c1.9,1.9,3.9,3.9,5.8,5.8c4.1,4,10.5-1.1,7.8-6c-2-3.8-4.1-7.6-6.1-11.3c-1.4,2.5-2.9,5-4.3,7.5
					c3.6,0.3,7.6,1.1,10.9-0.9c3.7-2.2,4-7,4.3-10.8c-2.8,1.2-5.7,2.3-8.5,3.5c2.1,1.7,4.3,3.4,6.4,5.1c2-2.6,4-5.2,6-7.8
					c-1.3-0.6-2.6-1.3-3.9-1.9c-5.1-2.5-9.9,3.5-6,7.8c1.6,1.8,3.2,3.6,4.8,5.4c1.6-2.8,3.2-5.5,4.8-8.3c-12-3.3-23.2-8.8-32.9-16.5
					C76.3,361.3,69.2,368.3,74.2,372.3L74.2,372.3z"/>
			</g>
		</g>
		<g>
			<g>
				<path class="st6" d="M137.3,378.1c-15.6-6.3-31.6-11.6-47.8-16.1c-4-1.1-8.1,3.6-5.6,7.3c4.8,7,9.5,13.9,14.3,20.9
					c2.6-2,5.2-4,7.8-6c-5.6-4.8-11.3-9.7-16.9-14.5c-4.8-4.1-11.5,2.3-7,7c2.4,2.6,4.8,5.1,7.2,7.7c2.3-2.3,4.7-4.7,7-7
					c-4.9-4-9.9-8-14.8-12c-4.9-4-12,3-7,7c4.9,4,9.9,8,14.8,12c4.9,4,11.5-2.3,7-7c-2.4-2.6-4.8-5.1-7.2-7.7c-2.3,2.3-4.7,4.7-7,7
					c5.6,4.8,11.3,9.7,16.9,14.5c4,3.5,11.2-1.1,7.8-6c-4.8-7-9.5-13.9-14.3-20.9c-1.9,2.4-3.7,4.9-5.6,7.3
					c16.2,4.5,32.2,9.9,47.8,16.1C140.6,390,143.1,380.4,137.3,378.1L137.3,378.1z"/>
			</g>
		</g>
		<g>
			<g>
				<path class="st6" d="M132.1,386c1.7-0.1,2.5,0,4-0.9c1.6-0.9,2.7-1.6,4.5-1.9c4-0.8,3.8-6.9,0-7.8c-5.7-1.3-11.5-2.7-17.2-4
					c-0.8,3-1.6,5.9-2.5,8.9c2.4,0.6,4.9,1,7.4,1.3c5.3,0.6,6.3-8,1.2-9.2c-2.4-0.6-4.9-0.9-7.4-1.1c-5.2-0.4-6.4,8.2-1.2,9.1
					c5.8,1,11.7,1.9,17.5,2.9c0-2.6,0-5.2,0-7.8c-2.3,0.6-4.4,1.6-6.3,3.1c-2.3,1.8-2.5,3.4-2.1,6.1
					C130.2,385.3,131.3,386,132.1,386L132.1,386z"/>
			</g>
		</g>
		<g>
			<g>
				<path class="st6" d="M387.3,463c1.4-4,1.2-9.1,1.6-13.4c-2.2,1.3-4.4,2.5-6.5,3.8c2.2,0.9,2.8,2.2,2.9,4.5
					c0.1,1.9,0.5,3.6,2.2,4.7c1.4,1,3.6,0.6,4.8-0.6c5.4-5.5-0.4-14.6-6.5-16.5c-2.7-0.9-5.5,1.4-5.5,4.2c0,4.3-0.6,9.2,0.4,13.4
					C381.6,466.5,386.2,466,387.3,463L387.3,463z"/>
			</g>
		</g>
		<g>
			<g>
				<path class="st6" d="M395.2,501.3c-1.7,2.5,0.8,5,3.2,5.6c2.1,0.6,4.5-0.1,6-1.7c-0.8,0.3-1.6,0.6-2.3,1
					c2.3,0.2,3.7-1.5,4.3-3.5c0.6-1.8,0.2-3.8-1-5.2c-0.9-1-2.4-1.3-3.6-1c-1.4,0.4-2.1,1.4-2.6,2.6c-0.2,0.5-0.2,1-0.2,1.5
					c0,0.9,0.2-0.9,0,0c-0.3,1.4-0.5,2.5,0.3,3.9c0-1.1,0-2.2,0-3.3c0.1-0.2,0.2-0.4,0.4-0.5c-0.6,0.5,0.6-0.1-0.2,0.1
					c0.4,0,0.4-0.1,0.1,0c0.7,0,0,0-0.2-0.1c0.9,0.3-0.9-0.3-1.2-0.4C397,500,395.8,500.4,395.2,501.3L395.2,501.3z"/>
			</g>
		</g>
		<g>
			<g>
				<path class="st6" d="M384,502.4c-1.6-2.3-4.1-2.1-6.6-2c-4,0.2-8.1,0.1-12-0.2c-6.3-0.5-6.2,9.3,0,9.8c4,0.3,8,0.5,11.9,0.4
					c6.6-0.1,6.6-9.9,0-10.2c-4-0.2-8-0.2-11.9,0c0.4,3.2,0.9,6.4,1.3,9.6C368.8,509.2,386.8,506.6,384,502.4L384,502.4z"/>
			</g>
		</g>
		<g>
			<g>
				<path class="st6" d="M1131.8,461.7c-6.7,2.6-12.6,3.7-19.9,3c-8.1-0.7-16.2-2.6-24.2-4.1c-9.1-1.8-18.2-3.4-27.3-5.1
					c-7.7-1.4-16.9-4.6-24.3-1.1c-1.7,0.8-1.7,3.2-0.6,4.4c6,6.3,17.7,6.4,25.9,7.9c9.7,1.8,19.5,3.5,29.3,5.2
					c14.3,2.4,32.3,5.9,44.6-4.2C1138.1,465.6,1135.2,460.4,1131.8,461.7L1131.8,461.7z"/>
			</g>
		</g>
		<g>
			<g>
				<path class="st6" d="M187.3,493.2c-5.9-1.8-12.4-1.4-18.5-1.4c-6.6-0.1-13.2,0-19.8-0.2c0,3.1,0,6.2,0,9.3
					c6.5-0.4,12.8-1.5,19.3-1.8c6.4-0.2,14.1,2.1,20.2,0.2c2.9-0.9,3.3-4.6,0.8-6.2c-5.1-3.5-13.2-2.8-19.1-3
					c-7.4-0.3-15.3-0.2-22.5,1.7c-5,1.3-4.1,9.4,1.2,9.2c6.6-0.3,13.2-0.4,19.8-0.6c6.1-0.2,12.7,0.1,18.5-1.8
					C189.9,497.6,190,494,187.3,493.2L187.3,493.2z"/>
			</g>
		</g>
		<g>
			<g>
				<path class="st6" d="M161.8,502.5c11.9,0.5,23.9,1,35.9,0.6c6.7-0.2,6.7-10.1,0-10.4c-6.6-0.3-13.2-0.5-19.9-0.8
					c-6.9-0.2-6.6,9.9,0,10.6c8.3,0.8,16.5,1.7,24.8,2.5c0-3.5,0-7,0-10.6c-9.9-0.6-19.8-1.2-29.7-2c-5.3-0.4-10.6-0.8-15.8-1.2
					c-5-0.4-9.3-0.9-13.9,1.4c-2.8,1.4-2.3,5.3,0,6.8c3.6,2.5,7.6,2.6,11.9,2.8c5.3,0.3,10.6,0.6,15.8,0.8
					c10.6,0.6,21.1,1.2,31.7,1.9c6.9,0.5,6.6-9.9,0-10.6c-8.3-0.8-16.5-1.7-24.8-2.5c0,3.5,0,7,0,10.6c6.6,0.2,13.2,0.4,19.9,0.6
					c0-3.5,0-6.9,0-10.4c-12,0.5-24,2-35.9,3.5C157.9,496.7,157.7,502.3,161.8,502.5L161.8,502.5z"/>
			</g>
		</g>
		<g>
			<g>
				<path class="st6" d="M147.9,501.1c6.8,1.5,13.1,4.2,19.7,6.3c0.4-3.2,0.9-6.3,1.3-9.5c-4-0.1-8,0-12-0.5c0.5,3.6,1,7.2,1.5,10.8
					c9.8-3.6,19.7-4,29.7-0.9c0.5-3.8,1-7.5,1.5-11.3c-7.2,0.3-14.1-0.2-21.2-1.3c-6-1-13.1-4.4-19.1-2.3c-2.9,1-3.5,4.1-1.7,6.4
					c4.3,5.4,13.4,5.8,19.8,6.8c7.4,1.2,14.8,1.6,22.3,2c6.8,0.3,7.4-9.3,1.5-11.3c-12.3-4.3-25.2-3.4-37,1.9
					c-6.2,2.8-1.4,10.9,4.2,10c3.5-0.5,7-0.5,10.5-0.6c6.2-0.3,6.2-9.4,0-9.7c-6.7-0.3-13.2,0.1-19.9-0.9
					C146.4,496.7,145.2,500.5,147.9,501.1L147.9,501.1z"/>
			</g>
		</g>
		<g>
			<g>
				<path class="st6" d="M161.1,503.9c-6.2-4.4-13.4-5.7-20.7-7.4c-0.4,3.2-0.9,6.3-1.3,9.5c2.9-0.3,5.9-0.6,8.8-0.9
					c6.3-0.7,6.4-9.4,0-9.9c-6.6-0.5-13.2-1.1-19.8-1.4c0.5,3.3,0.9,6.7,1.4,10c4.8-1.6,9.6-3.2,14.4-4.7c3.7-1.2,4.4-5.2,2.1-8
					c-2.4-3-6.1-4.1-9.7-3c1.7,2.2,3.4,4.5,5.1,6.7c0.5-0.7,1-1.3,1.5-2c1.8-2.3,1.6-6.3-1.9-7.1c-5.4-1.2-10.7-2.2-16.2-2.9
					c-1.9-0.2-3.3,1.4-3.9,3c-0.5,0.2-1.1,0.5-1.6,0.7c-3.1-0.2-5.6,3.9-3.7,6.5c1.1,1.6,1.8,2.5,3.4,3.7c4.5,3.5,9.7-1.7,6.2-6.2
					c-1.2-1.5-2.1-2.2-3.7-3.4c-0.7,2.7-1.5,5.4-2.2,8c4.7-0.3,8-2.6,9.5-7.2c-1.7,0.9-3.3,1.9-5,2.8c5,1.3,9.9,2.3,15,3.1
					c-0.6-2.4-1.3-4.7-1.9-7.1c-0.8,0.9-1.7,1.7-2.6,2.5c-2.9,2.6-0.7,8,3.2,7.8c0.3,0,0.6-0.1,0.9-0.1c1-2.4,1.9-4.7,2.9-7.1
					c-4.9,1.4-9.7,2.8-14.6,4.2c-5.8,1.6-4.2,9.6,1.4,10c6.6,0.5,13.2,0.7,19.8,1c0-3.3,0-6.6,0-9.9c-2.9,0.4-5.9,0.8-8.8,1.2
					c-4.9,0.7-7.1,8.3-1.3,9.5c3.8,0.8,7.7,1.4,11.5,2.1c4.1,0.7,7.2,0.5,11.3-0.3C162.5,507.2,162.4,504.8,161.1,503.9L161.1,503.9
					z"/>
			</g>
		</g>
		<g>
			<g>
				<path class="st6" d="M121.2,499.1c2.4,0.4,4.5,0.7,6.9,0.6c6.1-0.4,5.9-10.1,0-9.4c-4.1,0.5-8.2,1.2-12.2,1.8
					c1.1,2.7,2.3,5.5,3.4,8.2c2.3-1.1,4.2-2.8,6.7-3.4c2.1-0.5,2.5-3.6,0.6-4.6c-4.6-2.5-9.9-1.2-14.4,0.8c-3.8,1.7-1.7,7.3,2,7.4
					c1.1,0.1,2.3,0,3.4-0.1c-0.8-2-1.7-4.1-2.5-6.1c-0.6,0.3-1.2,0.4-1.9,0.4c-1.3,0.2-2.2,0.7-2.6,2c-0.2,0.5-0.4,1-0.6,1.5
					c-0.6,1.7,1,3.4,2.6,3.4c0.9,0,1.9,0,2.8,0.1c-0.2-1.8-0.5-3.6-0.7-5.3c-2.4,0.6-4.9,1.2-7.3,1.7c-2.7,0.6-2.9,5.1,0,5.7
					c0.6,0.1,1.1,0.2,1.7,0.3c0-1.9,0-3.9,0-5.8c-5.4,1.2-13.5,1.2-16.9,5.8c-1.1,1.5,0.2,3.2,1.6,3.8c4.8,2,12.3-2.3,17-3.8
					c3.4-1.1,2.5-5.6-0.8-5.9c-0.6-0.1-1.1-0.1-1.7-0.2c0.3,1.9,0.5,3.8,0.8,5.8c2.4-0.7,4.8-1.4,7.2-2.1c3-0.9,2.4-5.3-0.7-5.3
					c-0.9,0-1.9,0-2.8-0.1c0.9,1.1,1.7,2.3,2.6,3.4c0.2-0.5,0.4-1,0.6-1.5c-0.9,0.7-1.7,1.3-2.6,2c0.9-0.2,1.8-0.2,2.6-0.2
					c4.7,2.5,7.7-5.3,2.8-6.5c-1.1-0.3-2.2-0.5-3.3-0.7c0.3,2.4,0.6,4.8,0.9,7.2c3.2-1.8,6.4-2,9.8-3.1c-0.4-1.6-0.9-3.2-1.3-4.9
					c-2.5,0.6-5.1-0.1-7.6-0.1c-5.9,0-5.6,9.6,0,8.9c4.1-0.5,8.2-0.8,12.3-1.4c-0.8-3-1.7-6-2.5-9.1c-2.3,0.9-4.2,2-6.3,3.5
					C118.8,495.2,118.6,498.7,121.2,499.1L121.2,499.1z"/>
			</g>
		</g>
		<g>
			<g>
				<path class="st6" d="M88.9,509.4c5.3-0.5,10.6-2.4,15.9-2.2c7.3,0.3,4.6-12.4-2.3-8.5c-4.4,2.4-9.7,3-14.4,4.8
					C85.1,504.6,85.3,509.8,88.9,509.4L88.9,509.4z"/>
			</g>
		</g>
		<g>
			<g>
				<path class="st6" d="M97.3,506c2.9,2.7,6.9,2.9,10.7,3c5,0.2,11,1.1,15.7-0.7c4-1.5,4.1-6.9,0-8.3c-4.2-1.5-9.5-0.8-13.9-0.6
					c-4.3,0.2-9.3,0.1-12.6,3.3C96.4,503.6,96.4,505.2,97.3,506L97.3,506z"/>
			</g>
		</g>
		<g>
			<g>
				<path class="st6" d="M109.9,505.1c7,0.8,13.8,1.8,20.9,1.3c6.6-0.4,6.6-10.7,0-10.2c-7.5,0.5-14.3,2.4-21.5,4.1
					C106.4,501,107.3,504.8,109.9,505.1L109.9,505.1z"/>
			</g>
		</g>
		<g>
			<g>
				<path class="st6" d="M120.4,503.2c4.4,1.6,8.6,1.8,13.3,1.9c4.2,0.1,9.2,1,12.7-1.6c2.1-1.5,2.3-4.4,0-5.9
					c-3.7-2.4-8.5-1.4-12.7-1.1c-4.8,0.3-8.9,0.7-13.3,2.5C118.5,499.9,118.3,502.4,120.4,503.2L120.4,503.2z"/>
			</g>
		</g>
		<g>
			<g>
				<path class="st6" d="M121.5,505.5c3.2-0.1,6.3,0,9.5,0.2c3.6,0.2,6.5,0.7,8.8-2.5c0.9-1.3,0.4-3-0.5-4c-2.3-2.5-5.1-1.7-8.2-1.2
					c-3.2,0.5-6.4,1-9.7,1.3C117.6,499.7,117.4,505.6,121.5,505.5L121.5,505.5z"/>
			</g>
		</g>
		<g>
			<g>
				<path class="st6" d="M212.4,501.9c2.1,2.5,6.1,2,9,1.8c3.1-0.2,6.2-0.9,7.8-3.8c0.3-0.6,0.2-1.1-0.2-1.6
					c-2.2-2.7-5.6-2.5-8.7-2.1c-2.9,0.4-6.6,0.7-8.1,3.6C211.7,500.6,211.8,501.3,212.4,501.9L212.4,501.9z"/>
			</g>
		</g>
		<g>
			<g>
				<path class="st6" d="M374.8,506.9c1,1.9,2.9,2.9,4.8,3.6c2.1,0.8,4.4,2.1,6.7,1.2c2.3-0.9,4.3-3.8,2.5-6.2
					c-1-1.3-1.9-2.2-3.5-2.6c-0.9-0.2-1.9-0.4-2.8-0.6c-2.2-0.5-4.5-0.7-6.5,0.5C374.4,503.6,374.1,505.4,374.8,506.9L374.8,506.9z"
					/>
			</g>
		</g>
		<g>
			<g>
				<path class="st6" d="M407.1,503.8c-1.2-2-3.1-2.8-5.2-3.6c-2.6-1-5.1-1.9-8-1.9c-3.3,0-5.3,5.3-1.8,6.8c2.6,1.1,5.1,1.4,7.9,1.5
					c2.4,0.1,4.6,0.3,6.7-1.2C407.2,505.1,407.5,504.4,407.1,503.8L407.1,503.8z"/>
			</g>
		</g>
		<g>
			<g>
				<path class="st6" d="M650.5,434.6c5.9,2.6,11.6,3.3,18,3.9c7.5,0.7,15.4,3.4,22.9,3.2c3.9-0.1,5.9-5.8,2.1-7.7
					c-6.3-3.2-14.2-3.5-21.1-4.2c-7.8-0.8-14.8-0.9-21.9,2.5C649.6,432.6,649.6,434.2,650.5,434.6L650.5,434.6z"/>
			</g>
		</g>
		<g>
			<g>
				<path class="st6" d="M656.9,440.5c3.5,1.8,7.3,1.7,11.2,1.7c4.2,0,9.2,1,12.9-1.3c2-1.3,2-4.1,0-5.4c-3.2-2.1-7.5-1.5-11.2-1.6
					c-4.4-0.1-8.7-0.5-12.8,1.5C654.9,436.3,655,439.5,656.9,440.5L656.9,440.5z"/>
			</g>
		</g>
		<g>
			<g>
				<path class="st6" d="M639.6,435.2c4.3,2.4,9.2,1.8,13.9,2.2c3.3,0.2,6.6,0.7,9.8,1.3c2.8,0.5,4.6,1.3,7.3,0.2
					c2.2-0.9,3-3.3,1.4-5.2c-3.3-3.9-10.1-3.6-14.9-4.1c-5.6-0.6-12.8-1.5-17.6,2C638.3,432.4,638.1,434.3,639.6,435.2L639.6,435.2z
					"/>
			</g>
		</g>
		<g>
			<g>
				<path class="st6" d="M651.3,433.1c-4.4-0.9-8.5-2.5-13-3.4c-4.4-0.9-8.9-1.4-13.4-2.2c-4.4-0.7-8.9-1.4-13.3-2.2
					c-3.9-0.6-8.2-2-11.7,0.4c-1.2,0.8-1.3,2.2-0.4,3.4c2.4,3.1,6.4,3.2,10,3.7c4.5,0.7,8.9,1.4,13.4,2c4.5,0.7,8.9,1.4,13.4,2
					c4.8,0.7,9.6,0.3,14.4,0.8C653.3,438.1,653.9,433.6,651.3,433.1L651.3,433.1z"/>
			</g>
		</g>
		<g>
			<g>
				<path class="st6" d="M666.1,440.2c10,0.3,19.9,3.4,29.9,4.4c4.6,0.5,9.3,0.9,13.9,1.4c4.4,0.4,9.2,1.4,13.2-0.7
					c1.8-0.9,1.4-3.3,0-4.3c-3.2-2.3-7.4-2-11.2-2.3c-5.3-0.5-10.6-0.5-15.9-0.8c-9.9-0.5-20,1.1-29.9-0.1
					C664.6,437.6,664.5,440.1,666.1,440.2L666.1,440.2z"/>
			</g>
		</g>
		<g>
			<g>
				<path class="st6" d="M711.4,443.5c4.4,2,8.6,3.6,13.3,4.9c4.1,1.1,9.8,3.8,13.5,0.9c0.8-0.6,1.3-1.7,0.7-2.7
					c-2-3.5-5.7-3.5-9.5-3.9c-6-0.7-11.6-1.2-17.6-0.9C711.1,441.8,710.6,443.1,711.4,443.5L711.4,443.5z"/>
			</g>
		</g>
		<g>
			<g>
				<path class="st6" d="M1105,555.9c0.6,1.2,1.3,1.9,2,3c0.6,1,0.5,2.6,1.5,3.9c2,2.7,5.5,2.2,6.8-0.9c1-2.5-0.7-5.3-2.2-7.2
					c-1.4-1.8-3.3-3-5.7-3C1105.3,551.7,1104,554,1105,555.9L1105,555.9z"/>
			</g>
		</g>
		<g>
			<g>
				<path class="st6" d="M1101.6,552c2,3.9,3.5,9.1,7.1,11.8c2.3,1.7,4.9-1.1,4.4-3.4c-0.5-2.3-2.1-4.1-3.6-5.8
					c-1.5-1.8-3-3.5-4.4-5.3C1103.5,547.2,1100.6,549.8,1101.6,552L1101.6,552z"/>
			</g>
		</g>
		<g>
			<g>
				<path class="st6" d="M884.6,472.6c4.4,7.9,8.1,17.4,14.8,23.7c1.5,1.4,3.9,0,3.4-2c-1.9-9-8.1-17.1-12.7-25
					C888.1,465.8,882.7,469,884.6,472.6L884.6,472.6z"/>
			</g>
		</g>
		<g>
			<g>
				<path class="st6" d="M887.5,480c4.3,4.6,8.8,10,14.4,13.1c2.6,1.4,4.7-1.3,3.7-3.7c-2.5-5.9-7.6-10.9-11.7-15.7
					C890.1,469.3,883.5,475.8,887.5,480L887.5,480z"/>
			</g>
		</g>
		<g>
			<g>
				<path class="st6" d="M886.4,478.6c3.6,4.8,7.5,9.3,11.9,13.3c3.7,3.4,9.9,9.4,15.3,8.8c2.3-0.2,3.7-2.8,1.9-4.6
					c-0.4-0.4-0.8-0.8-1.1-1.2c-0.9-1-2.8-0.5-3,0.8c-0.1,0.5-0.2,1.1-0.4,1.6c1.7,0,3.5,0,5.2,0c-1.8-4.5-7.2-7.2-10.9-10.3
					c-4.4-3.7-8.3-8.1-11.7-12.7C890.6,470,883.2,474.2,886.4,478.6L886.4,478.6z"/>
			</g>
		</g>
		<g>
			<g>
				<path class="st6" d="M893.2,481.5c4.2,4.1,8.4,8,12.8,11.8c1.6,1.4,6.6,7.4,9.2,4.8c2.6-2.6-3.4-7.6-4.8-9.2
					c-3.9-4.4-7.8-8.6-11.9-12.8C895.1,472.7,889.7,478.1,893.2,481.5L893.2,481.5z"/>
			</g>
		</g>
		<g>
			<g>
				<path class="st6" d="M888.8,478.8c2.5,2.7,4.9,5.4,7.4,8.1c2.5,2.7,5.2,5.7,8.6,7.2c2.1,0.9,4.1-1.6,3.5-3.5
					c-0.9-3.2-3.6-5.8-5.6-8.4c-2.5-3.2-5.4-6.1-8-9.2C891.1,468.8,885.1,474.8,888.8,478.8L888.8,478.8z"/>
			</g>
		</g>
		<g>
			<g>
				<path class="st6" d="M391.1,456.2c0,1.1,0.4,1.9,0.7,2.9c0.5,1.4,1.1,2.5,2.5,2.9c0.8,0.3,1.9-0.2,2.3-0.9
					c0.6-1.3,0.4-2.4-0.2-3.6c-0.5-1-0.9-2-1.7-2.8C393.5,453.4,391.1,454.3,391.1,456.2L391.1,456.2z"/>
			</g>
		</g>
	</g>
	<g>
		<g>
			<path class="st6" d="M98.8,473.2c-3.8,1-4.4,5-5.7,8.4c-1.5,3.8-3.3,7.6-3.6,11.8c-0.3,4.1,5,4.7,7,1.9c2.2-2.9,3.1-6.7,4.3-10.1
				c1.1-3.3,3.6-7.4,1.3-10.6C101.3,473.5,100.1,472.9,98.8,473.2L98.8,473.2z"/>
		</g>
	</g>
	<g>
		<g>
			<path class="st6" d="M110.8,478.8c-3,4.4-6.1,8.7-9.1,13.1c-1.4,2-6,7.7-2.3,9.9c3.3,1.9,6-3,7.4-5c3.4-4.7,6.2-9.9,9.3-14.8
				C118.5,478.5,113.1,475.5,110.8,478.8L110.8,478.8z"/>
		</g>
	</g>
	<g>
		<g>
			<path class="st6" d="M110.9,479.1c-4,0.5-7.5,1.4-10.9,3.6c-1.7,1.1-3.5,2.5-4.7,4.1c-1.2,1.7-1.1,2.6-0.9,4.4
				c0.1,0.9,0.7,1.4,1.6,1.2c-0.8-0.3-0.8-0.3,0.1,0.1c0.8,0.2,1.5,0.1,2.2-0.3c1.6-0.8,2.9-2.1,4.3-3.3c2.5-2.1,6-3.9,9.1-4.9
				C114.1,483.3,113.9,478.7,110.9,479.1L110.9,479.1z"/>
		</g>
	</g>
	<g>
		<g>
			<path class="st6" d="M103.8,477.4c-2.6,3-5.2,6-7.7,9c-2.4,2.8-5.2,5.5-5.7,9.3c-0.1,1.2,1.3,2.2,2.4,1.8c3.2-1.1,5-3.9,7-6.6
				c2.6-3.5,5.2-7.1,7.9-10.6C109.3,478.1,105.6,475.3,103.8,477.4L103.8,477.4z"/>
		</g>
	</g>
	<g>
		<g>
			<path class="st6" d="M102.6,477.2c-1.4,5-3,9.9-4.3,15c-1,4,5.2,5.7,6.1,1.7c1.2-5.1,1.9-10.2,2.9-15.3
				C107.9,475.5,103.4,474.2,102.6,477.2L102.6,477.2z"/>
		</g>
	</g>
	<g>
		<g>
			<path class="st6" d="M121.5,481.3c-3.6,1.5-7.2,2.9-10.8,4.3c-3.1,1.2-6.6,2-7.1,5.7c-0.1,0.7,0.4,1.4,1,1.7
				c2.8,1.9,5.8-0.5,8.4-1.9c3.5-1.7,6.8-3.8,10.3-5.6C125.5,484.3,123.9,480.3,121.5,481.3L121.5,481.3z"/>
		</g>
	</g>
	<g>
		<g>
			<path class="st6" d="M115.3,483.4c-3.8-1.3-20.9-10-22.8-3c-1.9,7.1,17.5,7.7,21.4,8.2C117.3,489.1,118.6,484.6,115.3,483.4
				L115.3,483.4z"/>
		</g>
	</g>
	<g>
		<g>
			<path class="st6" d="M110,490.1c-4.8-4.7-9.7-10.4-15.8-13.5c-4-2-7.3,2.6-4.6,5.9c4.3,5.2,11.1,8.6,16.7,12.3
				C109.2,496.7,112.4,492.4,110,490.1L110,490.1z"/>
		</g>
	</g>
	<g>
		<g>
			<path class="st6" d="M112.8,491.5c-1.5-5.6-3.2-11.1-5-16.7c-1.5-4.6-2.9-11.8-7.6-14.1c-1.8-0.9-3.7-0.1-4.4,1.8
				c-1.7,4.5,1.5,9.8,3.4,13.9c2.7,5.8,5.5,11.6,8.5,17.3C109.2,496.5,113.6,494.6,112.8,491.5L112.8,491.5z"/>
		</g>
	</g>
	<g>
		<g>
			<path class="st6" d="M98.4,489.7c-1.3-6.3-2.2-12.7-3.5-19c-0.8-4.2-1.2-9.7-5.6-11.5c-0.4-0.2-0.9,0-1.2,0.3
				c-3.1,3.6-0.7,8.8,0.4,12.9c1.5,6.2,3.8,12.3,5.5,18.4C94.8,493.7,99,492.5,98.4,489.7L98.4,489.7z"/>
		</g>
	</g>
	<g>
		<g>
			<path class="st6" d="M85.5,503.9c2-5.4,3.7-10.9,5.3-16.5c1.3-4.3,2.9-10,1.5-14.3c-0.3-1-1.6-1.4-2.4-0.6
				c-3.5,3.2-4.3,8.8-5.6,13.2c-1.6,5.5-2.4,11.4-3.3,17C80.5,505.7,84.4,506.8,85.5,503.9L85.5,503.9z"/>
		</g>
	</g>
	<g>
		<g>
			<path class="st6" d="M86.9,487.9c5.3-3.5,7.2-9.8,9.5-15.4c1.8-4.6-4.3-6.5-7.3-4.2c-5.1,4-10.1,8-15.1,12
				c-5.1,4-11.5,7.8-15,13.3c-1.6,2.5,1.1,6.1,3.9,5.1c6-2.1,10.9-7.2,15.8-11c5.5-4.4,11.1-8.8,16.6-13.2c-2.4-1.4-4.8-2.8-7.3-4.2
				c-2.1,5.4-4.7,10.9-3.3,16.8C84.9,487.9,86.1,488.4,86.9,487.9L86.9,487.9z"/>
		</g>
	</g>
	<g>
		<g>
			<path class="st6" d="M76.9,488.8c-0.8,0.4-1.6,0.8-2.4,1.2c-0.8,0.4-0.8,0.4,0.1,0c-0.6,0.2-1.2,0.5-1.7,0.7
				c-0.8,0.3-1.5,0.6-2.3,0.9c-3.1,1.2-5.1,2.5-6.9,5.4c-2.3,3.8-1.5,8.9,1.5,12c3.4,3.4,7.9,3.4,12,1.5c3.1-1.4,4.6-4.5,6.2-7.3
				c1-1.7,2-3.3,3.2-5c1.8-2.6,1-6.4-1.1-8.5C83,487.6,79.7,487.4,76.9,488.8L76.9,488.8z"/>
		</g>
	</g>
	<g>
		<g>
			<path class="st6" d="M102.6,473.4c-4.9-4.6-12.4-5-18.5-2.8c-6.8,2.5-14.4,4.5-17.8,11.6c-3.7,7.7-1,17.9,8.2,20.1
				c8.7,2.1,14.9-2.1,22-6.3C103.6,491.8,110.1,480.5,102.6,473.4L102.6,473.4z"/>
		</g>
	</g>
	<g>
		<g>
			<path class="st6" d="M86.8,498.4c7.3,4.7,16,1.3,21.5-4.6c7.1-7.6,9-18,4-27.2c-4.6-8.4-18.1-8.6-22.6,0
				c-1.5,2.7-2.7,5.3-3.1,8.4c-0.3,2.2-1,4.3-1.1,6.6c-0.2,4.2,0.7-2.4-0.2,1.8C84.4,487,83.1,496,86.8,498.4L86.8,498.4z"/>
		</g>
	</g>
	<g>
		<g>
			<path class="st6" d="M92.3,510.2c1.9,0.2,3.7,0.3,5.6,0.5c3.3,0.3,8.3-1.5,10.9-3.3c3.6-2.6,6.1-6,6.1-10.6c0-4-2.3-8.9-6.1-10.6
				c-3.6-1.6-6.9-2.4-10.9-2.4c-3,0-6,1.2-8.9,2.1c-5.3,1.6-9.1,6.4-9.1,12C79.9,505,85.5,509.6,92.3,510.2L92.3,510.2z"/>
		</g>
	</g>
	<g>
		<g>
			<path class="st6" d="M107.5,487c-0.6-0.1-1.2-0.3-1.8-0.4c1.2,0.7,2.4,1.4,3.6,2.1c-5.1-3.9-10.9-7.2-17.5-6.8
				c-2.6,0.2-5.3,0.3-7.9,0.5c-5,0.5-8.3,2.5-12.2,5.5c-6,4.6-3.6,15,2.4,18.3c11,6.1,26.8,2.9,35.2-6.2c-1.2,0.7-2.4,1.4-3.6,2.1
				c0.6-0.2,1.2-0.5,1.8-0.7C113.7,498.8,115.4,488.9,107.5,487L107.5,487z"/>
		</g>
	</g>
	<g>
		<g>
			<path class="st6" d="M69.9,496.3c-1.4-5.6-7.5-8.6-12.9-7.1c-4.4,1.2-7.5,5.3-7.5,9.8c0,4.5,3.1,8.6,7.5,9.8
				c2.8,0.8,5.7,0.4,8.2-1C69.2,505.4,71,500.7,69.9,496.3L69.9,496.3z"/>
		</g>
	</g>
	<g>
		<g>
			<path class="st6" d="M51.4,507.3c5,0,5-7.8,0-7.8S46.4,507.3,51.4,507.3L51.4,507.3z"/>
		</g>
	</g>
	<g>
		<g>
			<path class="st6" d="M48.1,517.8c15.8,0,15.8-24.5,0-24.5S32.3,517.8,48.1,517.8L48.1,517.8z"/>
		</g>
	</g>
	<g>
		<g>
			<path class="st6" d="M113.8,446c5.1-9.9,11.6-26.6,0.8-35.3c-6.7-5.4-13.8-5.4-20.4,0C83.4,419.4,89.9,436,95,446
				C98.7,453.1,110.2,453.1,113.8,446L113.8,446z"/>
		</g>
	</g>
	<g>
		<g>
			<path class="st6" d="M116.3,413.3c4.8-12.8-9.2-29.6-22-29.7c-8.2,0-15,8.3-12.5,16.4c1.5,4.9,4.6,8,8,11.6
				c1,1.2,1.1,1.3,0.1,0.1c0.9,1.4,1.8,2.6,2.9,3.9c1.9,1.7,3.8,3.7,6.1,4.8C106.3,423.8,113.5,421,116.3,413.3L116.3,413.3z"/>
		</g>
	</g>
	<g>
		<g>
			<path class="st6" d="M81.1,385.4c5.5,0,10-4.6,10-10s-4.6-10-10-10c-5.5,0-10,4.6-10,10S75.6,385.4,81.1,385.4L81.1,385.4z"/>
		</g>
	</g>
	<g>
		<g>
			<path class="st6" d="M78.2,364.3c-0.2-0.2-0.3-0.4-0.5-0.6c-0.5-0.9-1.3-1.7-2.2-2.2c-1-0.6-2-0.8-3.1-0.8
				c-1.1,0-2.1,0.3-3.1,0.8c-0.9,0.5-1.7,1.3-2.2,2.2c-0.2,0.2-0.3,0.4-0.5,0.6c-0.6,1-0.9,2.2-0.9,3.4c0,1.2,0.3,2.3,0.9,3.4
				c1.2,2,3.4,3.3,5.8,3.3s4.6-1.3,5.8-3.3c0.6-1,0.9-2.2,0.9-3.4C79.1,366.5,78.8,365.3,78.2,364.3L78.2,364.3z"/>
		</g>
	</g>
	<g>
		<g>
			<path class="st6" d="M1081.1,512.8c0.6,2.3,0.7,3.9,1,6.2c0.3,3.5,1.8,6.7,3.2,9.8c1.6,3.7,6.8,5.2,10.4,4.2
				c4.8-1.3,7.8-6.5,6.5-11.4c-0.8-2.8-1.7-5.9-3.3-8.3c-0.8-1.2-1.8-2.3-2.7-3.4c-0.2-0.2-0.9-2.5-1.1-3.2
				c-1.3-3.1-5.6-4.3-8.6-3.5C1082.4,504.6,1080,508.8,1081.1,512.8L1081.1,512.8z"/>
		</g>
	</g>
	<g>
		<g>
			<path class="st6" d="M1089.4,505.3c-2,7.2-3.2,14.5-1.8,21.9c0.7,3.5,4.4,5.9,7.8,5.9c4.7,0,7.7-3.7,8.1-8.1
				c0.6-6.7-1.5-13.6-3.9-19.7C1097.8,500.6,1090.9,499.9,1089.4,505.3L1089.4,505.3z"/>
		</g>
	</g>
	<g>
		<g>
			<path class="st6" d="M1089.9,498c-0.8,3.8-1.8,7-3.2,10.6c-1.4,3.4-1.8,7.2-2.5,10.8c-1.2,6.3,1.7,12.6,8.2,14.4
				c7.3,2,14.9-3.7,14.8-11.3c0-4,0.3-8.3-0.5-12.2c-0.7-3.5-1.2-6.6-1.3-10.2C1105.2,491.4,1091.8,489,1089.9,498L1089.9,498z"/>
		</g>
	</g>
	<g>
		<g>
			<path class="st6" d="M1093.6,505.3c-1.6,3.3-4,6-5.6,9.3c-2,4.2-2.3,9.4-3.2,13.9c-2.8,15.1,19.5,18.1,20.7,2.8
				c0.3-3.9,0.7-7.8,0.9-11.7c0.2-4.6-2.5-8.7-3.4-13.1C1102.1,502.2,1095.5,501.4,1093.6,505.3L1093.6,505.3z"/>
		</g>
	</g>
	<g>
		<g>
			<path class="st6" d="M1085.3,522.9c-0.4,2.6-1.2,5.5-0.9,8.1c0.4,3.4,0.8,7.5,2.7,10.5c1.5,2.3,3.8,3.8,6.6,3.8
				c3.1,0,6.9-2.3,7.4-5.6c0.3-1.8,0.6-3.4,0.1-5.3c-0.4-1.5-0.8-2.9-1.2-4.4c-0.9-3.3-2.6-5.7-4.5-8.5
				C1093.1,518,1086.2,517.7,1085.3,522.9L1085.3,522.9z"/>
		</g>
	</g>
	<g>
		<g>
			<path class="st6" d="M1084.9,532.9c0.2,1,0.6,2.4,0.6,3.2c0,2.1-0.6,3.5,0,5.7c1,3.8,1.7,7.9,4.9,10.5c2.9,2.3,5.9,3.6,9.7,2.6
				c3.1-0.8,6.4-3.6,6.9-6.9c0.5-3.3,0.7-5.8-0.9-9c-0.7-1.3-1.3-2.6-2-3.9c-0.9-1.7-2.1-3-3.6-4.3c-1.1-0.9-1.6-2.3-2.4-3.5
				C1093.9,520,1083.2,525,1084.9,532.9L1084.9,532.9z"/>
		</g>
	</g>
	<g>
		<g>
			<path class="st6" d="M1100.8,519.8c0.5-0.4,0.9-0.7,1.4-1.1c-1.7,0.7-3.4,1.4-5.1,2.1c8-0.2,14.6-8.8,13.9-16.6
				c-0.3-3.9-1.8-7.3-5.3-9.3c-4-2.3-9.9-1.9-13.1,1.7c-5.1,5.7-7.3,16.7-0.6,22.2c-0.6-1.1-1.2-2.1-1.8-3.2
				c0.1,0.5,0.3,1.1,0.4,1.6C1092,521.9,1097.3,522.5,1100.8,519.8L1100.8,519.8z"/>
		</g>
	</g>
	<g>
		<g>
			<path class="st6" d="M1133.6,467.2c-0.1-0.2-0.2-0.5-0.4-0.7c-1.9-3.7-7.8-3.7-9.7,0c-0.1,0.2-0.2,0.5-0.4,0.7
				c-1,1.9-1.1,4.2,0,6.1c1.1,1.8,3.1,3,5.2,3s4.1-1.2,5.2-3C1134.8,471.4,1134.7,469.2,1133.6,467.2L1133.6,467.2z"/>
		</g>
	</g>
	<g>
		<g>
			<path class="st6" d="M1136.1,473.5c8.4,0,8.4-13,0-13C1127.7,460.5,1127.7,473.5,1136.1,473.5L1136.1,473.5z"/>
		</g>
	</g>
	<g>
		<g>
			<path class="st6" d="M1088.7,568.5c6.6,0,12.1-5.5,12.1-12.1c0-6.6-5.5-12.1-12.1-12.1s-12.1,5.5-12.1,12.1
				C1076.6,562.9,1082.1,568.5,1088.7,568.5L1088.7,568.5z"/>
		</g>
	</g>
	<g>
		<g>
			<path class="st6" d="M1074.6,560.5c0.3-0.1,0.6-0.2,0.8-0.3c2.2-0.6,4.2-1.8,5.8-3.4c2.5-2.5,3.9-5.8,3.9-9.3
				c0-2.4-0.6-4.6-1.8-6.7c-0.7-0.9-1.4-1.8-2.1-2.7c-1.6-1.6-3.6-2.8-5.8-3.4c-0.3-0.1-0.6-0.2-0.8-0.3c-1.2-0.2-2.4-0.3-3.6-0.5
				c-2.4,0-4.7,0.6-6.8,1.8c-4.1,2.4-6.7,6.9-6.7,11.7c0,3.6,1.4,7,4,9.5c1.7,1.7,3.7,2.8,6,3.5
				C1069.8,561.2,1072.2,561.2,1074.6,560.5L1074.6,560.5z"/>
		</g>
	</g>
	<path class="st7" d="M840,539.8"/>
	<g>
		<path class="st8" d="M901.7,511.5"/>
		<path class="st7" d="M901.7,526.6c0,0-54.6,3.3-61.7-15.1s90.9-2,90.9-2c-26.5-53.5,15.4-106.6,15.4-106.6
			c19.9-43.1-15.4-38-15.4-38C662,255,295.6,330.9,295.6,330.9s-9.9,11.9-8,32.5c0.5,5.4,1.8,11.4,4.3,18
			c12.1,31.6,12.1,31.6,12.1,31.6s14.2,45.6,5.4,63.9s70.8-4.5,70.8-4.5"/>
		<path class="st7" d="M340.3,463c0,0,5.6-7.6,57.5-18.1c69.6-14.1,200.1-20.4,429.8,27.4c21.8,4.5,44.4,9.5,68,15.1"/>
		<path class="st7" d="M1149.4,590.6"/>
		<path class="st7" d="M941.9,420.4c0,0,193.1,69.8,235,24.5c-79,49.6-88.3,99.9-27.6,151.1c-37.5-49.7-309.4-56.2-309.4-56.2
			c-42.4-22.1-12.4-67.5-12.4-67.5"/>
		<path class="st7" d="M397.8,444.9l5.4,16.1c0,0,14.8,39.2,8.1,48.5c-6.7,9.3-234.8,1.7-178.6,1.4c5.2,0-216.8,1.1-218.2,1.7
			c95.9-39.7,108.3-94.3,28.1-164.9l16.6,6.8c81.7,30.9,216.4,11.9,216.4,11.9l12.1-2.9"/>
		<path class="st7" d="M96.3,477.7"/>
	</g>
	<g class="st9">
		<g>
			<path class="st2" d="M808,475.5c-15.4-5.9-31.7-9.2-47.7-12.6c-15.8-3.4-31.8-6.2-47.8-8.8c-32-5.2-64.5-8-96.8-10.1
				c-63.7-4-128.1-3.6-191.8,0.2c-1.3,0.1-2.6,0.2-3.9,0.2c-7,0.4-13,5.6-13,13c0,6.8,5.9,13.4,13,13c64-3.6,127.8-5.2,191.9-1.6
				c32,1.8,63.7,5.3,95.4,9.1c15.7,1.9,31.3,4.2,47,6.6c16.4,2.5,32.8,6.2,49.4,7.7c0.6,0.1,1.3,0.1,1.9,0.2
				c3.7,0.3,7.3-2.8,8.2-6.3C815.3,481.2,812.3,477.2,808,475.5L808,475.5z"/>
		</g>
	</g>
	<path class="st10" d="M400.7,472.5"/>
	<path class="st10" d="M404.1,457.4"/>
	<path class="st10" d="M325.7,480.1"/>
	<path class="st11" d="M898.7,502.3l-35.2-3L834,486.8c0,0-17.1,30.4,10.3,39.6c27.3,9.2,87.7-2.9,87.7-2.9l7.8-1.7"/>
	<ellipse class="st12" cx="615.9" cy="634.5" rx="175.6" ry="10.8"/>
	<g>
		<g>
			<path class="st13" d="M657.6,371.8l-18.2-1.3c-2.2-0.2-3.8-2.1-3.6-4.2l2.6-35.4c0.2-2.2,2.1-3.8,4.2-3.6l18.2,1.3
				c2.2,0.2,3.8,2.1,3.6,4.2l-2.6,35.4C661.7,370.3,659.8,371.9,657.6,371.8z"/>
		</g>
		<g>
			<path class="st13" d="M569.8,321.6L569,333l-1.6,21.2c-0.4,6.1,4.2,11.4,10.2,11.9l4,0.3c6.1,0.4,11.4-4.2,11.9-10.2"/>
		</g>
		<g>
			<path class="st13" d="M559.1,352.9c-0.4,6.1-5.8,10.7-11.9,10.2l-4-0.3c-6.1-0.4-10.7-5.8-10.2-11.9l0.4-5.2"/>
			<path class="st13" d="M534.1,335.7l0.4-5.8c0.4-6.1,5.8-10.7,11.9-10.2l4,0.3c6.1,0.4,10.7,5.8,10.2,11.9"/>
			<line class="st13" x1="545" y1="341.3" x2="537.7" y2="340.7"/>
			<polyline class="st13" points="533.4,345.8 537.7,340.7 534.1,335.7 			"/>
		</g>
		<g>
			<path class="st13" d="M671.9,345.7l-0.8,16.9c-0.3,4.2-0.5,6.7-0.8,10.7"/>
			<path class="st13" d="M671.9,345.7l0.4-5.8c0.4-6.1,5.8-10.7,11.9-10.2l4,0.3c6.1,0.4,10.7,5.8,10.2,11.9l-1.6,21.2
				c-0.3,3.5-0.4,6.9-0.7,11.4"/>
			<path class="st13" d="M677.2,350.9"/>
			<path class="st13" d="M671.9,345.7"/>
			<path class="st13" d="M671.2,355.8"/>
		</g>
		<g>
			<g>
				<path class="st13" d="M604.3,324.2l-0.8,11.4l-1.6,21.2c-0.4,6.1,4.2,11.4,10.2,11.9l4,0.3c6.1,0.4,11.4-4.2,11.9-10.2"/>
			</g>
			<line class="st13" x1="607.9" y1="346.4" x2="615.7" y2="346.9"/>
		</g>
	</g>
	<g>
		<path class="st13" d="M509.7,413.3l-18.2-1.3c-2.2-0.2-3.8-2.1-3.6-4.2l2.6-35.4c0.2-2.2,2.1-3.8,4.2-3.6l18.2,1.3
			c2.2,0.2,3.8,2.1,3.6,4.2l-2.6,35.4C513.7,411.8,511.8,413.5,509.7,413.3z"/>
	</g>
	<g>
		<path class="st13" d="M583.5,406.3l-0.1,1.4c-0.4,6.1-5.8,10.7-11.9,10.2l-4-0.3c-6.1-0.4-10.7-5.8-10.2-11.9l1.6-21.2
			c0.4-6.1,5.8-10.7,11.9-10.2l4,0.3c6.1,0.4,10.7,5.8,10.2,11.9"/>
	</g>
	<g>
		<path class="st13" d="M475.4,389.3l3.6,5.7l0.6,3.7l-0.1,1.4c-0.4,6.1-5.8,10.7-11.9,10.2l-4-0.3c-6.1-0.4-10.7-5.8-10.2-11.9
			l1.6-21.2c0.4-6.1,5.8-10.7,11.9-10.2l4,0.3c6.1,0.4,10.7,5.8,10.2,11.9"/>
	</g>
	<g>
		<path class="st13" d="M759.3,410l3.6,5.7l-0.2,5.2c-0.4,6.1-5.8,10.7-11.9,10.2l-4-0.3c-6.1-0.4-10.7-5.8-10.2-11.9l0.4-5.2"/>
		<path class="st13" d="M737.7,403.6l0.4-5.8c0.4-6.1,5.8-10.7,11.9-10.2l4,0.3c6.1,0.4,10.7,5.8,10.2,11.9"/>
		<polyline class="st13" points="759.3,410 752.1,409.5 748.6,409.2 741.3,408.7 		"/>
		<line class="st13" x1="741.3" y1="408.7" x2="737.7" y2="403.6"/>
	</g>
	<g>
		<path class="st13" d="M729.7,418.5c-0.4,6.1-5.8,10.7-11.9,10.2l-4-0.3c-6.1-0.4-10.7-5.8-10.2-11.9l0.4-5.2"/>
		<path class="st13" d="M704.8,401.2l0.4-5.8c0.4-6.1,5.8-10.7,11.9-10.2l4,0.3c6.1,0.4,10.7,5.8,10.2,11.9"/>
		<line class="st13" x1="715.6" y1="406.8" x2="708.4" y2="406.3"/>
		<polyline class="st13" points="704,411.3 708.4,406.3 704.8,401.2 		"/>
	</g>
	<g>
		<path class="st13" d="M523.4,387.2l-0.8,16.9c-0.3,4.2-0.5,6.7-0.8,10.7"/>
		<path class="st13" d="M523.4,387.2l0.4-5.8c0.4-6.1,5.8-10.7,11.9-10.2l4,0.3c6.1,0.4,10.7,5.8,10.2,11.9l-1.6,21.2
			c-0.3,3.5-0.4,6.9-0.7,11.4"/>
		<path class="st13" d="M528.7,392.4"/>
		<path class="st13" d="M523.4,387.2"/>
		<path class="st13" d="M522.7,397.3"/>
	</g>
	<g>
		<path class="st13" d="M692.9,408.1l0.8-16.9c0.3-4.2,0.3-3.2,0.6-7.2"/>
		<path class="st13" d="M692.9,408.1l-0.4,5.8c-0.4,5.7-4.9,5-10.6,9.2c-0.8,0.6-2,2.1-3,2.1l0,0c-1.4-0.1-2.6-1.9-3.7-2.9
			c-4.5-4.2-9.1-4.8-8.7-10.3l1.6-21.2c0.3-3.5,0.1-3.3,0.5-7.8"/>
		<path class="st13" d="M687.7,402.9"/>
		<path class="st13" d="M692.9,408.1"/>
		<path class="st13" d="M693.7,398"/>
	</g>
	<g>
		<g>
			<path class="st13" d="M592.8,392.3l-0.8,16.9c-0.3,4.2-0.5,6.7-0.8,10.7"/>
			<path class="st13" d="M592.8,392.3l0.4-5.8c0.4-6.1,5.8-10.7,11.9-10.2l4,0.3c6.1,0.4,10.7,5.8,10.2,11.9l-1.6,21.2
				c-0.3,3.5-0.4,6.9-0.7,11.4"/>
			<path class="st13" d="M598.1,397.5"/>
			<path class="st13" d="M592.8,392.3"/>
			<path class="st13" d="M592,402.4"/>
		</g>
		<line class="st13" x1="597.4" y1="399.9" x2="613.2" y2="401.1"/>
	</g>
	<g>
		<path class="st13" d="M632.7,378.8l-0.8,11.4l-1.6,21.2c-0.4,6.1,4.2,11.4,10.2,11.9l4,0.3c6.1,0.4,11.4-4.2,11.9-10.2"/>
	</g>
	<line class="st13" x1="468.2" y1="388.7" x2="475.4" y2="389.3"/>
	<g class="st9">
		<g>
			<path class="st2" d="M591.7,502.2c-8.8,2.8-15.3,10.5-23.6,14.6c-4.3,2.1-9.1,3-13.8,2.9c-4.9-0.1-9.2-4.3-14-2.8
				c-1.8,0.6-3.4,2.3-3.2,4.2c0.4,6.4,7.2,8.4,12.6,9.5c6,1.2,12.6,0.3,18.3-1.8c10.6-3.8,22.6-13.4,25.9-24.4
				C594.4,503.2,593.1,501.8,591.7,502.2L591.7,502.2z"/>
		</g>
	</g>
	<g class="st9">
		<g>
			<path class="st2" d="M497.7,457.3c-5.7,2-11.3,5.1-16.6,7.9c-2.6,1.4-5.3,2.7-8.3,3c-2.7,0.3-4.9-1.3-7.4-2
				c-4.6-1.2-8.6,3.8-6.1,8c4,6.8,13.2,6.5,19.7,4.1c7.9-3,16.1-9.1,22.3-14.8C504,461,501.2,456,497.7,457.3L497.7,457.3z"/>
		</g>
	</g>
	<g class="st9">
		<g>
			<path class="st2" d="M647.8,449.3c-5.6,11.4,1.6,24.5,11.1,31.2c4.8,3.4,11.1,4.9,17,4.6c3.1-0.1,6.5-1.7,9.6-1.1
				c2.9,0.5,4.4,4.3,6.6,6c2.4,1.9,6.4-0.1,7-2.9c1.2-5.4-2.5-9.4-6.8-12.2c-5.1-3.3-10.8-1.4-16.4-0.9c-5.7,0.6-11.1-1.6-15.2-5.5
				c-4.8-4.6-5-11-5.6-17.2C654.6,447.8,649.7,445.5,647.8,449.3L647.8,449.3z"/>
		</g>
	</g>
	<g class="st9">
		<g>
			<path class="st2" d="M648.5,524.7c1,10.6,8.8,16.2,18,19.8c5,2,10.3,3.1,15.4,4.5c6.1,1.7,12.4,3.9,18.7,4.8
				c8.4,1.2,11.6-9.6,3.5-12.8c-8.3-3.3-17.6-4.8-26.1-7c-6.9-1.8-16.4-3-19.3-10.7C656.8,518.2,647.9,518.4,648.5,524.7
				L648.5,524.7z"/>
		</g>
	</g>
	<g class="st9">
		<g>
			<path class="st2" d="M607.9,264.2c-3.3,6.8,0.6,18,5.5,23.3c3.1,3.4,6.8,5.3,11,7c5,2.1,10.8,5.2,15.9,2.3
				c2.5-1.4,2.9-4.3,1.8-6.7c-3.3-6.7-14.1-5.8-20-9.5c-6-3.8-5.1-12.5-10-17C610.9,262.5,608.7,262.6,607.9,264.2L607.9,264.2z"/>
		</g>
	</g>
	<g class="st9">
		<g>
			<path class="st2" d="M470.5,268.4c-2,8.1,0,16.8,4.2,23.9c3.1,5.2,12,16.3,18.9,12.1c1.1-0.7,2.1-2.1,2-3.5c-0.3-3-1.4-4.4-3.9-6
				c-2.9-1.8-5.3-3.9-7.4-6.7c-4.2-5.6-5.7-11.9-5.8-18.8C478.4,265,471.6,263.8,470.5,268.4L470.5,268.4z"/>
		</g>
	</g>
	<g class="st9">
		<g>
			<path class="st2" d="M563.6,227c6.4,4.5,12.4,7.7,17.3,14.1c2.4,3.1,7.2,13.3,12.3,8c4.9-5.1-3.8-14.1-7.2-17.6
				c-4.9-5.1-12.2-10.7-19.3-12.1C562.1,218.6,559.7,224.3,563.6,227L563.6,227z"/>
		</g>
	</g>
	<path class="st14" d="M95.6,362.1c-2.5,0-4.9-0.3-7.4-0.7c2.5,1,5.2,1.6,8.2,1.5c0.6-0.9,1.4-1.7,2.3-2.4
		c-7.2-2.1-14.3-4.2-21.2-6.7c3.6,3.4,7,6,10.7,7.6C90.7,361.9,93.1,362.1,95.6,362.1z"/>
	<path class="st14" d="M294.7,508.4c-0.3,0.4-0.3,0.9,0,1.5c0-0.2,0-0.4,0-0.5C294.6,509,294.7,508.7,294.7,508.4z"/>
	<path class="st14" d="M294.6,509.3c0,0.2,0,0.4,0,0.5c0,0,0,0,0,0C294.6,509.7,294.6,509.5,294.6,509.3z"/>
	<path class="st14" d="M294.6,511.7c0-0.2,0-0.4,0-0.6c0,0,0,0,0,0C294.6,511.3,294.6,511.5,294.6,511.7z"/>
	<g class="st15">
		<path class="st2" d="M411.5,483.3c-0.1,0.6-0.3,1.4-0.4,2.5C412.9,484.6,412.6,483.8,411.5,483.3z"/>
		<path class="st2" d="M411.5,483.3c-0.1,0.6-0.3,1.4-0.4,2.5C412.9,484.6,412.6,483.8,411.5,483.3z"/>
		<path class="st2" d="M411.5,483.3c-0.1,0.6-0.3,1.4-0.4,2.5C412.9,484.6,412.6,483.8,411.5,483.3z"/>
		<path class="st2" d="M411.5,483.3c-0.1,0.6-0.3,1.4-0.4,2.5C412.9,484.6,412.6,483.8,411.5,483.3z"/>
	</g>
	<g class="st15">
		<path class="st2" d="M86.5,469.5c-9.3,9.9-42.6,32.8-56.5,36.1c88.2,26.5,230.2-1.3,318.4,8.6c-4.6,0-4.6,0-9.3,0
			c18.9,4.5,32.5,2.5,42.3-3.3c0-0.4,0-0.8,0-1.2c-0.3-0.6,29.4,0.1,29.9-0.2c4.2-10.7,2-33.9,0.2-26.2c1.1,0.5,1.4,1.3-0.4,2.5
			c0.1-1,0.3-1.8,0.4-2.5c-2.8-1.3-11.2-1.2-9-1.5c1.1-3.4,2.1-6.9,2.9-10.4l-8.6-24.3c-34.4,1.5-92.6,38.8-89.5,34.1
			c16.9-39.5-9.3-74.1-19.6-112.1c-48.8,4.8-99.3,12.7-134.5-2.1c-8.8,2.1-16.4-0.2-23.1-1.8c-7.8-1.7-15.7-3.2-23.5-4.8
			c-1.3,0.7-2.5,1.5-3.2,2.4c2.5,0,5.2-0.3,8.2-0.8c-3,0.5-5.7,0.8-8.2,0.8c-0.6,0.7-1.1,1.5-1.1,2.5c0-1,0.4-1.8,1.1-2.5
			c-4.2,0.1-7.9-0.4-11.4-1.5c-15.1-1.6-33.5-12.6-48.6-12.6c23.2,23.2,44.8,41.5,54.1,71.3"/>
		<path class="st2" d="M86.5,469.5c-9.3,9.9-42.6,32.8-56.5,36.1c88.2,26.5,230.2-1.3,318.4,8.6c-4.6,0-4.6,0-9.3,0
			c18.9,4.5,32.5,2.5,42.3-3.3c0-0.4,0-0.8,0-1.2c-0.3-0.6,29.4,0.1,29.9-0.2c4.2-10.7,2-33.9,0.2-26.2c1.1,0.5,1.4,1.3-0.4,2.5
			c0.1-1,0.3-1.8,0.4-2.5c-2.8-1.3-11.2-1.2-9-1.5c1.1-3.4,2.1-6.9,2.9-10.4l-8.6-24.3c-34.4,1.5-92.6,38.8-89.5,34.1
			c16.9-39.5-9.3-74.1-19.6-112.1c-48.8,4.8-99.3,12.7-134.5-2.1c-8.8,2.1-16.4-0.2-23.1-1.8c-7.8-1.7-15.7-3.2-23.5-4.8
			c-1.3,0.7-2.5,1.5-3.2,2.4c2.5,0,5.2-0.3,8.2-0.8c-3,0.5-5.7,0.8-8.2,0.8c-0.6,0.7-1.1,1.5-1.1,2.5c0-1,0.4-1.8,1.1-2.5
			c-4.2,0.1-7.9-0.4-11.4-1.5c-15.1-1.6-33.5-12.6-48.6-12.6c23.2,23.2,44.8,41.5,54.1,71.3"/>
		<path class="st2" d="M86.5,469.5c-9.3,9.9-42.6,32.8-56.5,36.1c88.2,26.5,230.2-1.3,318.4,8.6c-4.6,0-4.6,0-9.3,0
			c18.9,4.5,32.5,2.5,42.3-3.3c0-0.4,0-0.8,0-1.2c-0.3-0.6,29.4,0.1,29.9-0.2c4.2-10.7,2-33.9,0.2-26.2c1.1,0.5,1.4,1.3-0.4,2.5
			c0.1-1,0.3-1.8,0.4-2.5c-2.8-1.3-11.2-1.2-9-1.5c1.1-3.4,2.1-6.9,2.9-10.4l-8.6-24.3c-34.4,1.5-92.6,38.8-89.5,34.1
			c16.9-39.5-9.3-74.1-19.6-112.1c-48.8,4.8-99.3,12.7-134.5-2.1c-8.8,2.1-16.4-0.2-23.1-1.8c-7.8-1.7-15.7-3.2-23.5-4.8
			c-1.3,0.7-2.5,1.5-3.2,2.4c2.5,0,5.2-0.3,8.2-0.8c-3,0.5-5.7,0.8-8.2,0.8c-0.6,0.7-1.1,1.5-1.1,2.5c0-1,0.4-1.8,1.1-2.5
			c-4.2,0.1-7.9-0.4-11.4-1.5c-15.1-1.6-33.5-12.6-48.6-12.6c23.2,23.2,44.8,41.5,54.1,71.3"/>
		<path class="st2" d="M86.5,469.5c-9.3,9.9-42.6,32.8-56.5,36.1c88.2,26.5,230.2-1.3,318.4,8.6c-4.6,0-4.6,0-9.3,0
			c18.9,4.5,32.5,2.5,42.3-3.3c0-0.4,0-0.8,0-1.2c-0.3-0.6,29.4,0.1,29.9-0.2c4.2-10.7,2-33.9,0.2-26.2c1.1,0.5,1.4,1.3-0.4,2.5
			c0.1-1,0.3-1.8,0.4-2.5c-2.8-1.3-11.2-1.2-9-1.5c1.1-3.4,2.1-6.9,2.9-10.4l-8.6-24.3c-34.4,1.5-92.6,38.8-89.5,34.1
			c16.9-39.5-9.3-74.1-19.6-112.1c-48.8,4.8-99.3,12.7-134.5-2.1c-8.8,2.1-16.4-0.2-23.1-1.8c-7.8-1.7-15.7-3.2-23.5-4.8
			c-1.3,0.7-2.5,1.5-3.2,2.4c2.5,0,5.2-0.3,8.2-0.8c-3,0.5-5.7,0.8-8.2,0.8c-0.6,0.7-1.1,1.5-1.1,2.5c0-1,0.4-1.8,1.1-2.5
			c-4.2,0.1-7.9-0.4-11.4-1.5c-15.1-1.6-33.5-12.6-48.6-12.6c23.2,23.2,44.8,41.5,54.1,71.3"/>
	</g>
	<path class="st14" d="M294.6,509.9c0,0.4,0,0.8,0,1.2c0,0,0,0,0,0C294.6,510.7,294.6,510.3,294.6,509.9
		C294.6,509.9,294.6,509.9,294.6,509.9z"/>
	<path class="st14" d="M309.1,482.2c0.2,0,0.4,0.1,0.5,0.1c0-0.1,0.1-0.2,0.1-0.3C309.5,482,309.3,482.1,309.1,482.2z"/>
	<path class="st14" d="M294.6,511.1c0.1-0.1,0.2-0.2,0.4-0.3c-0.1-0.3-0.2-0.6-0.3-0.9C294.6,510.3,294.6,510.7,294.6,511.1z"/>
	<path class="st14" d="M290.9,365.5c-0.8-0.1-1.5-0.1-2.3-0.2c0,0.1,0,0.1,0,0.2H290.9z"/>
	<path class="st14" d="M290.9,342.3c-0.3,1-0.6,1.9-0.9,2.9C291.3,344.5,292.3,343.7,290.9,342.3z"/>
	<g class="st16">
		<g>
			<path class="st17" d="M650.5,254.5c3.1,1.7,5.6,3.7,7.5,6.7c1.9,3,2.2,6.8,4.7,9.4c1.9,2.1,5.5,1.5,6.9-0.9
				c2.7-4.7,0-10.8-2.9-14.8c-3.1-4.3-7.5-7.5-12.6-9C649,244.5,645.9,251.9,650.5,254.5L650.5,254.5z"/>
		</g>
	</g>
	<g class="st16">
		<g>
			<path class="st17" d="M926,382c0.9,2.2,2.1,4.1,2.1,6.6c0,3.1-1.8,6.2-3.2,8.8c-3.5,6.3-8,11.9-11.7,18.1
				c-4.6,7.7-7.6,16.8-9.9,25.5c-1.4,5.1-2.1,10.4-2.6,15.7c-0.5,5.1-1.2,9.6,3.4,12.8c1.7,1.2,3.9,0.5,5.4-0.7
				c4-3.2,2.6-9.3,2.9-13.9c0.4-5.5,1.7-10.9,3.1-16.2c2.5-9.2,6.3-17.3,11.4-25.3c3.9-6.1,7.9-12.5,9.4-19.7
				c1.3-5.7-0.8-13.3-7.2-14.6C927.3,378.7,925.2,380.2,926,382L926,382z"/>
		</g>
	</g>
	<g class="st16">
		<g>
			<path class="st17" d="M930.6,330.3c2.5,0,4.6-2.1,4.6-4.6c0-2.5-2.1-4.6-4.6-4.6s-4.6,2.1-4.6,4.6
				C926,328.2,928.1,330.3,930.6,330.3L930.6,330.3z"/>
		</g>
	</g>
	<g class="st15">
		<g>
			<path class="st2" d="M319.5,328.6c-3.5-4.1-9.8-0.4-13.2,2c-5,3.6-8.7,8.6-11.1,14.2c-2.3,5.4-3.2,11.4-1.4,17.1
				c1.5,4.8,2,9.6,2.9,14.5c0.8,4.2,2.6,8,4.3,11.9c5.9,13.5,10.1,28.7,12.8,43.2c1.4,7.7,2.5,15.5,2.2,23.3
				c-0.1,4-0.5,7.9-1.3,11.9c-0.7,3.6-2,7-2.3,10.7c-0.3,4.6,6,5.7,8.2,2.2c3.3-5.3,3.6-12.8,4.2-18.8c0.6-7.1,0.3-14.2,0-21.3
				c-0.7-14.1-3.7-29.1-8.7-42.3c-2.2-6-4.8-12-7.5-17.8c-1.9-4-2.2-8.7-3.1-13c-0.7-3.4-2.5-6.7-2.9-10.1
				c-0.7-5.7,2.5-11.1,5.7-15.5c1.6-2.2,3.7-4.1,6-5.5c2.2-1.3,4.1-1.6,5.7-3.8C320.5,330.6,320.1,329.4,319.5,328.6L319.5,328.6z"
				/>
		</g>
	</g>
	<g>
		<g>
			<path class="st17" d="M1110,473.5c-6,3.7-10.7,9-14.7,14.8c-3.7,5.4-8.8,15.1-5.2,21.5c1.1,2,4,2.3,5.5,0.7
				c3.8-4,4.5-11.2,6.8-16.2c2.6-5.6,6.3-10.8,11.3-14.4C1117.5,477.1,1114.1,471,1110,473.5L1110,473.5z"/>
		</g>
	</g>
</g>
</svg>
