<?xml version="1.0" encoding="utf-8"?>
<!-- Generator: Adobe Illustrator 21.1.0, SVG Export Plug-In . SVG Version: 6.00 Build 0)  -->
<svg version="1.1" id="Capa_1" xmlns="http://www.w3.org/2000/svg" xmlns:xlink="http://www.w3.org/1999/xlink" x="0px" y="0px"
	 viewBox="0 0 236.4 89" style="enable-background:new 0 0 236.4 89;" xml:space="preserve">
<style type="text/css">
	.st0{fill:#FFFFFF;}
</style>
<path class="st0" d="M3.8,33.1C35.7,42.8,67,46.1,96.7,49.8c29.6,3.8,59.9,4.7,90.7,2.6c-10.4,5.9-21.4,13.5-33.1,23
	c-1.6,1.3-2.5,3-2.7,5.1c-0.2,2.1,0.4,3.9,1.7,5.6c1.3,1.6,3,2.6,5.1,2.9c2.1,0.3,3.9-0.2,5.4-1.5c13.8-11.3,26.9-19.9,39.3-26
	c11.5-5.8,18.8-9.4,21.8-10.8c0.2,0,0.4,0,0.5-0.1l1-0.1c0.8-0.1,1.4-0.2,1.6-0.3c1.9-0.3,3.5-0.8,4.7-1.7c3.2-2.3,4.3-5.3,3.4-9
	c-0.8-3.6-3-6-6.5-6.9c-1.4-0.5-3-0.6-4.8-0.4l-2.6,0.5c-4.7-0.9-8.6-1.7-11.6-2.5c-17.3-4.8-32.3-14-45.1-27.6
	c-1.5-1.5-3.2-2.4-5.3-2.4c-2.1-0.1-3.9,0.6-5.4,2c-1.5,1.4-2.2,3.2-2.2,5.3c0,2.1,0.7,3.9,2.2,5.5c10,10.6,20.9,18.7,32.8,24.4
	c-30.1,2.1-59.6,1.3-88.5-2.2c-28.4-3.6-59.2-6.7-91-16.4C0.7,16.6-3.4,31.1,3.8,33.1z"/>
</svg>
