<?xml version="1.0" encoding="utf-8"?>
<!-- Generator: Adobe Illustrator 21.1.0, SVG Export Plug-In . SVG Version: 6.00 Build 0)  -->
<svg version="1.1" id="Capa_1" xmlns="http://www.w3.org/2000/svg" xmlns:xlink="http://www.w3.org/1999/xlink" x="0px" y="0px"
	 viewBox="0 0 430.1 430.1" style="enable-background:new 0 0 430.1 430.1;" xml:space="preserve">
<style type="text/css">
	.st0{fill:#FFFFFF;}
</style>
<g>
	<path class="st0" d="M430.1,191.1c0,24.7-4.1,47.7-12.4,69.1c-8.3,21.4-19.8,38.1-34.5,50.2c-14.7,12.1-31.5,18.1-50.3,18.1
		c-13.5,0-25.7-2.8-36.7-8.3c-10.9-5.5-19.5-13.2-25.6-23h-3.8c-18.3,20.8-40.5,31.3-66.7,31.3c-31.3,0-55.3-9.4-72.1-28.1
		c-16.8-18.7-25.1-44.9-25.1-78.5c0-24.7,5.3-46.5,15.9-65.5c10.6-19,25.9-33.6,45.9-43.9c20-10.2,43.2-15.4,69.5-15.4
		c13.9,0,29.1,1.4,45.8,4.3c16.7,2.9,31.9,6.8,45.8,11.7l-5.4,110.8l-0.5,24.7c0,15.1,4.2,22.6,12.6,22.6c8.9,0,16.1-7.6,21.7-22.9
		c5.6-15.2,8.3-34.5,8.3-57.8c0-41.8-11.5-74.2-34.6-96.9c-23.1-22.8-55.8-34.1-98.2-34.1c-32.5,0-60.7,6.9-84.8,20.7
		c-24,13.8-42.4,33.7-55,59.5c-12.7,25.8-19,56.1-19,90.7c0,44.7,12.2,79.1,36.6,103.4c24.4,24.3,58.8,36.4,103.2,36.4
		c19.8,0,41.3-2.2,64.3-6.6c23-4.4,45.5-10.6,67.6-18.6v60.1c-38.3,16.6-81.1,25-128.2,25c-66.3,0-118.5-17.7-156.3-53.2
		C19.9,341.5,1,292.3,1,229.4c0-44.3,9.8-84,29.4-119.1c19.6-35.1,46.6-62.2,81.1-81.2c34.5-19,73.5-28.5,117.1-28.5
		c40,0,75.4,7.8,106.1,23.4c30.7,15.6,54.3,37.8,70.8,66.6C421.8,119.4,430.1,152.9,430.1,191.1z M174.9,221.3
		c0,17.5,3.1,30.2,9.4,38.1c6.2,7.9,14.5,11.8,24.8,11.8c13.2,0,22.8-5.4,29-16.3c6.2-10.9,10.2-30.1,12.1-57.8l2.6-41
		c-6.8-1.1-12.7-1.6-17.4-1.6c-18.5,0-33.1,5.9-44,17.6C180.3,183.9,174.9,200.3,174.9,221.3z"/>
</g>
</svg>
